M48
; DRILL file {KiCad 9.0.3} date 2025-09-26T22:05:35+0200
; FORMAT={-:-/ absolute / inch / decimal}
; #@! TF.CreationDate,2025-09-26T22:05:35+02:00
; #@! TF.GenerationSoftware,Kicad,Pcbnew,9.0.3
; #@! TF.FileFunction,Plated,1,2,PTH
FMAT,2
INCH
; #@! TA.AperFunction,Plated,PTH,ViaDrill
T1C0.0118
; #@! TA.AperFunction,Plated,PTH,ComponentDrill
T2C0.0276
; #@! TA.AperFunction,Plated,PTH,ComponentDrill
T3C0.0295
; #@! TA.AperFunction,Plated,PTH,ComponentDrill
T4C0.0315
; #@! TA.AperFunction,Plated,PTH,ComponentDrill
T5C0.0374
; #@! TA.AperFunction,Plated,PTH,ComponentDrill
T6C0.0394
; #@! TA.AperFunction,Plated,PTH,ComponentDrill
T7C0.0433
; #@! TA.AperFunction,Plated,PTH,ComponentDrill
T8C0.0472
; #@! TA.AperFunction,Plated,PTH,ComponentDrill
T9C0.0512
; #@! TA.AperFunction,Plated,PTH,ComponentDrill
T10C0.0551
; #@! TA.AperFunction,Plated,PTH,ComponentDrill
T11C0.0591
; #@! TA.AperFunction,Plated,PTH,ComponentDrill
T12C0.0728
; #@! TA.AperFunction,Plated,PTH,ComponentDrill
T13C0.0787
%
G90
G05
T1
X0.8661Y-5.561
X1.25Y-4.3307
X1.25Y-4.8425
X1.25Y-4.9016
X1.25Y-4.9409
X1.3091Y-6.5256
X1.5945Y-5.5512
X1.7421Y-4.5669
X1.7618Y-5.4528
X1.7913Y-5.374
X1.939Y-6.4272
X1.939Y-6.4272
X1.9783Y-6.8799
X2.313Y-3.9075
X2.3203Y-5.9868
X2.3228Y-6.1417
X2.687Y-4.2224
X2.7067Y-4.8622
X2.9093Y-4.6612
X2.9782Y-5.4307
X2.9806Y-5.6707
X3.1322Y-5.374
X3.3268Y-4.3898
X3.4449Y-5.4626
X3.4843Y-5.0
X3.7795Y-4.9997
X3.8484Y-4.5079
X3.9173Y-5.1969
X4.1732Y-3.9173
X4.1926Y-4.9997
X4.1926Y-4.9997
X4.1926Y-4.9997
X4.1929Y-6.8406
X4.2717Y-5.689
X4.3602Y-5.9547
X4.3898Y-6.4272
X4.4488Y-5.0
X4.498Y-6.7815
X4.626Y-4.7047
X4.7047Y-6.8504
X4.8327Y-2.9429
X4.8917Y-4.3504
X4.9291Y-6.502
X4.9291Y-6.6909
X4.937Y-6.313
X5.2165Y-4.8327
X5.2756Y-6.1909
X5.2953Y-6.6673
X5.3217Y-4.6558
X5.3248Y-5.0
X5.6299Y-6.4469
X5.6477Y-6.5434
X5.7579Y-3.9173
X5.8268Y-5.0
X5.8268Y-5.0
X5.8268Y-5.0
X5.8504Y-6.5807
X5.9252Y-4.3406
X6.122Y-4.5374
X6.1614Y-4.7244
X6.1811Y-6.0433
X6.25Y-4.8228
X6.3334Y-6.4075
X6.4567Y-5.0
X6.6831Y-6.3484
X6.8602Y-5.0
X7.2047Y-4.5276
X7.2047Y-4.8327
X7.2244Y-5.1378
X7.2343Y-4.6752
X7.3819Y-5.0591
X7.5197Y-5.0
X7.5197Y-5.0
X7.5197Y-5.0
X7.6255Y-6.2484
X7.6575Y-5.0591
X7.6832Y-6.0098
X7.7657Y-5.9547
X7.7953Y-5.1378
X7.8738Y-6.197
X7.9331Y-5.7283
X7.9429Y-4.8524
X7.9626Y-4.5374
X7.9626Y-4.7244
X8.0118Y-6.5551
X8.0807Y-5.0
X8.4843Y-5.4429
X8.4843Y-5.6299
X8.4843Y-6.2598
X8.7697Y-5.0
X9.6161Y-4.7736
X9.7835Y-4.5866
X9.9114Y-4.9705
X10.0984Y-4.3012
X10.3445Y-4.9311
X10.3445Y-5.3839
X10.5217Y-4.8228
X10.6299Y-4.3504
X10.6496Y-4.6161
X10.9449Y-4.3504
X11.4272Y-4.5768
X11.4764Y-4.813
X11.9783Y-4.7933
X12.0472Y-4.5866
X12.1752Y-5.0689
X12.1949Y-4.8524
X12.2539Y-4.6457
X12.3691Y-6.0401
X12.3711Y-5.8204
X12.5197Y-5.7677
X12.5492Y-4.9311
X12.5787Y-4.8031
X12.628Y-4.498
X12.6411Y-6.0146
X12.7657Y-4.9311
X12.9823Y-4.7539
X12.9921Y-4.252
X13.1004Y-4.685
X13.6516Y-4.5866
X13.9567Y-5.1181
X14.1043Y-4.4587
X14.3701Y-4.9311
X14.4882Y-4.9311
X14.5079Y-5.0787
X14.7441Y-5.0984
X14.9Y-4.32
X17.7565Y-6.6187
X17.7565Y-7.2191
X17.7663Y-6.973
X17.7987Y-6.4734
X17.8118Y-6.6868
X17.9577Y-6.6331
X18.061Y-7.5537
X18.1102Y-7.5537
X18.1496Y-7.5537
X18.1742Y-6.6232
X18.189Y-7.5537
X18.2388Y-7.5537
X18.3569Y-7.7309
X18.4947Y-7.0715
X18.5734Y-7.1108
X18.6325Y-7.0715
X18.6747Y-6.1811
X18.7998Y-6.1659
X18.7998Y-6.9632
X18.9671Y-6.1659
X18.9671Y-7.0813
X18.9967Y-7.3766
X19.2919Y-7.603
X19.3707Y-7.6522
X19.3805Y-7.4652
X19.4396Y-8.2033
X19.4986Y-6.6384
X19.5768Y-6.462
X19.5774Y-7.0321
X19.5846Y-6.6884
X19.7421Y-6.619
X19.9587Y-6.6195
X20.4246Y-7.6628
X20.5413Y-6.5059
X20.5616Y-7.1404
X20.6411Y-7.6628
X20.7781Y-7.1404
X20.7978Y-7.603
X21.3982Y-6.7368
X21.4376Y-7.0518
X21.4483Y-6.4994
X21.4582Y-6.703
X21.6156Y-6.6175
X21.8617Y-6.6175
X22.4606Y-6.5748
T2
X18.7008Y-5.4012
X18.7008Y-5.7012
X20.8268Y-5.3815
X20.8268Y-5.6815
X23.0906Y-5.4012
X23.0906Y-5.7012
T3
X4.0866Y-7.0217
X4.1654Y-7.0217
X4.2441Y-7.0217
X4.3228Y-7.0217
X4.4016Y-7.0217
X4.4803Y-7.0217
X4.5591Y-7.0217
X4.6378Y-7.0217
X5.2047Y-7.0217
X5.2835Y-7.0217
X5.3622Y-7.0217
X5.4409Y-7.0217
X5.5197Y-7.0217
X5.5984Y-7.0217
X5.6772Y-7.0217
X5.7559Y-7.0217
X8.2776Y-7.0276
X8.3563Y-7.0276
X8.435Y-7.0276
X8.5138Y-7.0276
X8.5925Y-7.0276
X8.6713Y-7.0276
X9.6949Y-7.0276
X9.7736Y-7.0276
X9.8524Y-7.0276
X9.9311Y-7.0276
X19.8046Y-8.2927
X19.8834Y-8.2927
X19.9621Y-8.2927
X20.0408Y-8.2927
X20.1196Y-8.2927
X20.1983Y-8.2927
X20.2165Y-0.9843
X20.2771Y-8.2927
X20.2953Y-0.9843
X20.3558Y-8.2927
X20.374Y-0.9843
X20.4528Y-0.9843
X22.8937Y-8.2874
X22.9724Y-8.2874
X23.0512Y-8.2874
X23.1299Y-8.2874
X23.2087Y-8.2874
X23.2874Y-8.2874
X23.3661Y-8.2874
X23.4449Y-8.2874
X24.2126Y-1.0039
X24.2913Y-1.0039
X24.3701Y-1.0039
X24.4488Y-1.0039
X24.5276Y-1.0039
X24.6063Y-1.0039
T4
X2.3082Y-4.9207
X2.6082Y-4.9207
X2.9882Y-4.9207
X3.2882Y-4.9207
X6.9521Y-5.4981
X7.2521Y-5.4981
X7.6332Y-5.4981
X7.9332Y-5.4981
X11.6994Y-5.311
X11.9994Y-5.311
X12.3805Y-5.311
X12.6805Y-5.311
X17.6453Y-1.7028
X17.861Y-1.2303
X17.861Y-1.5303
X17.9453Y-1.7028
X17.961Y-1.2303
X18.061Y-1.2303
X18.061Y-1.5303
X18.2531Y-1.5157
X18.2531Y-1.6831
X18.263Y-1.8701
X18.5531Y-1.5157
X18.5531Y-1.6831
X18.563Y-1.8701
X19.0724Y-1.6831
X19.3724Y-1.6831
X19.3768Y-1.2382
X19.3768Y-1.5382
X19.4768Y-1.2382
X19.5768Y-1.2382
X19.5768Y-1.5382
X19.7197Y-1.6831
X19.7197Y-1.8602
X19.7295Y-1.5059
X20.0197Y-1.6831
X20.0197Y-1.8602
X20.0295Y-1.5059
X20.5268Y-1.6732
X20.8268Y-1.6732
X20.8409Y-1.2382
X20.8409Y-1.5382
X20.9409Y-1.2382
X21.0409Y-1.2382
X21.0409Y-1.5382
X21.1862Y-1.8701
X21.1961Y-1.5157
X21.1961Y-1.6732
X21.4862Y-1.8701
X21.4961Y-1.5157
X21.4961Y-1.6732
X22.9898Y-2.6083
X23.1744Y-1.5134
X23.1744Y-1.7102
X23.226Y-1.3559
X23.2898Y-2.6083
X23.4228Y-1.3559
X23.472Y-2.3083
X23.472Y-2.6083
X23.4744Y-1.5134
X23.4744Y-1.7102
X23.4744Y-1.8677
X23.4744Y-2.1677
X24.102Y-2.6083
X24.2456Y-7.2327
X24.2456Y-7.5327
X24.2554Y-4.1815
X24.2554Y-4.4815
X24.2554Y-4.9591
X24.2554Y-5.2591
X24.2554Y-5.7465
X24.2554Y-6.0465
X24.2554Y-6.524
X24.2554Y-6.824
X24.2554Y-8.0201
X24.2554Y-8.3201
X24.3307Y-1.5157
X24.3307Y-1.7126
X24.3823Y-1.3583
X24.402Y-2.6083
X24.5791Y-1.3583
X24.626Y-2.3106
X24.626Y-2.6106
X24.6307Y-1.5157
X24.6307Y-1.7126
X24.6307Y-1.8677
X24.6307Y-2.1677
X24.9803Y-4.1929
X24.9803Y-4.4882
X24.9803Y-4.9614
X24.9803Y-5.748
X24.9803Y-6.0433
X24.9814Y-6.5165
X24.9902Y-5.2567
X24.9902Y-6.8118
X24.9902Y-7.2539
X24.9902Y-7.5492
X24.9912Y-8.0224
X25.0Y-8.3177
X25.2043Y-2.6083
X25.2803Y-4.1929
X25.2803Y-4.4882
X25.2803Y-4.9614
X25.2803Y-5.748
X25.2803Y-6.0433
X25.2814Y-6.5165
X25.2902Y-5.2567
X25.2902Y-6.8118
X25.2902Y-7.2539
X25.2902Y-7.5492
X25.2912Y-8.0224
X25.3Y-8.3177
X25.3717Y-1.5157
X25.3717Y-1.7126
X25.3937Y-4.9614
X25.3937Y-5.748
X25.3948Y-4.1937
X25.3948Y-6.5165
X25.4035Y-4.489
X25.4035Y-5.2567
X25.4035Y-6.0433
X25.4035Y-6.8118
X25.4035Y-7.2539
X25.4046Y-8.0224
X25.4134Y-7.5492
X25.4134Y-8.3177
X25.4232Y-1.3583
X25.5043Y-2.6083
X25.6201Y-1.3583
X25.6717Y-1.5157
X25.6717Y-1.7126
X25.6717Y-1.8677
X25.6717Y-2.1677
X25.6791Y-2.3106
X25.6791Y-2.6106
X25.6937Y-4.9614
X25.6937Y-5.748
X25.6948Y-4.1937
X25.6948Y-6.5165
X25.7035Y-4.489
X25.7035Y-5.2567
X25.7035Y-6.0433
X25.7035Y-6.8118
X25.7035Y-7.2539
X25.7046Y-8.0224
X25.7134Y-7.5492
X25.7134Y-8.3177
T5
X18.8189Y-4.8622
X18.9173Y-4.8622
X19.0157Y-4.8622
X19.1142Y-4.8622
X20.9646Y-4.8622
X21.063Y-4.8622
X21.1614Y-4.8622
X21.2598Y-4.8622
X23.2283Y-4.8622
X23.3268Y-4.8622
X23.4252Y-4.8622
X23.5236Y-4.8622
T6
X1.8209Y-5.4921
X1.939Y-5.374
X2.0276Y-4.5866
X2.1161Y-5.9941
X2.4484Y-4.7638
X2.4563Y-5.6851
X2.6476Y-6.5453
X2.8106Y-4.7599
X3.1453Y-4.7638
X3.1791Y-5.0886
X4.1959Y-5.8632
X5.8271Y-5.8982
X7.0932Y-5.3415
X7.1011Y-6.2627
X7.5197Y-5.3543
X7.7822Y-5.6619
X7.7901Y-5.3415
X8.7379Y-6.6057
X9.626Y-5.6299
X10.226Y-6.3012
X10.352Y-5.4902
X10.5016Y-6.3091
X11.8415Y-5.1545
X11.8445Y-6.0813
X12.2736Y-5.1673
X12.5364Y-5.1565
X12.5384Y-5.4724
X17.2884Y-6.8791
X17.3145Y-6.2652
X17.3573Y-6.6921
X17.5984Y-3.7008
X18.101Y-7.8195
X18.1994Y-7.3274
X18.2475Y-8.2565
X18.2594Y-6.9541
X18.3219Y-6.328
X18.3268Y-1.2402
X18.6604Y-8.1965
X19.0433Y-6.8459
X19.065Y-1.2697
X19.0827Y-6.2728
X19.1137Y-7.2722
X19.2785Y-8.0114
X19.2785Y-8.3028
X19.626Y-2.3228
X19.8031Y-5.7677
X19.8425Y-2.6575
X19.9409Y-1.2382
X20.0374Y-6.9618
X20.0965Y-6.3319
X20.0984Y-2.3228
X20.2559Y-7.3622
X20.277Y-8.0073
X20.4724Y-1.2795
X20.5315Y-2.3228
X20.8071Y-2.6575
X20.8766Y-8.036
X20.9365Y-6.7553
X20.9562Y-6.273
X21.0433Y-2.3228
X21.1225Y-7.288
X21.2014Y-7.5341
X21.5157Y-2.3228
X21.7717Y-2.6575
X21.9011Y-6.962
X21.97Y-6.3419
X22.0276Y-2.3228
X22.1063Y-5.7677
X23.6492Y-1.7004
X23.9764Y-7.4508
X24.0453Y-6.8799
X24.0551Y-7.9921
X24.1437Y-6.1811
X24.2126Y-4.6457
X24.4488Y-5.3937
X24.8055Y-1.7028
X25.8465Y-1.7028
T7
X17.0835Y-5.315
X17.1819Y-5.8071
X17.2819Y-5.8071
X17.3819Y-5.8071
X17.4835Y-5.315
X18.2661Y-5.8161
X18.3661Y-5.8161
X18.4661Y-5.8161
X19.2035Y-5.8134
X19.3035Y-5.8134
X19.4035Y-5.8134
X20.4193Y-5.8087
X20.5193Y-5.8087
X20.6193Y-5.8087
X21.3567Y-5.8059
X21.4567Y-5.8059
X21.5567Y-5.8059
X22.6831Y-5.8087
X22.7831Y-5.8087
X22.8831Y-5.8087
X23.6205Y-5.8059
X23.7205Y-5.8059
X23.8205Y-5.8059
T8
X1.0827Y-4.498
X1.0827Y-5.3839
X7.022Y-1.9685
X8.04Y-2.6071
X8.04Y-3.4929
X9.622Y-1.9685
T9
X18.3268Y-3.7598
X18.3268Y-4.5472
X18.5236Y-4.5472
X18.9173Y-4.5472
X19.1142Y-3.7598
X19.1142Y-4.5472
X20.4724Y-3.7598
X20.4724Y-4.5472
X20.6693Y-4.5472
X21.063Y-4.5472
X21.2598Y-3.7598
X21.2598Y-4.5472
X22.7362Y-3.7598
X22.7362Y-4.5472
X22.9331Y-4.5472
X23.3268Y-4.5472
X23.5236Y-3.7598
X23.5236Y-4.5472
T10
X1.0838Y-3.1102
X1.0838Y-3.4055
X1.0925Y-5.7874
X1.0925Y-6.0827
X1.4203Y-6.741
X1.7203Y-6.741
X2.0203Y-6.741
X2.3203Y-6.741
X15.4615Y-3.75
X15.4615Y-4.0453
X15.4615Y-4.498
X15.4615Y-4.7933
X17.2156Y-3.6122
X17.2156Y-3.9075
X17.2156Y-4.3996
X17.2156Y-4.6949
X17.2933Y-7.3343
X17.2933Y-7.6343
X17.2933Y-7.9343
X17.2933Y-8.2343
X18.5925Y-3.318
X18.8878Y-3.318
X20.7457Y-3.3105
X21.0409Y-3.3105
X23.0094Y-3.3105
X23.3047Y-3.3105
X25.9044Y-4.2028
X25.9044Y-4.498
X25.9044Y-4.9705
X25.9044Y-5.2657
X25.9044Y-5.7579
X25.9044Y-6.0531
X25.9044Y-6.5256
X25.9044Y-6.8209
X25.9143Y-7.2638
X25.9143Y-7.5591
X25.9143Y-8.0315
X25.9143Y-8.3268
T11
X1.7323Y-2.4409
X1.9469Y-2.4409
X2.1614Y-2.4409
X3.5039Y-2.4409
X3.7185Y-2.4409
X3.9331Y-2.4409
X5.2756Y-2.4409
X5.4902Y-2.4409
X5.7047Y-2.4409
X10.9449Y-2.4409
X11.1594Y-2.4409
X11.374Y-2.4409
X12.7165Y-2.4409
X12.9311Y-2.4409
X13.1457Y-2.4409
X14.4882Y-2.4409
X14.7028Y-2.4409
X14.9173Y-2.4409
T12
X1.3411Y-3.7033
X1.3411Y-3.9344
X1.5722Y-3.7033
X1.5722Y-3.9344
X2.4041Y-2.9553
X2.4041Y-3.1864
X2.6352Y-2.9553
X2.6352Y-3.1864
X3.1128Y-3.7033
X3.1128Y-3.9344
X3.3439Y-3.7033
X3.3439Y-3.9344
X4.1758Y-2.9553
X4.1758Y-3.1864
X4.4069Y-2.9553
X4.4069Y-3.1864
X4.8844Y-3.7033
X4.8844Y-3.9344
X5.1156Y-3.7033
X5.1156Y-3.9344
X5.9278Y-2.9553
X5.9278Y-3.1864
X6.1589Y-2.9553
X6.1589Y-3.1864
X6.3744Y-4.0444
X6.3744Y-4.2756
X6.6056Y-4.0444
X6.6056Y-4.2756
X7.3544Y-3.8544
X7.3544Y-4.0856
X7.5856Y-3.8544
X7.5856Y-4.0856
X8.6443Y-4.5892
X8.6443Y-4.8203
X8.7427Y-3.3293
X8.7427Y-3.5604
X8.8754Y-4.5892
X8.8754Y-4.8203
X8.9738Y-3.3293
X8.9738Y-3.5604
X9.4907Y-4.0577
X9.4907Y-4.2888
X9.6285Y-2.9159
X9.6285Y-3.147
X9.7219Y-4.0577
X9.7219Y-4.2888
X9.8596Y-2.9159
X9.8596Y-3.147
X10.5537Y-3.7033
X10.5537Y-3.9344
X10.7848Y-3.7033
X10.7848Y-3.9344
X11.6167Y-2.9553
X11.6167Y-3.1864
X11.8478Y-2.9553
X11.8478Y-3.1864
X12.3254Y-3.7033
X12.3254Y-3.9344
X12.5565Y-3.7033
X12.5565Y-3.9344
X13.3884Y-2.9553
X13.3884Y-3.1864
X13.6195Y-2.9553
X13.6195Y-3.1864
X14.097Y-3.7033
X14.097Y-3.9344
X14.3281Y-3.7033
X14.3281Y-3.9344
X15.16Y-2.9553
X15.16Y-3.1864
X15.3911Y-2.9553
X15.3911Y-3.1864
T13
X6.9163Y-2.98
X7.31Y-2.98
X17.2096Y-2.7559
X17.6033Y-2.7559
M30
