%TF.GenerationSoftware,KiCad,Pcbnew,9.0.3*%
%TF.CreationDate,2025-10-05T23:01:11+02:00*%
%TF.ProjectId,Cur_Emul,4375725f-456d-4756-9c2e-6b696361645f,rev?*%
%TF.SameCoordinates,Original*%
%TF.FileFunction,Soldermask,Bot*%
%TF.FilePolarity,Negative*%
%FSLAX46Y46*%
G04 Gerber Fmt 4.6, Leading zero omitted, Abs format (unit mm)*
G04 Created by KiCad (PCBNEW 9.0.3) date 2025-10-05 23:01:11*
%MOMM*%
%LPD*%
G01*
G04 APERTURE LIST*
G04 Aperture macros list*
%AMRoundRect*
0 Rectangle with rounded corners*
0 $1 Rounding radius*
0 $2 $3 $4 $5 $6 $7 $8 $9 X,Y pos of 4 corners*
0 Add a 4 corners polygon primitive as box body*
4,1,4,$2,$3,$4,$5,$6,$7,$8,$9,$2,$3,0*
0 Add four circle primitives for the rounded corners*
1,1,$1+$1,$2,$3*
1,1,$1+$1,$4,$5*
1,1,$1+$1,$6,$7*
1,1,$1+$1,$8,$9*
0 Add four rect primitives between the rounded corners*
20,1,$1+$1,$2,$3,$4,$5,0*
20,1,$1+$1,$4,$5,$6,$7,0*
20,1,$1+$1,$6,$7,$8,$9,0*
20,1,$1+$1,$8,$9,$2,$3,0*%
G04 Aperture macros list end*
%ADD10C,1.000000*%
%ADD11C,1.600000*%
%ADD12R,1.700000X1.700000*%
%ADD13RoundRect,0.250000X-1.550000X0.750000X-1.550000X-0.750000X1.550000X-0.750000X1.550000X0.750000X0*%
%ADD14O,3.600000X2.000000*%
%ADD15RoundRect,0.250000X1.350000X-1.350000X1.350000X1.350000X-1.350000X1.350000X-1.350000X-1.350000X0*%
%ADD16C,3.200000*%
%ADD17C,3.600000*%
%ADD18R,2.500000X4.500000*%
%ADD19O,2.500000X4.500000*%
%ADD20C,2.000000*%
%ADD21RoundRect,0.250000X-0.750000X-1.550000X0.750000X-1.550000X0.750000X1.550000X-0.750000X1.550000X0*%
%ADD22O,2.000000X3.600000*%
%ADD23RoundRect,0.250000X0.550000X0.550000X-0.550000X0.550000X-0.550000X-0.550000X0.550000X-0.550000X0*%
%ADD24RoundRect,0.249999X-0.850001X-0.850001X0.850001X-0.850001X0.850001X0.850001X-0.850001X0.850001X0*%
%ADD25C,2.200000*%
%ADD26C,3.500000*%
%ADD27R,1.905000X2.000000*%
%ADD28O,1.905000X2.000000*%
%ADD29RoundRect,0.250000X1.350000X1.350000X-1.350000X1.350000X-1.350000X-1.350000X1.350000X-1.350000X0*%
%ADD30RoundRect,0.250000X1.550000X-0.750000X1.550000X0.750000X-1.550000X0.750000X-1.550000X-0.750000X0*%
%ADD31C,2.400000*%
%ADD32RoundRect,0.250000X-0.550000X0.550000X-0.550000X-0.550000X0.550000X-0.550000X0.550000X0.550000X0*%
%ADD33RoundRect,0.250000X0.350000X0.625000X-0.350000X0.625000X-0.350000X-0.625000X0.350000X-0.625000X0*%
%ADD34O,1.200000X1.750000*%
%ADD35RoundRect,0.250000X-0.350000X-0.625000X0.350000X-0.625000X0.350000X0.625000X-0.350000X0.625000X0*%
%ADD36R,2.300000X2.300000*%
%ADD37C,2.300000*%
%ADD38RoundRect,0.250000X0.750000X1.550000X-0.750000X1.550000X-0.750000X-1.550000X0.750000X-1.550000X0*%
%ADD39RoundRect,0.250000X-0.600000X-0.725000X0.600000X-0.725000X0.600000X0.725000X-0.600000X0.725000X0*%
%ADD40O,1.700000X1.950000*%
%ADD41RoundRect,0.250000X1.750000X1.750000X-1.750000X1.750000X-1.750000X-1.750000X1.750000X-1.750000X0*%
%ADD42C,4.000000*%
%TA.AperFunction,Profile*%
%ADD43C,0.050000*%
%TD*%
G04 APERTURE END LIST*
D10*
X295000000Y-73500000D02*
X295000000Y-66500000D01*
X340250000Y-69250000D02*
X334750000Y-63250000D01*
X385250000Y-74375000D02*
X385250000Y-68125000D01*
X340250000Y-73750000D02*
X340250000Y-69250000D01*
X106000000Y-73500000D02*
X106000000Y-69500000D01*
X385250000Y-68000000D02*
X379500000Y-63250000D01*
X61000000Y-73500000D02*
X61000000Y-69750000D01*
X150750000Y-66750000D02*
X145750000Y-62750000D01*
X150750000Y-73500000D02*
X150750000Y-66750000D01*
X61000000Y-69750000D02*
X55000000Y-63750000D01*
X295000000Y-66500000D02*
X289750000Y-62750000D01*
X106000000Y-69500000D02*
X100500000Y-63750000D01*
D11*
%TO.C,R204*%
X645250000Y-173020000D03*
X652870000Y-173020000D03*
%TD*%
D12*
%TO.C,J60*%
X524750000Y-123500000D03*
%TD*%
D13*
%TO.C,J80*%
X439377500Y-186050000D03*
D14*
X439377500Y-193550000D03*
%TD*%
D15*
%TO.C,D26*%
X24700000Y-109095000D03*
D16*
X24700000Y-93855000D03*
%TD*%
D13*
%TO.C,J31*%
X27750000Y-147000000D03*
D14*
X27750000Y-154500000D03*
%TD*%
D11*
%TO.C,R231*%
X645277500Y-203770000D03*
X652897500Y-203770000D03*
%TD*%
D16*
%TO.C,J22*%
X244565000Y-79935000D03*
X250435000Y-79935000D03*
X244565000Y-74065000D03*
X250435000Y-74065000D03*
%TD*%
D17*
%TO.C,M4*%
X283450000Y-42140000D03*
D18*
X278000000Y-62000000D03*
D19*
X283450000Y-62000000D03*
X288900000Y-62000000D03*
%TD*%
D20*
%TO.C,TP37*%
X49250000Y-136500000D03*
%TD*%
D12*
%TO.C,J65*%
X493000000Y-123500000D03*
%TD*%
D20*
%TO.C,TP34*%
X439125000Y-174730000D03*
%TD*%
D11*
%TO.C,R178*%
X634500000Y-106500000D03*
X642120000Y-106500000D03*
%TD*%
D20*
%TO.C,TP63*%
X533200000Y-31300000D03*
%TD*%
D21*
%TO.C,J73*%
X51250000Y-171422500D03*
D22*
X58750000Y-171422500D03*
%TD*%
D23*
%TO.C,U22*%
X630600000Y-169500000D03*
D11*
X630600000Y-166960000D03*
X622980000Y-166960000D03*
X622980000Y-169500000D03*
%TD*%
%TO.C,R197*%
X596250000Y-47440000D03*
X596250000Y-55060000D03*
%TD*%
%TO.C,R228*%
X635000000Y-211270000D03*
X642620000Y-211270000D03*
%TD*%
D21*
%TO.C,J68*%
X552550000Y-46422500D03*
D22*
X560050000Y-46422500D03*
%TD*%
D11*
%TO.C,R17*%
X304785000Y-134250000D03*
X297165000Y-134250000D03*
%TD*%
D12*
%TO.C,J40*%
X510500000Y-59000000D03*
%TD*%
D20*
%TO.C,TP66*%
X622400000Y-156100000D03*
%TD*%
D11*
%TO.C,R201*%
X625500000Y-58690000D03*
X625500000Y-66310000D03*
%TD*%
%TO.C,R13*%
X201503500Y-139653000D03*
X193883500Y-139653000D03*
%TD*%
D20*
%TO.C,TP5*%
X180368500Y-159073000D03*
%TD*%
D12*
%TO.C,J42*%
X498500000Y-59000000D03*
%TD*%
D20*
%TO.C,TP42*%
X440875000Y-169980000D03*
%TD*%
D11*
%TO.C,R192*%
X596250000Y-38440000D03*
X588630000Y-38440000D03*
%TD*%
D21*
%TO.C,J70*%
X456550000Y-52422500D03*
D22*
X464050000Y-52422500D03*
%TD*%
D20*
%TO.C,TP33*%
X465375000Y-160730000D03*
%TD*%
D11*
%TO.C,R221*%
X645250000Y-133520000D03*
X652870000Y-133520000D03*
%TD*%
D13*
%TO.C,J51*%
X436947500Y-83750000D03*
D14*
X436947500Y-91250000D03*
%TD*%
D20*
%TO.C,TP13*%
X191000000Y-136000000D03*
%TD*%
D11*
%TO.C,R169*%
X523500000Y-48810000D03*
X523500000Y-41190000D03*
%TD*%
D12*
%TO.C,J64*%
X469750000Y-123500000D03*
%TD*%
D20*
%TO.C,TP67*%
X485000000Y-30700000D03*
%TD*%
D11*
%TO.C,R222*%
X634500000Y-126020000D03*
X642120000Y-126020000D03*
%TD*%
%TO.C,R183*%
X645500000Y-191750000D03*
X653120000Y-191750000D03*
%TD*%
D12*
%TO.C,J59*%
X599000000Y-86750000D03*
%TD*%
D24*
%TO.C,D1*%
X436730000Y-136680000D03*
D25*
X446890000Y-136680000D03*
%TD*%
D11*
%TO.C,R210*%
X534590000Y-47300000D03*
X542210000Y-47300000D03*
%TD*%
%TO.C,R196*%
X619810000Y-66250000D03*
X612190000Y-66250000D03*
%TD*%
D26*
%TO.C,M7*%
X490310000Y-131000000D03*
D27*
X487770000Y-147660000D03*
D28*
X490310000Y-147660000D03*
X492850000Y-147660000D03*
%TD*%
D17*
%TO.C,M1*%
X49450000Y-42140000D03*
D18*
X44000000Y-62000000D03*
D19*
X49450000Y-62000000D03*
X54900000Y-62000000D03*
%TD*%
D16*
%TO.C,J15*%
X363935000Y-99935000D03*
X363935000Y-94065000D03*
X358065000Y-99935000D03*
X358065000Y-94065000D03*
%TD*%
D12*
%TO.C,J41*%
X504000000Y-67500000D03*
%TD*%
D29*
%TO.C,D25*%
X48020000Y-147500000D03*
D16*
X32780000Y-147500000D03*
%TD*%
D12*
%TO.C,J67*%
X464750000Y-86250000D03*
%TD*%
D11*
%TO.C,R211*%
X652060000Y-47440000D03*
X652060000Y-55060000D03*
%TD*%
D20*
%TO.C,TP58*%
X558037500Y-161085000D03*
%TD*%
D17*
%TO.C,M2*%
X94450000Y-42140000D03*
D18*
X89000000Y-62000000D03*
D19*
X94450000Y-62000000D03*
X99900000Y-62000000D03*
%TD*%
D15*
%TO.C,D24*%
X432260000Y-134840000D03*
D16*
X432260000Y-119600000D03*
%TD*%
D20*
%TO.C,TP76*%
X622000000Y-212800000D03*
%TD*%
D30*
%TO.C,J38*%
X658222500Y-192000000D03*
D14*
X658222500Y-184500000D03*
%TD*%
D20*
%TO.C,TP18*%
X71390000Y-120901000D03*
%TD*%
D11*
%TO.C,R206*%
X625620000Y-38500000D03*
X618000000Y-38500000D03*
%TD*%
D20*
%TO.C,TP32*%
X463787500Y-176635000D03*
%TD*%
%TO.C,TP51*%
X515035000Y-203385000D03*
%TD*%
%TO.C,TP45*%
X462265000Y-186115000D03*
%TD*%
D30*
%TO.C,J27*%
X657972500Y-173250000D03*
D14*
X657972500Y-165750000D03*
%TD*%
D20*
%TO.C,TP41*%
X485487500Y-184715000D03*
%TD*%
D16*
%TO.C,J14*%
X345935000Y-80935000D03*
X345935000Y-75065000D03*
X340065000Y-80935000D03*
X340065000Y-75065000D03*
%TD*%
D11*
%TO.C,R226*%
X645027500Y-165520000D03*
X652647500Y-165520000D03*
%TD*%
%TO.C,R212*%
X545310000Y-40300000D03*
X537690000Y-40300000D03*
%TD*%
%TO.C,R188*%
X645250000Y-153500000D03*
X652870000Y-153500000D03*
%TD*%
D20*
%TO.C,TP56*%
X530400000Y-159200000D03*
%TD*%
%TO.C,TP14*%
X311460000Y-131280000D03*
%TD*%
%TO.C,TP48*%
X482100000Y-159200000D03*
%TD*%
D11*
%TO.C,R190*%
X645000000Y-146000000D03*
X652620000Y-146000000D03*
%TD*%
%TO.C,R225*%
X634527500Y-165520000D03*
X642147500Y-165520000D03*
%TD*%
%TO.C,R200*%
X616087500Y-175910000D03*
X616087500Y-168290000D03*
%TD*%
D20*
%TO.C,TP1*%
X81700000Y-129300000D03*
%TD*%
%TO.C,TP52*%
X538515000Y-191365000D03*
%TD*%
%TO.C,TP69*%
X450100000Y-93500000D03*
%TD*%
%TO.C,TP77*%
X446750000Y-182750000D03*
%TD*%
%TO.C,TP75*%
X622500000Y-174300000D03*
%TD*%
%TO.C,TP71*%
X630060000Y-43250000D03*
%TD*%
D23*
%TO.C,U21*%
X630605000Y-131675000D03*
D11*
X630605000Y-129135000D03*
X622985000Y-129135000D03*
X622985000Y-131675000D03*
%TD*%
D17*
%TO.C,M5*%
X328450000Y-42140000D03*
D18*
X323000000Y-62000000D03*
D19*
X328450000Y-62000000D03*
X333900000Y-62000000D03*
%TD*%
D11*
%TO.C,R172*%
X499200000Y-41000000D03*
X491580000Y-41000000D03*
%TD*%
D12*
%TO.C,J56*%
X583500000Y-123500000D03*
%TD*%
D11*
%TO.C,R208*%
X571100000Y-46610000D03*
X571100000Y-38990000D03*
%TD*%
D20*
%TO.C,TP28*%
X244500000Y-143000000D03*
%TD*%
D17*
%TO.C,M3*%
X139450000Y-42140000D03*
D18*
X134000000Y-62000000D03*
D19*
X139450000Y-62000000D03*
X144900000Y-62000000D03*
%TD*%
D11*
%TO.C,R1*%
X83530000Y-123210000D03*
X75910000Y-123210000D03*
%TD*%
%TO.C,R189*%
X634500000Y-146000000D03*
X642120000Y-146000000D03*
%TD*%
D26*
%TO.C,M10*%
X545000000Y-130810000D03*
D27*
X542460000Y-147470000D03*
D28*
X545000000Y-147470000D03*
X547540000Y-147470000D03*
%TD*%
D20*
%TO.C,TP2*%
X64410000Y-119450000D03*
%TD*%
D31*
%TO.C,C10*%
X204216000Y-66220000D03*
X204216000Y-88720000D03*
%TD*%
D16*
%TO.C,J10*%
X156435000Y-80935000D03*
X156435000Y-75065000D03*
X150565000Y-80935000D03*
X150565000Y-75065000D03*
%TD*%
%TO.C,J13*%
X318935000Y-99935000D03*
X318935000Y-94065000D03*
X313065000Y-99935000D03*
X313065000Y-94065000D03*
%TD*%
D20*
%TO.C,TP38*%
X51500000Y-116500000D03*
%TD*%
D32*
%TO.C,U14*%
X459180000Y-36985000D03*
D11*
X456640000Y-36985000D03*
X454100000Y-36985000D03*
X454100000Y-44605000D03*
X456640000Y-44605000D03*
X459180000Y-44605000D03*
%TD*%
D12*
%TO.C,J62*%
X519750000Y-86500000D03*
%TD*%
D23*
%TO.C,U23*%
X630705000Y-208575000D03*
D11*
X630705000Y-206035000D03*
X623085000Y-206035000D03*
X623085000Y-208575000D03*
%TD*%
D16*
%TO.C,J9*%
X129935000Y-99935000D03*
X129935000Y-94065000D03*
X124065000Y-99935000D03*
X124065000Y-94065000D03*
%TD*%
D11*
%TO.C,R203*%
X625620000Y-47440000D03*
X625620000Y-55060000D03*
%TD*%
D20*
%TO.C,TP3*%
X80070000Y-119700000D03*
%TD*%
%TO.C,TP35*%
X498780000Y-199800000D03*
%TD*%
D16*
%TO.C,J2*%
X219565000Y-116565000D03*
X219565000Y-122435000D03*
X225435000Y-116565000D03*
X225435000Y-122435000D03*
%TD*%
D20*
%TO.C,TP68*%
X561500000Y-146500000D03*
%TD*%
D11*
%TO.C,R167*%
X473900000Y-52410000D03*
X473900000Y-44790000D03*
%TD*%
D20*
%TO.C,TP10*%
X292900000Y-156100000D03*
%TD*%
D16*
%TO.C,J4*%
X161911000Y-102729000D03*
X161911000Y-108599000D03*
X167781000Y-102729000D03*
X167781000Y-108599000D03*
%TD*%
D20*
%TO.C,TP43*%
X459765000Y-198615000D03*
%TD*%
%TO.C,TP61*%
X462300000Y-30100000D03*
%TD*%
D12*
%TO.C,J61*%
X548000000Y-123500000D03*
%TD*%
D20*
%TO.C,TP17*%
X539390000Y-157070000D03*
%TD*%
%TO.C,TP72*%
X656500000Y-43250000D03*
%TD*%
D33*
%TO.C,J36*%
X595500000Y-210500000D03*
D34*
X593500000Y-210500000D03*
X591500000Y-210500000D03*
X589500000Y-210500000D03*
X587500000Y-210500000D03*
X585500000Y-210500000D03*
X583500000Y-210500000D03*
X581500000Y-210500000D03*
%TD*%
D11*
%TO.C,R181*%
X615600000Y-191110000D03*
X615600000Y-183490000D03*
%TD*%
%TO.C,R182*%
X634750000Y-191750000D03*
X642370000Y-191750000D03*
%TD*%
%TO.C,R179*%
X645027500Y-106520000D03*
X652647500Y-106520000D03*
%TD*%
D23*
%TO.C,U19*%
X630705000Y-189475000D03*
D11*
X630705000Y-186935000D03*
X623085000Y-186935000D03*
X623085000Y-189475000D03*
%TD*%
D21*
%TO.C,J72*%
X35100000Y-171400000D03*
D22*
X42600000Y-171400000D03*
%TD*%
D20*
%TO.C,TP11*%
X300775000Y-130500000D03*
%TD*%
D35*
%TO.C,J35*%
X513500000Y-25000000D03*
D34*
X515500000Y-25000000D03*
X517500000Y-25000000D03*
X519500000Y-25000000D03*
%TD*%
D11*
%TO.C,C50*%
X594940000Y-34440000D03*
X589940000Y-34440000D03*
%TD*%
%TO.C,R207*%
X647810000Y-66250000D03*
X640190000Y-66250000D03*
%TD*%
D16*
%TO.C,J16*%
X390935000Y-80935000D03*
X390935000Y-75065000D03*
X385065000Y-80935000D03*
X385065000Y-75065000D03*
%TD*%
D20*
%TO.C,TP55*%
X531787500Y-171585000D03*
%TD*%
D35*
%TO.C,J34*%
X615000000Y-25500000D03*
D34*
X617000000Y-25500000D03*
X619000000Y-25500000D03*
X621000000Y-25500000D03*
X623000000Y-25500000D03*
X625000000Y-25500000D03*
%TD*%
D13*
%TO.C,J81*%
X439377500Y-202150000D03*
D14*
X439377500Y-209650000D03*
%TD*%
D36*
%TO.C,T1*%
X465500000Y-95500000D03*
D37*
X485500000Y-95500000D03*
X485500000Y-115500000D03*
X480500000Y-115500000D03*
X470500000Y-115500000D03*
X465500000Y-115500000D03*
%TD*%
D38*
%TO.C,J29*%
X534440000Y-84087500D03*
D22*
X526940000Y-84087500D03*
%TD*%
D30*
%TO.C,J39*%
X657972500Y-153750000D03*
D14*
X657972500Y-146250000D03*
%TD*%
D20*
%TO.C,TP64*%
X622600000Y-194000000D03*
%TD*%
%TO.C,TP31*%
X439787500Y-159135000D03*
%TD*%
%TO.C,TP74*%
X622300000Y-136500000D03*
%TD*%
D11*
%TO.C,R202*%
X634750000Y-173020000D03*
X642370000Y-173020000D03*
%TD*%
D20*
%TO.C,TP15*%
X107020000Y-149080000D03*
%TD*%
D11*
%TO.C,R5*%
X58627840Y-124987000D03*
X66247840Y-124987000D03*
%TD*%
D30*
%TO.C,J53*%
X392722500Y-102750000D03*
D14*
X392722500Y-95250000D03*
%TD*%
D20*
%TO.C,TP20*%
X67250000Y-166250000D03*
%TD*%
D31*
%TO.C,R158*%
X507900000Y-109650000D03*
X507900000Y-122350000D03*
%TD*%
D20*
%TO.C,TP6*%
X180168500Y-135673000D03*
%TD*%
D11*
%TO.C,R229*%
X645500000Y-211270000D03*
X653120000Y-211270000D03*
%TD*%
%TO.C,R195*%
X449600000Y-44800000D03*
X441980000Y-44800000D03*
%TD*%
D33*
%TO.C,J20*%
X252250000Y-178500000D03*
D34*
X250250000Y-178500000D03*
X248250000Y-178500000D03*
X246250000Y-178500000D03*
%TD*%
D16*
%TO.C,J7*%
X79065000Y-94065000D03*
X79065000Y-99935000D03*
X84935000Y-94065000D03*
X84935000Y-99935000D03*
%TD*%
D39*
%TO.C,J17*%
X478000000Y-123500000D03*
D40*
X480500000Y-123500000D03*
X483000000Y-123500000D03*
X485500000Y-123500000D03*
%TD*%
D11*
%TO.C,R219*%
X616087500Y-129810000D03*
X616087500Y-122190000D03*
%TD*%
%TO.C,R205*%
X625620000Y-43500000D03*
X618000000Y-43500000D03*
%TD*%
D39*
%TO.C,J26*%
X590000000Y-123500000D03*
D40*
X592500000Y-123500000D03*
X595000000Y-123500000D03*
X597500000Y-123500000D03*
%TD*%
D20*
%TO.C,TP57*%
X556287500Y-176835000D03*
%TD*%
D30*
%TO.C,J32*%
X658222500Y-211500000D03*
D14*
X658222500Y-204000000D03*
%TD*%
D11*
%TO.C,R177*%
X645250000Y-114020000D03*
X652870000Y-114020000D03*
%TD*%
D20*
%TO.C,TP27*%
X221942000Y-167784000D03*
%TD*%
D26*
%TO.C,M12*%
X602500000Y-130810000D03*
D27*
X599960000Y-147470000D03*
D28*
X602500000Y-147470000D03*
X605040000Y-147470000D03*
%TD*%
D27*
%TO.C,U15*%
X436420000Y-147500000D03*
D28*
X438960000Y-147500000D03*
X441500000Y-147500000D03*
%TD*%
D31*
%TO.C,R44*%
X447600000Y-109600000D03*
X447600000Y-122300000D03*
%TD*%
D20*
%TO.C,TP70*%
X600690000Y-43190000D03*
%TD*%
%TO.C,TP59*%
X54225000Y-152350000D03*
%TD*%
D11*
%TO.C,R220*%
X634750000Y-133520000D03*
X642370000Y-133520000D03*
%TD*%
%TO.C,R185*%
X645250000Y-184250000D03*
X652870000Y-184250000D03*
%TD*%
D23*
%TO.C,U20*%
X630805000Y-150075000D03*
D11*
X630805000Y-147535000D03*
X623185000Y-147535000D03*
X623185000Y-150075000D03*
%TD*%
D20*
%TO.C,TP8*%
X200230000Y-144010000D03*
%TD*%
D16*
%TO.C,J8*%
X106065000Y-75065000D03*
X106065000Y-80935000D03*
X111935000Y-75065000D03*
X111935000Y-80935000D03*
%TD*%
D20*
%TO.C,TP7*%
X197868500Y-135673000D03*
%TD*%
D41*
%TO.C,C9*%
X185674000Y-75692000D03*
D42*
X175674000Y-75692000D03*
%TD*%
D20*
%TO.C,TP12*%
X318425000Y-130975000D03*
%TD*%
D21*
%TO.C,J69*%
X507150000Y-48622500D03*
D22*
X514650000Y-48622500D03*
%TD*%
D36*
%TO.C,T3*%
X520000000Y-95500000D03*
D37*
X540000000Y-95500000D03*
X540000000Y-115500000D03*
X535000000Y-115500000D03*
X525000000Y-115500000D03*
X520000000Y-115500000D03*
%TD*%
D11*
%TO.C,R180*%
X616100000Y-117210000D03*
X616100000Y-109590000D03*
%TD*%
D30*
%TO.C,J37*%
X657972500Y-114250000D03*
D14*
X657972500Y-106750000D03*
%TD*%
D11*
%TO.C,R198*%
X596190000Y-58630000D03*
X596190000Y-66250000D03*
%TD*%
D41*
%TO.C,C48*%
X447170000Y-66510000D03*
D42*
X437170000Y-66510000D03*
%TD*%
D11*
%TO.C,R199*%
X591560000Y-66250000D03*
X583940000Y-66250000D03*
%TD*%
D26*
%TO.C,M9*%
X521190000Y-130880000D03*
D27*
X518650000Y-147540000D03*
D28*
X521190000Y-147540000D03*
X523730000Y-147540000D03*
%TD*%
D23*
%TO.C,U17*%
X630605000Y-111075000D03*
D11*
X630605000Y-108535000D03*
X622985000Y-108535000D03*
X622985000Y-111075000D03*
%TD*%
%TO.C,R173*%
X463890000Y-35000000D03*
X471510000Y-35000000D03*
%TD*%
%TO.C,R168*%
X440390000Y-50600000D03*
X448010000Y-50600000D03*
%TD*%
D30*
%TO.C,J19*%
X657972500Y-133750000D03*
D14*
X657972500Y-126250000D03*
%TD*%
D33*
%TO.C,J25*%
X117800000Y-178350000D03*
D34*
X115800000Y-178350000D03*
X113800000Y-178350000D03*
X111800000Y-178350000D03*
X109800000Y-178350000D03*
X107800000Y-178350000D03*
X105800000Y-178350000D03*
X103800000Y-178350000D03*
%TD*%
D11*
%TO.C,R176*%
X634500000Y-114000000D03*
X642120000Y-114000000D03*
%TD*%
D12*
%TO.C,J48*%
X559500000Y-59000000D03*
%TD*%
D20*
%TO.C,TP78*%
X622600000Y-201700000D03*
%TD*%
D11*
%TO.C,R186*%
X616400000Y-157710000D03*
X616400000Y-150090000D03*
%TD*%
D12*
%TO.C,J45*%
X534500000Y-59000000D03*
%TD*%
D20*
%TO.C,TP50*%
X518700000Y-158800000D03*
%TD*%
%TO.C,TP65*%
X622400000Y-116000000D03*
%TD*%
D39*
%TO.C,J28*%
X532500000Y-123500000D03*
D40*
X535000000Y-123500000D03*
X537500000Y-123500000D03*
X540000000Y-123500000D03*
%TD*%
D11*
%TO.C,R174*%
X514080000Y-32800000D03*
X521700000Y-32800000D03*
%TD*%
D20*
%TO.C,TP49*%
X508950000Y-176830000D03*
%TD*%
D31*
%TO.C,R160*%
X563900000Y-110350000D03*
X563900000Y-123050000D03*
%TD*%
D13*
%TO.C,J52*%
X436800000Y-100420000D03*
D14*
X436800000Y-107920000D03*
%TD*%
D33*
%TO.C,J24*%
X146200000Y-178350000D03*
D34*
X144200000Y-178350000D03*
X142200000Y-178350000D03*
X140200000Y-178350000D03*
X138200000Y-178350000D03*
X136200000Y-178350000D03*
X134200000Y-178350000D03*
X132200000Y-178350000D03*
%TD*%
D12*
%TO.C,J63*%
X541750000Y-86750000D03*
%TD*%
D17*
%TO.C,M6*%
X373450000Y-42140000D03*
D18*
X368000000Y-62000000D03*
D19*
X373450000Y-62000000D03*
X378900000Y-62000000D03*
%TD*%
D16*
%TO.C,J5*%
X34065000Y-94065000D03*
X34065000Y-99935000D03*
X39935000Y-94065000D03*
X39935000Y-99935000D03*
%TD*%
D11*
%TO.C,R175*%
X559300000Y-31100000D03*
X566920000Y-31100000D03*
%TD*%
%TO.C,R230*%
X634777500Y-203770000D03*
X642397500Y-203770000D03*
%TD*%
D38*
%TO.C,J30*%
X591940000Y-84087500D03*
D22*
X584440000Y-84087500D03*
%TD*%
D11*
%TO.C,C52*%
X650750000Y-34500000D03*
X645750000Y-34500000D03*
%TD*%
D16*
%TO.C,J11*%
X273935000Y-99935000D03*
X273935000Y-94065000D03*
X268065000Y-99935000D03*
X268065000Y-94065000D03*
%TD*%
D32*
%TO.C,U16*%
X509400000Y-33325000D03*
D11*
X506860000Y-33325000D03*
X504320000Y-33325000D03*
X504320000Y-40945000D03*
X506860000Y-40945000D03*
X509400000Y-40945000D03*
%TD*%
D16*
%TO.C,J6*%
X61065000Y-80935000D03*
X66935000Y-80935000D03*
X61065000Y-75065000D03*
X66935000Y-75065000D03*
%TD*%
%TO.C,J3*%
X186803000Y-97903000D03*
X186803000Y-103773000D03*
X192673000Y-97903000D03*
X192673000Y-103773000D03*
%TD*%
D12*
%TO.C,J46*%
X546500000Y-59000000D03*
%TD*%
D33*
%TO.C,J33*%
X517037500Y-210635000D03*
D34*
X515037500Y-210635000D03*
X513037500Y-210635000D03*
X511037500Y-210635000D03*
X509037500Y-210635000D03*
X507037500Y-210635000D03*
X505037500Y-210635000D03*
X503037500Y-210635000D03*
%TD*%
D11*
%TO.C,R187*%
X634500000Y-153500000D03*
X642120000Y-153500000D03*
%TD*%
%TO.C,C51*%
X624310000Y-34500000D03*
X619310000Y-34500000D03*
%TD*%
%TO.C,R227*%
X615700000Y-209110000D03*
X615700000Y-201490000D03*
%TD*%
D20*
%TO.C,TP4*%
X61980000Y-145150000D03*
%TD*%
%TO.C,TP47*%
X483700000Y-173885000D03*
%TD*%
D26*
%TO.C,M8*%
X466500000Y-131070000D03*
D27*
X463960000Y-147730000D03*
D28*
X466500000Y-147730000D03*
X469040000Y-147730000D03*
%TD*%
D11*
%TO.C,R214*%
X652060000Y-38500000D03*
X644440000Y-38500000D03*
%TD*%
D12*
%TO.C,J66*%
X486750000Y-86250000D03*
%TD*%
D11*
%TO.C,R9*%
X184203500Y-139653000D03*
X176583500Y-139653000D03*
%TD*%
D20*
%TO.C,TP19*%
X262940000Y-139450000D03*
%TD*%
D13*
%TO.C,J55*%
X27527500Y-79000000D03*
D14*
X27527500Y-86500000D03*
%TD*%
D16*
%TO.C,J21*%
X222065000Y-90435000D03*
X227935000Y-90435000D03*
X222065000Y-84565000D03*
X227935000Y-84565000D03*
%TD*%
D11*
%TO.C,R209*%
X652000000Y-58690000D03*
X652000000Y-66310000D03*
%TD*%
D20*
%TO.C,TP16*%
X148007500Y-149815000D03*
%TD*%
D30*
%TO.C,J54*%
X392722500Y-121750000D03*
D14*
X392722500Y-114250000D03*
%TD*%
D12*
%TO.C,J47*%
X553000000Y-67500000D03*
%TD*%
D26*
%TO.C,M11*%
X578690000Y-130880000D03*
D27*
X576150000Y-147540000D03*
D28*
X578690000Y-147540000D03*
X581230000Y-147540000D03*
%TD*%
D20*
%TO.C,TP29*%
X259740000Y-160050000D03*
%TD*%
D16*
%TO.C,J1*%
X241065000Y-103065000D03*
X241065000Y-108935000D03*
X246935000Y-103065000D03*
X246935000Y-108935000D03*
%TD*%
D33*
%TO.C,J23*%
X220250000Y-178500000D03*
D34*
X218250000Y-178500000D03*
X216250000Y-178500000D03*
X214250000Y-178500000D03*
X212250000Y-178500000D03*
X210250000Y-178500000D03*
%TD*%
D20*
%TO.C,TP44*%
X463487500Y-209715000D03*
%TD*%
%TO.C,TP46*%
X473975000Y-208190000D03*
%TD*%
D38*
%TO.C,J18*%
X479500000Y-83777500D03*
D22*
X472000000Y-83777500D03*
%TD*%
D20*
%TO.C,TP9*%
X319000000Y-138500000D03*
%TD*%
%TO.C,TP62*%
X496500000Y-30300000D03*
%TD*%
D31*
%TO.C,C49*%
X27500000Y-114250000D03*
X27500000Y-136750000D03*
%TD*%
D32*
%TO.C,U18*%
X554630000Y-31125000D03*
D11*
X552090000Y-31125000D03*
X549550000Y-31125000D03*
X549550000Y-38745000D03*
X552090000Y-38745000D03*
X554630000Y-38745000D03*
%TD*%
D31*
%TO.C,R68*%
X178360000Y-50000000D03*
X244400000Y-50000000D03*
%TD*%
D11*
%TO.C,R223*%
X645000000Y-126020000D03*
X652620000Y-126020000D03*
%TD*%
D31*
%TO.C,R48*%
X558200000Y-110150000D03*
X558200000Y-122850000D03*
%TD*%
D11*
%TO.C,R170*%
X488890000Y-47200000D03*
X496510000Y-47200000D03*
%TD*%
D36*
%TO.C,T2*%
X577500000Y-95500000D03*
D37*
X597500000Y-95500000D03*
X597500000Y-115500000D03*
X592500000Y-115500000D03*
X582500000Y-115500000D03*
X577500000Y-115500000D03*
%TD*%
D12*
%TO.C,J43*%
X521500000Y-59000000D03*
%TD*%
%TO.C,J57*%
X605000000Y-123500000D03*
%TD*%
D20*
%TO.C,TP60*%
X506700000Y-146650000D03*
%TD*%
%TO.C,TP30*%
X266740000Y-160750000D03*
%TD*%
D31*
%TO.C,R47*%
X454200000Y-109700000D03*
X454200000Y-122400000D03*
%TD*%
D16*
%TO.C,J12*%
X300935000Y-80935000D03*
X300935000Y-75065000D03*
X295065000Y-80935000D03*
X295065000Y-75065000D03*
%TD*%
D11*
%TO.C,R191*%
X596250000Y-43440000D03*
X588630000Y-43440000D03*
%TD*%
D20*
%TO.C,TP73*%
X46100000Y-139500000D03*
%TD*%
D11*
%TO.C,R21*%
X322085000Y-134900000D03*
X314465000Y-134900000D03*
%TD*%
D12*
%TO.C,J58*%
X576500000Y-86750000D03*
%TD*%
D20*
%TO.C,TP36*%
X496360000Y-208240000D03*
%TD*%
D11*
%TO.C,R213*%
X652060000Y-43500000D03*
X644440000Y-43500000D03*
%TD*%
D20*
%TO.C,TP53*%
X531900000Y-204500000D03*
%TD*%
D31*
%TO.C,R159*%
X501300000Y-109550000D03*
X501300000Y-122250000D03*
%TD*%
D12*
%TO.C,J44*%
X528500000Y-67500000D03*
%TD*%
D11*
%TO.C,R184*%
X634750000Y-184250000D03*
X642370000Y-184250000D03*
%TD*%
D20*
%TO.C,TP54*%
X536512500Y-185115000D03*
%TD*%
D43*
X499700000Y-99100000D02*
G75*
G02*
X495700000Y-99100000I-2000000J0D01*
G01*
X495700000Y-99100000D02*
G75*
G02*
X499700000Y-99100000I2000000J0D01*
G01*
X426560000Y-22500000D02*
X663760000Y-22500000D01*
X663760000Y-216550000D01*
X426560000Y-216550000D01*
X426560000Y-22500000D01*
X270500000Y-46500000D02*
G75*
G02*
X266500000Y-46500000I-2000000J0D01*
G01*
X266500000Y-46500000D02*
G75*
G02*
X270500000Y-46500000I2000000J0D01*
G01*
X304000000Y-47000000D02*
G75*
G02*
X300000000Y-47000000I-2000000J0D01*
G01*
X300000000Y-47000000D02*
G75*
G02*
X304000000Y-47000000I2000000J0D01*
G01*
X564800000Y-100000000D02*
G75*
G02*
X560800000Y-100000000I-2000000J0D01*
G01*
X560800000Y-100000000D02*
G75*
G02*
X564800000Y-100000000I2000000J0D01*
G01*
X459750000Y-85500000D02*
G75*
G02*
X455750000Y-85500000I-2000000J0D01*
G01*
X455750000Y-85500000D02*
G75*
G02*
X459750000Y-85500000I2000000J0D01*
G01*
X397500000Y-176000000D02*
G75*
G02*
X393500000Y-176000000I-2000000J0D01*
G01*
X393500000Y-176000000D02*
G75*
G02*
X397500000Y-176000000I2000000J0D01*
G01*
X25250000Y-172250000D02*
G75*
G02*
X21250000Y-172250000I-2000000J0D01*
G01*
X21250000Y-172250000D02*
G75*
G02*
X25250000Y-172250000I2000000J0D01*
G01*
X400000000Y-23000000D02*
G75*
G02*
X396000000Y-23000000I-2000000J0D01*
G01*
X396000000Y-23000000D02*
G75*
G02*
X400000000Y-23000000I2000000J0D01*
G01*
X657500000Y-28250000D02*
G75*
G02*
X653500000Y-28250000I-2000000J0D01*
G01*
X653500000Y-28250000D02*
G75*
G02*
X657500000Y-28250000I2000000J0D01*
G01*
X157250000Y-134750000D02*
G75*
G02*
X153250000Y-134750000I-2000000J0D01*
G01*
X153250000Y-134750000D02*
G75*
G02*
X157250000Y-134750000I2000000J0D01*
G01*
X349250000Y-47500000D02*
G75*
G02*
X345250000Y-47500000I-2000000J0D01*
G01*
X345250000Y-47500000D02*
G75*
G02*
X349250000Y-47500000I2000000J0D01*
G01*
X75750000Y-47000000D02*
G75*
G02*
X71750000Y-47000000I-2000000J0D01*
G01*
X71750000Y-47000000D02*
G75*
G02*
X75750000Y-47000000I2000000J0D01*
G01*
X280750000Y-134250000D02*
G75*
G02*
X276750000Y-134250000I-2000000J0D01*
G01*
X276750000Y-134250000D02*
G75*
G02*
X280750000Y-134250000I2000000J0D01*
G01*
X435500000Y-28750000D02*
G75*
G02*
X431500000Y-28750000I-2000000J0D01*
G01*
X431500000Y-28750000D02*
G75*
G02*
X435500000Y-28750000I2000000J0D01*
G01*
X451250000Y-212750000D02*
G75*
G02*
X447250000Y-212750000I-2000000J0D01*
G01*
X447250000Y-212750000D02*
G75*
G02*
X451250000Y-212750000I2000000J0D01*
G01*
X117500000Y-47000000D02*
G75*
G02*
X113500000Y-47000000I-2000000J0D01*
G01*
X113500000Y-47000000D02*
G75*
G02*
X117500000Y-47000000I2000000J0D01*
G01*
X19500000Y-17500000D02*
X403500000Y-17500000D01*
X403500000Y-183500000D01*
X19500000Y-183500000D01*
X19500000Y-17500000D01*
X607500000Y-202250000D02*
G75*
G02*
X603500000Y-202250000I-2000000J0D01*
G01*
X603500000Y-202250000D02*
G75*
G02*
X607500000Y-202250000I2000000J0D01*
G01*
X228250000Y-23000000D02*
G75*
G02*
X224250000Y-23000000I-2000000J0D01*
G01*
X224250000Y-23000000D02*
G75*
G02*
X228250000Y-23000000I2000000J0D01*
G01*
X655500000Y-85500000D02*
G75*
G02*
X651500000Y-85500000I-2000000J0D01*
G01*
X651500000Y-85500000D02*
G75*
G02*
X655500000Y-85500000I2000000J0D01*
G01*
X167000000Y-47000000D02*
G75*
G02*
X163000000Y-47000000I-2000000J0D01*
G01*
X163000000Y-47000000D02*
G75*
G02*
X167000000Y-47000000I2000000J0D01*
G01*
X27000000Y-23000000D02*
G75*
G02*
X23000000Y-23000000I-2000000J0D01*
G01*
X23000000Y-23000000D02*
G75*
G02*
X27000000Y-23000000I2000000J0D01*
G01*
X191500000Y-176000000D02*
G75*
G02*
X187500000Y-176000000I-2000000J0D01*
G01*
X187500000Y-176000000D02*
G75*
G02*
X191500000Y-176000000I2000000J0D01*
G01*
M02*
