M48
; DRILL file {KiCad 9.0.3} date 2025-10-05T23:05:54+0200
; FORMAT={-:-/ absolute / inch / decimal}
; #@! TF.CreationDate,2025-10-05T23:05:54+02:00
; #@! TF.GenerationSoftware,Kicad,Pcbnew,9.0.3
; #@! TF.FileFunction,Plated,1,2,PTH
FMAT,2
INCH
; #@! TA.AperFunction,Plated,PTH,ViaDrill
T1C0.0118
; #@! TA.AperFunction,Plated,PTH,ComponentDrill
T2C0.0295
; #@! TA.AperFunction,Plated,PTH,ComponentDrill
T3C0.0315
; #@! TA.AperFunction,Plated,PTH,ComponentDrill
T4C0.0374
; #@! TA.AperFunction,Plated,PTH,ComponentDrill
T5C0.0394
; #@! TA.AperFunction,Plated,PTH,ComponentDrill
T6C0.0433
; #@! TA.AperFunction,Plated,PTH,ComponentDrill
T7C0.0472
; #@! TA.AperFunction,Plated,PTH,ComponentDrill
T8C0.0512
; #@! TA.AperFunction,Plated,PTH,ComponentDrill
T9C0.0551
; #@! TA.AperFunction,Plated,PTH,ComponentDrill
T10C0.0591
; #@! TA.AperFunction,Plated,PTH,ComponentDrill
T11C0.0630
; #@! TA.AperFunction,Plated,PTH,ComponentDrill
T12C0.0728
; #@! TA.AperFunction,Plated,PTH,ComponentDrill
T13C0.0787
%
G90
G05
T1
X0.8661Y-5.561
X1.0433Y-7.1299
X1.25Y-4.3307
X1.25Y-4.8425
X1.25Y-4.9016
X1.25Y-4.9409
X1.3091Y-6.5256
X1.5874Y-5.3437
X1.5945Y-5.5512
X1.7421Y-4.5669
X1.939Y-6.4272
X1.939Y-6.4272
X1.9764Y-7.1142
X1.9783Y-6.8799
X2.1378Y-3.5394
X2.187Y-5.8465
X2.2126Y-5.8791
X2.2453Y-5.915
X2.2829Y-5.9494
X2.313Y-3.9075
X2.3203Y-6.1902
X2.3203Y-6.2272
X2.322Y-6.1591
X2.3264Y-6.2752
X2.3299Y-5.5331
X2.3858Y-5.1535
X2.4567Y-6.2047
X2.687Y-4.2224
X2.6886Y-4.7882
X2.6917Y-4.8256
X2.6925Y-4.7429
X2.7067Y-4.8622
X2.7244Y-5.5827
X2.774Y-5.5906
X2.8433Y-5.2354
X2.8504Y-5.3622
X2.8665Y-4.8602
X2.9093Y-4.6612
X2.9782Y-5.4307
X2.9806Y-5.6707
X3.0083Y-5.4327
X3.0472Y-5.2598
X3.1063Y-5.5748
X3.1322Y-5.374
X3.2102Y-6.7307
X3.3268Y-4.3898
X3.4142Y-5.5331
X3.4146Y-5.5724
X3.4614Y-4.9657
X3.4843Y-5.0
X3.4866Y-5.4642
X3.5146Y-5.0295
X3.5307Y-5.4634
X3.5516Y-5.0571
X3.5831Y-4.846
X3.622Y-6.2894
X3.6378Y-5.6094
X3.7402Y-6.7717
X3.8484Y-4.5079
X3.928Y-5.2701
X3.9287Y-6.9508
X3.9299Y-7.0205
X3.937Y-5.374
X3.9504Y-4.846
X3.9634Y-5.2724
X3.9882Y-6.0679
X3.9882Y-6.4646
X3.9906Y-6.1102
X4.0591Y-6.6181
X4.0692Y-3.816
X4.1417Y-5.5906
X4.1732Y-3.9173
X4.1839Y-4.846
X4.2205Y-6.3264
X4.2205Y-6.3642
X4.2335Y-5.6563
X4.2717Y-5.6571
X4.2917Y-6.1642
X4.3008Y-5.974
X4.3189Y-6.7913
X4.3602Y-5.911
X4.3602Y-5.9547
X4.3646Y-6.4571
X4.3661Y-4.9327
X4.3898Y-6.4272
X4.3996Y-6.3484
X4.4488Y-6.6299
X4.626Y-4.7047
X4.626Y-5.5228
X4.6378Y-6.7913
X4.6705Y-5.972
X4.7146Y-6.6634
X4.7756Y-6.4213
X4.8299Y-7.0449
X4.8327Y-2.9429
X4.8339Y-3.1362
X4.8339Y-3.1756
X4.835Y-2.9854
X4.835Y-3.0374
X4.835Y-3.0795
X4.8917Y-4.3504
X4.9291Y-6.502
X4.9291Y-6.6909
X4.937Y-6.313
X5.0197Y-6.1732
X5.0441Y-5.5201
X5.1378Y-4.4961
X5.2165Y-4.8327
X5.2756Y-6.1909
X5.2953Y-6.6437
X5.3217Y-4.6558
X5.3248Y-5.0
X5.374Y-5.3622
X5.6299Y-6.4469
X5.6477Y-6.5434
X5.6732Y-7.1378
X5.7579Y-3.9173
X5.8268Y-5.0
X5.8268Y-5.0
X5.8268Y-5.0
X5.8504Y-6.5807
X5.8517Y-6.3461
X5.8517Y-6.378
X5.874Y-5.3268
X5.9252Y-4.3406
X5.9803Y-7.126
X5.9941Y-6.2843
X6.122Y-4.5374
X6.1614Y-4.7244
X6.1811Y-6.0433
X6.2217Y-6.0453
X6.25Y-4.8228
X6.3236Y-5.5504
X6.3334Y-6.4075
X6.4295Y-6.6953
X6.4567Y-5.0
X6.5118Y-4.5118
X6.626Y-4.6811
X6.7087Y-5.9331
X6.7165Y-6.3127
X6.732Y-6.3282
X6.7362Y-5.3425
X6.7669Y-6.813
X6.7717Y-4.8425
X6.8602Y-5.0
X6.9724Y-7.1181
X7.0051Y-5.8291
X7.0768Y-6.1713
X7.1555Y-5.2248
X7.185Y-6.5307
X7.185Y-6.5701
X7.2047Y-4.5276
X7.2047Y-4.8327
X7.2083Y-5.2248
X7.2343Y-4.6752
X7.2882Y-5.0579
X7.322Y-6.2177
X7.3236Y-6.2508
X7.3303Y-5.0591
X7.3819Y-5.0591
X7.485Y-5.9272
X7.4921Y-6.2598
X7.5106Y-5.948
X7.5197Y-5.0
X7.5197Y-5.0
X7.5197Y-5.0
X7.5941Y-5.6571
X7.6142Y-5.6217
X7.6255Y-6.2484
X7.6299Y-6.0071
X7.652Y-6.0299
X7.6575Y-5.0591
X7.6898Y-5.9421
X7.702Y-5.0583
X7.7165Y-6.0335
X7.7535Y-5.0587
X7.7748Y-6.9449
X7.7803Y-5.2248
X7.813Y-5.2248
X7.9012Y-6.3646
X7.9339Y-6.3657
X7.9429Y-4.8524
X7.9626Y-4.5374
X7.9626Y-4.7244
X7.9626Y-6.0157
X7.9787Y-6.0358
X8.0224Y-6.5795
X8.0512Y-6.5551
X8.0807Y-5.0
X8.1496Y-6.8504
X8.1496Y-6.8728
X8.1531Y-5.2043
X8.3386Y-4.0197
X8.3661Y-4.5276
X8.4094Y-4.8307
X8.4409Y-4.7244
X8.4843Y-5.4181
X8.4843Y-5.6815
X8.4843Y-6.2492
X8.5079Y-4.2835
X8.5768Y-6.0638
X8.6815Y-5.2295
X8.7051Y-5.7697
X8.8346Y-6.2638
X8.8622Y-7.0472
X9.0591Y-4.4961
X9.0609Y-5.0
X9.2205Y-4.5118
X9.2244Y-4.8386
X9.2283Y-4.3346
X9.2539Y-5.7972
X9.2953Y-4.185
X9.5043Y-6.0445
X9.5551Y-6.6417
X9.574Y-4.9992
X9.5906Y-6.7402
X9.6024Y-4.7736
X9.6205Y-4.9993
X9.6378Y-4.4921
X9.6949Y-6.8406
X9.6949Y-6.8701
X9.6953Y-6.6492
X9.7307Y-4.9969
X9.7835Y-4.5866
X9.7835Y-5.8563
X9.813Y-5.8563
X9.9114Y-4.9705
X9.9606Y-6.3189
X9.9961Y-4.8071
X10.0Y-6.3189
X10.0031Y-5.7268
X10.0039Y-5.4291
X10.0827Y-4.6063
X10.0945Y-7.0354
X10.0984Y-4.3012
X10.185Y-5.8846
X10.1957Y-5.9165
X10.1957Y-6.0579
X10.2343Y-6.1311
X10.2811Y-5.7378
X10.2823Y-5.6283
X10.2969Y-5.722
X10.3264Y-5.5941
X10.3346Y-5.2165
X10.337Y-6.0752
X10.3445Y-5.3839
X10.3472Y-5.8732
X10.3685Y-6.076
X10.3701Y-7.0472
X10.3872Y-5.7742
X10.487Y-6.6083
X10.5217Y-4.8228
X10.6004Y-5.7283
X10.6299Y-4.3504
X10.6311Y-6.0094
X10.6453Y-5.9941
X10.6496Y-4.6161
X10.6496Y-5.6791
X10.6496Y-5.7087
X10.748Y-6.1457
X10.8346Y-7.0748
X10.9449Y-4.3504
X11.0Y-6.4094
X11.0906Y-6.7756
X11.1535Y-5.6244
X11.1772Y-6.0315
X11.2283Y-3.9094
X11.4272Y-4.5768
X11.4646Y-5.248
X11.4764Y-4.813
X11.752Y-5.6004
X11.7732Y-6.0209
X11.9783Y-4.7933
X12.0374Y-6.1299
X12.0374Y-6.1736
X12.0472Y-4.5866
X12.1024Y-5.5
X12.1732Y-7.1142
X12.1764Y-5.9953
X12.1949Y-4.8524
X12.2028Y-5.0953
X12.2343Y-5.7075
X12.2539Y-4.6457
X12.2539Y-5.7579
X12.3691Y-6.0401
X12.3711Y-5.8204
X12.3957Y-5.8378
X12.4311Y-5.7579
X12.4409Y-6.7244
X12.4803Y-5.8465
X12.5122Y-6.2575
X12.5122Y-6.2996
X12.5205Y-5.7803
X12.5224Y-5.7539
X12.5492Y-4.9311
X12.5787Y-4.8031
X12.628Y-4.498
X12.663Y-6.1748
X12.663Y-6.2024
X12.7657Y-4.9311
X12.9449Y-5.2402
X12.9803Y-6.3228
X12.9823Y-4.7539
X12.9921Y-4.252
X13.1004Y-4.685
X13.1063Y-3.8819
X13.2047Y-5.563
X13.3268Y-7.0748
X13.6516Y-4.5866
X13.8126Y-4.9295
X13.9567Y-5.1181
X13.9823Y-4.9354
X14.0512Y-7.0748
X14.1043Y-4.4587
X14.3701Y-4.9311
X14.4882Y-4.9311
X14.5079Y-5.0787
X14.5118Y-4.374
X14.7441Y-5.0984
X14.8858Y-3.8937
X14.9Y-4.32
X15.1063Y-4.1142
X15.1063Y-4.3228
X15.1339Y-3.8071
X15.2362Y-3.748
X15.2402Y-7.0394
X15.6496Y-5.2047
X15.6614Y-6.2638
X17.3803Y-6.7823
X17.6378Y-5.9646
X17.7283Y-6.1654
X17.7657Y-7.2441
X17.7663Y-6.6285
X17.7663Y-6.9364
X17.7663Y-6.973
X17.7681Y-7.2059
X17.7701Y-6.1602
X17.7854Y-6.6083
X17.7982Y-6.414
X17.8561Y-6.199
X17.9577Y-6.6331
X17.9626Y-6.5984
X18.002Y-5.9646
X18.0118Y-6.7104
X18.027Y-7.5157
X18.0762Y-7.5157
X18.1156Y-7.5157
X18.1549Y-7.5157
X18.189Y-6.6232
X18.2047Y-7.5157
X18.2661Y-6.1811
X18.2661Y-6.2323
X18.2677Y-6.624
X18.3169Y-8.0906
X18.3292Y-6.8843
X18.3362Y-7.7634
X18.3366Y-7.7362
X18.3429Y-8.1161
X18.3508Y-6.8626
X18.3563Y-5.9646
X18.4947Y-7.0715
X18.5335Y-5.9646
X18.5734Y-7.1323
X18.5734Y-7.163
X18.5862Y-6.1717
X18.5874Y-6.211
X18.6114Y-7.802
X18.6325Y-7.0715
X18.6713Y-7.0813
X18.7136Y-7.0738
X18.7357Y-7.313
X18.7626Y-7.7996
X18.7638Y-7.7323
X18.7638Y-7.7654
X18.7705Y-6.9717
X18.7713Y-6.1669
X18.9671Y-6.1659
X18.9671Y-7.0813
X18.9967Y-7.3766
X18.9976Y-7.337
X19.0059Y-7.9035
X19.0157Y-7.0813
X19.0748Y-7.0813
X19.2028Y-5.9646
X19.2028Y-7.6772
X19.2919Y-7.603
X19.3283Y-7.6024
X19.3805Y-7.7165
X19.3937Y-8.2031
X19.4165Y-7.7146
X19.4396Y-8.2033
X19.4986Y-6.6384
X19.5305Y-7.3848
X19.5315Y-7.3469
X19.5404Y-6.7146
X19.5965Y-6.3839
X19.6228Y-6.3874
X19.6421Y-6.2142
X19.6469Y-8.2921
X19.6823Y-8.2921
X19.7343Y-6.6339
X19.7421Y-6.6024
X19.7547Y-6.6906
X19.7736Y-6.7126
X19.8425Y-3.5236
X19.8425Y-3.5945
X19.8425Y-3.6496
X19.9705Y-6.6195
X20.0394Y-6.6195
X20.0492Y-5.9646
X20.1575Y-6.9618
X20.1929Y-6.9618
X20.1969Y-5.9646
X20.2953Y-7.1404
X20.3563Y-6.3169
X20.3937Y-7.1404
X20.4016Y-6.5059
X20.4134Y-7.6654
X20.4429Y-7.1404
X20.4498Y-6.5059
X20.4921Y-7.1404
X20.5722Y-7.6982
X20.5722Y-7.7258
X20.626Y-7.6693
X20.7781Y-7.1404
X20.7874Y-5.9646
X20.8268Y-7.1404
X20.8661Y-7.1404
X20.8957Y-8.248
X20.9301Y-8.2136
X20.9941Y-7.7362
X20.9941Y-7.9035
X21.0197Y-7.6024
X21.0394Y-7.622
X21.2697Y-5.9646
X21.3886Y-7.3254
X21.3886Y-7.372
X21.3894Y-6.6201
X21.4075Y-6.1614
X21.437Y-6.6266
X21.4535Y-6.4098
X21.4587Y-6.437
X21.501Y-6.9232
X21.5157Y-6.2205
X21.5398Y-6.9236
X21.6102Y-6.5354
X21.6102Y-6.6121
X21.626Y-6.7165
X21.6661Y-6.7268
X21.8185Y-6.6996
X21.8223Y-6.6683
X21.8617Y-6.6175
X21.9193Y-6.6175
X22.0079Y-5.9646
X22.0236Y-6.9685
X22.0669Y-6.9685
X22.0709Y-6.348
X22.1063Y-6.348
X22.185Y-5.9646
X22.4606Y-6.5748
X22.4913Y-6.5453
X22.628Y-5.9646
X22.8543Y-5.9646
X22.8937Y-8.1102
X23.2264Y-5.9744
X23.622Y-8.4449
X23.6535Y-5.9681
X23.7268Y-5.9681
X24.1043Y-8.4449
X24.198Y-7.0815
X24.2043Y-7.7547
X24.2138Y-6.4346
X24.4705Y-7.7827
T2
X4.0866Y-7.0217
X4.1654Y-7.0217
X4.2441Y-7.0217
X4.3228Y-7.0217
X4.4016Y-7.0217
X4.4803Y-7.0217
X4.5591Y-7.0217
X4.6378Y-7.0217
X5.2047Y-7.0217
X5.2835Y-7.0217
X5.3622Y-7.0217
X5.4409Y-7.0217
X5.5197Y-7.0217
X5.5984Y-7.0217
X5.6772Y-7.0217
X5.7559Y-7.0217
X8.2776Y-7.0276
X8.3563Y-7.0276
X8.435Y-7.0276
X8.5138Y-7.0276
X8.5925Y-7.0276
X8.6713Y-7.0276
X9.6949Y-7.0276
X9.7736Y-7.0276
X9.8524Y-7.0276
X9.9311Y-7.0276
X19.8046Y-8.2927
X19.8834Y-8.2927
X19.9621Y-8.2927
X20.0408Y-8.2927
X20.1196Y-8.2927
X20.1983Y-8.2927
X20.2165Y-0.9843
X20.2771Y-8.2927
X20.2953Y-0.9843
X20.3558Y-8.2927
X20.374Y-0.9843
X20.4528Y-0.9843
X22.8937Y-8.2874
X22.9724Y-8.2874
X23.0512Y-8.2874
X23.1299Y-8.2874
X23.2087Y-8.2874
X23.2874Y-8.2874
X23.3661Y-8.2874
X23.4449Y-8.2874
X24.2126Y-1.0039
X24.2913Y-1.0039
X24.3701Y-1.0039
X24.4488Y-1.0039
X24.5276Y-1.0039
X24.6063Y-1.0039
T3
X2.3082Y-4.9207
X2.6082Y-4.9207
X2.9886Y-4.8508
X3.2886Y-4.8508
X6.9521Y-5.4981
X7.2521Y-5.4981
X7.6332Y-5.4981
X7.9332Y-5.4981
X11.6994Y-5.2854
X11.9994Y-5.2854
X12.3805Y-5.311
X12.6805Y-5.311
X17.3382Y-1.9921
X17.4008Y-1.7638
X17.6382Y-1.9921
X17.7008Y-1.7638
X17.878Y-1.4561
X17.878Y-1.7561
X17.978Y-1.4561
X17.978Y-1.7561
X18.078Y-1.4561
X18.078Y-1.7561
X18.2634Y-1.378
X18.5634Y-1.378
X18.6575Y-1.7634
X18.6575Y-2.0634
X19.2476Y-1.8583
X19.3535Y-1.6142
X19.5476Y-1.8583
X19.6535Y-1.6142
X19.8551Y-1.312
X19.8551Y-1.612
X19.9551Y-1.312
X19.9551Y-1.612
X20.0551Y-1.312
X20.0551Y-1.612
X20.2394Y-1.2913
X20.5394Y-1.2913
X20.6102Y-1.6217
X20.6102Y-1.9217
X21.0469Y-1.8622
X21.1689Y-1.5866
X21.3469Y-1.8622
X21.4689Y-1.5866
X21.6358Y-1.2254
X21.6358Y-1.5254
X21.7358Y-1.2254
X21.7358Y-1.5254
X21.8358Y-1.2254
X21.8358Y-1.5254
X22.0197Y-1.2244
X22.3197Y-1.2244
X22.4843Y-1.535
X22.4843Y-1.835
X22.9898Y-2.6083
X23.1744Y-1.5134
X23.1744Y-1.7102
X23.226Y-1.3559
X23.2898Y-2.6083
X23.4228Y-1.3559
X23.472Y-2.3083
X23.472Y-2.6083
X23.4744Y-1.5134
X23.4744Y-1.7102
X23.4744Y-1.8677
X23.4744Y-2.1677
X24.102Y-2.6083
X24.2362Y-7.224
X24.2362Y-7.524
X24.2402Y-7.9327
X24.2402Y-8.2327
X24.2554Y-4.8106
X24.2554Y-5.1106
X24.2554Y-6.6256
X24.2554Y-6.9256
X24.2559Y-4.3146
X24.2559Y-4.6146
X24.2677Y-5.9091
X24.2677Y-6.2091
X24.3307Y-1.5157
X24.3307Y-1.7126
X24.3823Y-1.3583
X24.402Y-2.6083
X24.5268Y-6.5732
X24.5268Y-6.6732
X24.527Y-4.273
X24.527Y-4.373
X24.527Y-5.0841
X24.527Y-5.1841
X24.5309Y-7.3596
X24.5309Y-7.4596
X24.5309Y-8.1116
X24.5309Y-8.2116
X24.5348Y-5.8085
X24.5348Y-5.9085
X24.5791Y-1.3583
X24.626Y-2.3106
X24.626Y-2.6106
X24.6307Y-1.5157
X24.6307Y-1.7126
X24.6307Y-1.8677
X24.6307Y-2.1677
X24.8268Y-6.5732
X24.8268Y-6.6732
X24.827Y-4.273
X24.827Y-4.373
X24.827Y-5.0841
X24.827Y-5.1841
X24.8309Y-7.3596
X24.8309Y-7.4596
X24.8309Y-8.1116
X24.8309Y-8.2116
X24.8348Y-5.8085
X24.8348Y-5.9085
X24.9803Y-4.1929
X24.9803Y-4.4882
X24.9803Y-4.9614
X24.9803Y-5.748
X24.9803Y-6.0433
X24.9814Y-6.5165
X24.9902Y-5.2567
X24.9902Y-6.8118
X24.9902Y-7.2539
X24.9902Y-7.5492
X24.9912Y-8.0224
X25.0Y-8.3177
X25.2043Y-2.6083
X25.2803Y-4.1929
X25.2803Y-4.4882
X25.2803Y-4.9614
X25.2803Y-5.748
X25.2803Y-6.0433
X25.2814Y-6.5165
X25.2902Y-5.2567
X25.2902Y-6.8118
X25.2902Y-7.2539
X25.2902Y-7.5492
X25.2912Y-8.0224
X25.3Y-8.3177
X25.3717Y-1.5157
X25.3717Y-1.7126
X25.3937Y-4.9614
X25.3937Y-5.748
X25.3948Y-4.1937
X25.3948Y-6.5165
X25.4035Y-4.489
X25.4035Y-5.2567
X25.4035Y-6.0433
X25.4035Y-6.8118
X25.4035Y-7.2539
X25.4046Y-8.0224
X25.4134Y-7.5492
X25.4134Y-8.3177
X25.4232Y-1.3583
X25.5043Y-2.6083
X25.6201Y-1.3583
X25.6693Y-2.3106
X25.6693Y-2.6106
X25.6717Y-1.5157
X25.6717Y-1.7126
X25.6717Y-1.8677
X25.6717Y-2.1677
X25.6937Y-4.9614
X25.6937Y-5.748
X25.6948Y-4.1937
X25.6948Y-6.5165
X25.7035Y-4.489
X25.7035Y-5.2567
X25.7035Y-6.0433
X25.7035Y-6.8118
X25.7035Y-7.2539
X25.7046Y-8.0224
X25.7134Y-7.5492
X25.7134Y-8.3177
T4
X18.8189Y-4.8622
X18.9173Y-4.8622
X19.0157Y-4.8622
X19.1142Y-4.8622
X20.9646Y-4.8622
X21.063Y-4.8622
X21.1614Y-4.8622
X21.2598Y-4.8622
X23.2283Y-4.8622
X23.3268Y-4.8622
X23.4252Y-4.8622
X23.5236Y-4.8622
T5
X1.815Y-5.4921
X1.939Y-5.374
X2.0276Y-4.5866
X2.1348Y-5.998
X2.4402Y-5.7146
X2.5358Y-4.7028
X2.6476Y-6.5453
X2.8106Y-4.7599
X3.1524Y-4.7126
X3.2165Y-5.0906
X4.2134Y-5.8693
X5.8271Y-5.8982
X7.0932Y-5.3415
X7.1011Y-6.2627
X7.5197Y-5.3543
X7.7901Y-5.3415
X7.8831Y-5.6697
X8.7379Y-6.6057
X9.626Y-5.6299
X10.226Y-6.3012
X10.352Y-5.4902
X10.5016Y-6.3287
X11.5315Y-6.1457
X11.8415Y-5.1378
X12.2622Y-5.1685
X12.5364Y-5.1565
X12.5591Y-5.4528
X17.2884Y-6.8791
X17.3145Y-6.2652
X17.3573Y-6.6921
X17.5886Y-7.1949
X17.7205Y-3.6811
X18.101Y-7.8195
X18.1994Y-7.3274
X18.2008Y-1.185
X18.2475Y-8.2565
X18.2594Y-6.9541
X18.2972Y-3.3957
X18.3219Y-6.328
X18.4941Y-4.8622
X18.6604Y-8.1965
X18.9803Y-6.2677
X19.0433Y-6.8459
X19.0945Y-1.2087
X19.1137Y-7.2722
X19.1634Y-3.3957
X19.4094Y-4.8622
X19.5417Y-8.1984
X19.5472Y-1.1929
X19.626Y-2.3228
X19.637Y-7.8661
X19.8425Y-2.6575
X19.9488Y-5.7736
X20.0374Y-6.9618
X20.0984Y-2.3228
X20.277Y-8.0073
X20.4213Y-6.252
X20.4626Y-3.4055
X20.5315Y-2.3228
X20.6594Y-4.8622
X20.8071Y-2.6575
X20.8819Y-6.2677
X20.9365Y-6.7553
X20.9409Y-8.0512
X20.9921Y-1.2323
X21.0433Y-2.3228
X21.1225Y-7.288
X21.2014Y-7.5341
X21.2358Y-6.1839
X21.3287Y-3.4154
X21.5157Y-2.3228
X21.5748Y-4.8622
X21.7717Y-2.6575
X21.9011Y-6.962
X21.97Y-6.3419
X22.0276Y-2.3228
X22.1063Y-5.7677
X22.6969Y-3.4154
X22.9724Y-4.8622
X23.5827Y-3.4154
X23.6492Y-1.7004
X23.8189Y-4.8622
X24.4882Y-8.378
X24.5Y-5.374
X24.5039Y-4.5669
X24.5039Y-6.1457
X24.5079Y-6.8622
X24.5118Y-7.6378
X24.5118Y-7.9409
X24.8055Y-1.7028
X25.8465Y-1.7028
T6
X17.1819Y-5.8071
X17.1941Y-5.3811
X17.2819Y-5.8071
X17.3819Y-5.8071
X17.5941Y-5.3811
X18.2661Y-5.8161
X18.3661Y-5.8161
X18.4661Y-5.8161
X19.2035Y-5.8134
X19.3035Y-5.8134
X19.4035Y-5.8134
X20.4193Y-5.8087
X20.5193Y-5.8087
X20.6193Y-5.8087
X21.3567Y-5.8059
X21.4567Y-5.8059
X21.5567Y-5.8059
X22.6831Y-5.8087
X22.7831Y-5.8087
X22.8831Y-5.8087
X23.6205Y-5.8059
X23.7205Y-5.8059
X23.8205Y-5.8059
T7
X1.0827Y-4.498
X1.0827Y-5.3839
X7.022Y-1.9685
X8.04Y-2.6071
X8.04Y-3.4929
X9.622Y-1.9685
X17.622Y-4.315
X17.622Y-4.815
X17.8819Y-4.3189
X17.8819Y-4.8189
X19.7362Y-4.313
X19.7362Y-4.813
X19.9961Y-4.3169
X19.9961Y-4.8169
X21.9764Y-4.3366
X21.9764Y-4.8366
X22.2008Y-4.3445
X22.2008Y-4.8445
T8
X18.3268Y-3.7598
X18.3268Y-4.5472
X18.5236Y-4.5472
X18.9173Y-4.5472
X19.1142Y-3.7598
X19.1142Y-4.5472
X20.4724Y-3.7598
X20.4724Y-4.5472
X20.6693Y-4.5472
X21.063Y-4.5472
X21.2598Y-3.7598
X21.2598Y-4.5472
X22.7362Y-3.7598
X22.7362Y-4.5472
X22.9331Y-4.5472
X23.3268Y-4.5472
X23.5236Y-3.7598
X23.5236Y-4.5472
T9
X1.0838Y-3.1102
X1.0838Y-3.4055
X1.0925Y-5.7874
X1.0925Y-6.0827
X1.3819Y-6.748
X1.6772Y-6.748
X2.0177Y-6.7489
X2.313Y-6.7489
X15.4615Y-3.75
X15.4615Y-4.0453
X15.4615Y-4.498
X15.4615Y-4.7933
X17.1969Y-3.9535
X17.1969Y-4.2488
X17.2027Y-3.2972
X17.2027Y-3.5925
X17.2983Y-7.3248
X17.2983Y-7.6201
X17.2983Y-7.9587
X17.2983Y-8.2539
X17.9744Y-2.0639
X18.2697Y-2.0639
X18.5827Y-3.2983
X18.878Y-3.2983
X19.9665Y-1.9143
X20.2618Y-1.9143
X20.7457Y-3.3105
X21.0409Y-3.3105
X21.7539Y-1.8277
X22.0492Y-1.8277
X23.0094Y-3.3105
X23.3047Y-3.3105
X25.9044Y-4.2028
X25.9044Y-4.498
X25.9044Y-4.9705
X25.9044Y-5.2657
X25.9044Y-5.7579
X25.9044Y-6.0531
X25.9044Y-6.5256
X25.9044Y-6.8209
X25.9143Y-7.2638
X25.9143Y-7.5591
X25.9143Y-8.0315
X25.9143Y-8.3268
T10
X1.7323Y-2.4409
X1.9469Y-2.4409
X2.1614Y-2.4409
X3.5039Y-2.4409
X3.7185Y-2.4409
X3.9331Y-2.4409
X5.2756Y-2.4409
X5.4902Y-2.4409
X5.7047Y-2.4409
X10.9449Y-2.4409
X11.1594Y-2.4409
X11.374Y-2.4409
X12.7165Y-2.4409
X12.9311Y-2.4409
X13.1457Y-2.4409
X14.4882Y-2.4409
X14.7028Y-2.4409
X14.9173Y-2.4409
T11
X0.9724Y-3.6951
X0.9724Y-4.2951
X1.2906Y-5.8071
X1.8906Y-5.8071
X17.0181Y-4.7087
X17.0181Y-5.3087
T12
X1.3411Y-3.7033
X1.3411Y-3.9344
X1.5722Y-3.7033
X1.5722Y-3.9344
X2.4041Y-2.9553
X2.4041Y-3.1864
X2.6352Y-2.9553
X2.6352Y-3.1864
X3.1128Y-3.7033
X3.1128Y-3.9344
X3.3439Y-3.7033
X3.3439Y-3.9344
X4.1758Y-2.9553
X4.1758Y-3.1864
X4.4069Y-2.9553
X4.4069Y-3.1864
X4.8844Y-3.7033
X4.8844Y-3.9344
X5.1156Y-3.7033
X5.1156Y-3.9344
X5.9278Y-2.9553
X5.9278Y-3.1864
X6.1589Y-2.9553
X6.1589Y-3.1864
X6.3744Y-4.0444
X6.3744Y-4.2756
X6.6056Y-4.0444
X6.6056Y-4.2756
X7.3544Y-3.8544
X7.3544Y-4.0856
X7.5856Y-3.8544
X7.5856Y-4.0856
X8.6443Y-4.5892
X8.6443Y-4.8203
X8.7427Y-3.3293
X8.7427Y-3.5604
X8.8754Y-4.5892
X8.8754Y-4.8203
X8.9738Y-3.3293
X8.9738Y-3.5604
X9.4907Y-4.0577
X9.4907Y-4.2888
X9.6285Y-2.9159
X9.6285Y-3.147
X9.7219Y-4.0577
X9.7219Y-4.2888
X9.8596Y-2.9159
X9.8596Y-3.147
X10.5537Y-3.7033
X10.5537Y-3.9344
X10.7848Y-3.7033
X10.7848Y-3.9344
X11.6167Y-2.9553
X11.6167Y-3.1864
X11.8478Y-2.9553
X11.8478Y-3.1864
X12.3254Y-3.7033
X12.3254Y-3.9344
X12.5565Y-3.7033
X12.5565Y-3.9344
X13.3884Y-2.9553
X13.3884Y-3.1864
X13.6195Y-2.9553
X13.6195Y-3.1864
X14.097Y-3.7033
X14.097Y-3.9344
X14.3281Y-3.7033
X14.3281Y-3.9344
X15.16Y-2.9553
X15.16Y-3.1864
X15.3911Y-2.9553
X15.3911Y-3.1864
T13
X6.9163Y-2.98
X7.31Y-2.98
X17.2114Y-2.6185
X17.6051Y-2.6185
M30
