%TF.GenerationSoftware,KiCad,Pcbnew,9.0.3*%
%TF.CreationDate,2025-09-26T22:05:40+02:00*%
%TF.ProjectId,Cur_Emul,4375725f-456d-4756-9c2e-6b696361645f,rev?*%
%TF.SameCoordinates,Original*%
%TF.FileFunction,Soldermask,Bot*%
%TF.FilePolarity,Negative*%
%FSLAX46Y46*%
G04 Gerber Fmt 4.6, Leading zero omitted, Abs format (unit mm)*
G04 Created by KiCad (PCBNEW 9.0.3) date 2025-09-26 22:05:40*
%MOMM*%
%LPD*%
G01*
G04 APERTURE LIST*
G04 Aperture macros list*
%AMRoundRect*
0 Rectangle with rounded corners*
0 $1 Rounding radius*
0 $2 $3 $4 $5 $6 $7 $8 $9 X,Y pos of 4 corners*
0 Add a 4 corners polygon primitive as box body*
4,1,4,$2,$3,$4,$5,$6,$7,$8,$9,$2,$3,0*
0 Add four circle primitives for the rounded corners*
1,1,$1+$1,$2,$3*
1,1,$1+$1,$4,$5*
1,1,$1+$1,$6,$7*
1,1,$1+$1,$8,$9*
0 Add four rect primitives between the rounded corners*
20,1,$1+$1,$2,$3,$4,$5,0*
20,1,$1+$1,$4,$5,$6,$7,0*
20,1,$1+$1,$6,$7,$8,$9,0*
20,1,$1+$1,$8,$9,$2,$3,0*%
G04 Aperture macros list end*
%ADD10C,1.000000*%
%ADD11C,1.600000*%
%ADD12RoundRect,0.250000X1.550000X-0.750000X1.550000X0.750000X-1.550000X0.750000X-1.550000X-0.750000X0*%
%ADD13O,3.600000X2.000000*%
%ADD14RoundRect,0.250000X-0.350000X-0.625000X0.350000X-0.625000X0.350000X0.625000X-0.350000X0.625000X0*%
%ADD15O,1.200000X1.750000*%
%ADD16C,2.000000*%
%ADD17O,1.600000X1.600000*%
%ADD18R,1.600000X1.600000*%
%ADD19C,2.400000*%
%ADD20C,3.200000*%
%ADD21RoundRect,0.250000X0.350000X0.625000X-0.350000X0.625000X-0.350000X-0.625000X0.350000X-0.625000X0*%
%ADD22O,2.500000X4.500000*%
%ADD23R,2.500000X4.500000*%
%ADD24C,3.600000*%
%ADD25C,4.000000*%
%ADD26RoundRect,0.250000X1.750000X1.750000X-1.750000X1.750000X-1.750000X-1.750000X1.750000X-1.750000X0*%
%ADD27RoundRect,0.250000X-1.550000X0.750000X-1.550000X-0.750000X1.550000X-0.750000X1.550000X0.750000X0*%
%ADD28RoundRect,0.250001X-0.799999X-1.549999X0.799999X-1.549999X0.799999X1.549999X-0.799999X1.549999X0*%
%ADD29O,2.100000X3.600000*%
%ADD30C,2.300000*%
%ADD31R,2.300000X2.300000*%
%ADD32RoundRect,0.249999X-0.850001X-0.850001X0.850001X-0.850001X0.850001X0.850001X-0.850001X0.850001X0*%
%ADD33C,2.200000*%
%ADD34C,1.400000*%
%ADD35RoundRect,0.250000X-0.600000X-0.725000X0.600000X-0.725000X0.600000X0.725000X-0.600000X0.725000X0*%
%ADD36O,1.700000X1.950000*%
%ADD37C,3.500000*%
%ADD38R,1.905000X2.000000*%
%ADD39O,1.905000X2.000000*%
%ADD40O,2.000000X3.600000*%
%ADD41RoundRect,0.250000X0.750000X1.550000X-0.750000X1.550000X-0.750000X-1.550000X0.750000X-1.550000X0*%
%ADD42RoundRect,0.250001X-1.549999X0.799999X-1.549999X-0.799999X1.549999X-0.799999X1.549999X0.799999X0*%
%ADD43O,3.600000X2.100000*%
%ADD44R,1.700000X1.700000*%
G04 APERTURE END LIST*
D10*
X61000000Y-69750000D02*
X55000000Y-63750000D01*
X61000000Y-73500000D02*
X61000000Y-69750000D01*
X150750000Y-66750000D02*
X145750000Y-62750000D01*
X150750000Y-73500000D02*
X150750000Y-66750000D01*
X106000000Y-69500000D02*
X100500000Y-63750000D01*
X106000000Y-73500000D02*
X106000000Y-69500000D01*
X295000000Y-66500000D02*
X289750000Y-62750000D01*
X295000000Y-73500000D02*
X295000000Y-66500000D01*
X340250000Y-69250000D02*
X334750000Y-63250000D01*
X340250000Y-73750000D02*
X340250000Y-69250000D01*
X385250000Y-68000000D02*
X379500000Y-63250000D01*
X385250000Y-74375000D02*
X385250000Y-68125000D01*
D11*
%TO.C,R213*%
X652060000Y-43500000D03*
X644440000Y-43500000D03*
%TD*%
%TO.C,C52*%
X650750000Y-34500000D03*
X645750000Y-34500000D03*
%TD*%
%TO.C,R214*%
X652060000Y-38500000D03*
X644440000Y-38500000D03*
%TD*%
%TO.C,R209*%
X652250000Y-58690000D03*
X652250000Y-66310000D03*
%TD*%
%TO.C,R207*%
X647810000Y-66250000D03*
X640190000Y-66250000D03*
%TD*%
%TO.C,R211*%
X652060000Y-47440000D03*
X652060000Y-55060000D03*
%TD*%
D12*
%TO.C,J39*%
X657972500Y-153750000D03*
D13*
X657972500Y-146250000D03*
%TD*%
D12*
%TO.C,J32*%
X658222500Y-211500000D03*
D13*
X658222500Y-204000000D03*
%TD*%
D12*
%TO.C,J27*%
X657972500Y-173250000D03*
D13*
X657972500Y-165750000D03*
%TD*%
D14*
%TO.C,J34*%
X615000000Y-25500000D03*
D15*
X617000000Y-25500000D03*
X619000000Y-25500000D03*
X621000000Y-25500000D03*
X623000000Y-25500000D03*
X625000000Y-25500000D03*
%TD*%
D11*
%TO.C,R187*%
X634500000Y-153500000D03*
X642120000Y-153500000D03*
%TD*%
%TO.C,R186*%
X616087500Y-153580000D03*
X616087500Y-145960000D03*
%TD*%
D16*
%TO.C,TP66*%
X613250000Y-157000000D03*
%TD*%
D11*
%TO.C,R188*%
X645250000Y-153500000D03*
X652870000Y-153500000D03*
%TD*%
%TO.C,R190*%
X645000000Y-146000000D03*
X652620000Y-146000000D03*
%TD*%
%TO.C,R189*%
X634500000Y-146000000D03*
X642120000Y-146000000D03*
%TD*%
%TO.C,R204*%
X645250000Y-173020000D03*
X652870000Y-173020000D03*
%TD*%
%TO.C,R225*%
X634527500Y-165520000D03*
X642147500Y-165520000D03*
%TD*%
%TO.C,R226*%
X645027500Y-165520000D03*
X652647500Y-165520000D03*
%TD*%
%TO.C,R200*%
X616087500Y-165710000D03*
X616087500Y-173330000D03*
%TD*%
%TO.C,R202*%
X634750000Y-173020000D03*
X642370000Y-173020000D03*
%TD*%
D16*
%TO.C,TP75*%
X610750000Y-174750000D03*
%TD*%
D11*
%TO.C,R210*%
X538380000Y-38500000D03*
X546000000Y-38500000D03*
%TD*%
%TO.C,R208*%
X546000000Y-42500000D03*
X538380000Y-42500000D03*
%TD*%
%TO.C,R224*%
X538130000Y-47500000D03*
X545750000Y-47500000D03*
%TD*%
D16*
%TO.C,TP62*%
X506500000Y-31450000D03*
%TD*%
D11*
%TO.C,R170*%
X501130000Y-38250000D03*
X508750000Y-38250000D03*
%TD*%
D17*
%TO.C,U16*%
X497250000Y-39070000D03*
X492170000Y-39070000D03*
X492170000Y-31450000D03*
X494710000Y-31450000D03*
D18*
X497250000Y-31450000D03*
%TD*%
D11*
%TO.C,R169*%
X500880000Y-42750000D03*
X508500000Y-42750000D03*
%TD*%
%TO.C,R194*%
X500880000Y-47250000D03*
X508500000Y-47250000D03*
%TD*%
D19*
%TO.C,C10*%
X204216000Y-88720000D03*
X204216000Y-66220000D03*
%TD*%
D20*
%TO.C,J10*%
X150565000Y-75065000D03*
X150565000Y-80935000D03*
X156435000Y-75065000D03*
X156435000Y-80935000D03*
%TD*%
D16*
%TO.C,TP2*%
X62190000Y-121001000D03*
%TD*%
%TO.C,TP38*%
X51500000Y-116500000D03*
%TD*%
D20*
%TO.C,J13*%
X313065000Y-94065000D03*
X313065000Y-99935000D03*
X318935000Y-94065000D03*
X318935000Y-99935000D03*
%TD*%
D16*
%TO.C,TP3*%
X79890000Y-121001000D03*
%TD*%
D20*
%TO.C,J9*%
X124065000Y-94065000D03*
X124065000Y-99935000D03*
X129935000Y-94065000D03*
X129935000Y-99935000D03*
%TD*%
D15*
%TO.C,J23*%
X210250000Y-178500000D03*
X212250000Y-178500000D03*
X214250000Y-178500000D03*
X216250000Y-178500000D03*
X218250000Y-178500000D03*
D21*
X220250000Y-178500000D03*
%TD*%
D16*
%TO.C,TP29*%
X259740000Y-160050000D03*
%TD*%
D20*
%TO.C,J1*%
X246935000Y-108935000D03*
X246935000Y-103065000D03*
X241065000Y-108935000D03*
X241065000Y-103065000D03*
%TD*%
D19*
%TO.C,R68*%
X244400000Y-50000000D03*
X178360000Y-50000000D03*
%TD*%
%TO.C,C49*%
X27500000Y-136750000D03*
X27500000Y-114250000D03*
%TD*%
D16*
%TO.C,TP9*%
X318475000Y-139000000D03*
%TD*%
D11*
%TO.C,R21*%
X314465000Y-134900000D03*
X322085000Y-134900000D03*
%TD*%
D20*
%TO.C,J12*%
X295065000Y-75065000D03*
X295065000Y-80935000D03*
X300935000Y-75065000D03*
X300935000Y-80935000D03*
%TD*%
D16*
%TO.C,TP30*%
X266740000Y-160250000D03*
%TD*%
D22*
%TO.C,M6*%
X378900000Y-62000000D03*
X373450000Y-62000000D03*
D23*
X368000000Y-62000000D03*
D24*
X373450000Y-42140000D03*
%TD*%
D20*
%TO.C,J5*%
X39935000Y-99935000D03*
X39935000Y-94065000D03*
X34065000Y-99935000D03*
X34065000Y-94065000D03*
%TD*%
D15*
%TO.C,J24*%
X132200000Y-178350000D03*
X134200000Y-178350000D03*
X136200000Y-178350000D03*
X138200000Y-178350000D03*
X140200000Y-178350000D03*
X142200000Y-178350000D03*
X144200000Y-178350000D03*
D21*
X146200000Y-178350000D03*
%TD*%
D20*
%TO.C,J3*%
X192673000Y-103773000D03*
X192673000Y-97903000D03*
X186803000Y-103773000D03*
X186803000Y-97903000D03*
%TD*%
%TO.C,J6*%
X66935000Y-75065000D03*
X61065000Y-75065000D03*
X66935000Y-80935000D03*
X61065000Y-80935000D03*
%TD*%
%TO.C,J11*%
X268065000Y-94065000D03*
X268065000Y-99935000D03*
X273935000Y-94065000D03*
X273935000Y-99935000D03*
%TD*%
D11*
%TO.C,R9*%
X176583500Y-139653000D03*
X184203500Y-139653000D03*
%TD*%
D16*
%TO.C,TP4*%
X62390000Y-144401000D03*
%TD*%
%TO.C,TP19*%
X262940000Y-139450000D03*
%TD*%
D20*
%TO.C,J21*%
X227935000Y-84565000D03*
X222065000Y-84565000D03*
X227935000Y-90435000D03*
X222065000Y-90435000D03*
%TD*%
D16*
%TO.C,TP16*%
X148007500Y-149815000D03*
%TD*%
%TO.C,TP59*%
X53750000Y-152250000D03*
%TD*%
%TO.C,TP8*%
X197668500Y-143813000D03*
%TD*%
D20*
%TO.C,J8*%
X111935000Y-80935000D03*
X111935000Y-75065000D03*
X106065000Y-80935000D03*
X106065000Y-75065000D03*
%TD*%
D16*
%TO.C,TP7*%
X197868500Y-135673000D03*
%TD*%
%TO.C,TP12*%
X318425000Y-130975000D03*
%TD*%
D25*
%TO.C,C9*%
X175674000Y-75692000D03*
D26*
X185674000Y-75692000D03*
%TD*%
D15*
%TO.C,J25*%
X103800000Y-178350000D03*
X105800000Y-178350000D03*
X107800000Y-178350000D03*
X109800000Y-178350000D03*
X111800000Y-178350000D03*
X113800000Y-178350000D03*
X115800000Y-178350000D03*
D21*
X117800000Y-178350000D03*
%TD*%
D16*
%TO.C,TP11*%
X300775000Y-130925000D03*
%TD*%
%TO.C,TP20*%
X67250000Y-166250000D03*
%TD*%
D11*
%TO.C,R5*%
X66247840Y-124987000D03*
X58627840Y-124987000D03*
%TD*%
D16*
%TO.C,TP15*%
X106575000Y-148925000D03*
%TD*%
%TO.C,TP6*%
X180168500Y-135673000D03*
%TD*%
D15*
%TO.C,J20*%
X246250000Y-178500000D03*
X248250000Y-178500000D03*
X250250000Y-178500000D03*
D21*
X252250000Y-178500000D03*
%TD*%
D20*
%TO.C,J7*%
X84935000Y-99935000D03*
X84935000Y-94065000D03*
X79065000Y-99935000D03*
X79065000Y-94065000D03*
%TD*%
D16*
%TO.C,TP27*%
X221942000Y-167784000D03*
%TD*%
D20*
%TO.C,J4*%
X167781000Y-108599000D03*
X167781000Y-102729000D03*
X161911000Y-108599000D03*
X161911000Y-102729000D03*
%TD*%
D16*
%TO.C,TP10*%
X300850000Y-154464000D03*
%TD*%
D20*
%TO.C,J2*%
X225435000Y-122435000D03*
X225435000Y-116565000D03*
X219565000Y-122435000D03*
X219565000Y-116565000D03*
%TD*%
D13*
%TO.C,J31*%
X27750000Y-154500000D03*
D27*
X27750000Y-147000000D03*
%TD*%
D22*
%TO.C,M4*%
X288900000Y-62000000D03*
X283450000Y-62000000D03*
D23*
X278000000Y-62000000D03*
D24*
X283450000Y-42140000D03*
%TD*%
D20*
%TO.C,J22*%
X250435000Y-74065000D03*
X244565000Y-74065000D03*
X250435000Y-79935000D03*
X244565000Y-79935000D03*
%TD*%
D16*
%TO.C,TP5*%
X180368500Y-159073000D03*
%TD*%
D11*
%TO.C,R17*%
X297165000Y-134900000D03*
X304785000Y-134900000D03*
%TD*%
D16*
%TO.C,TP37*%
X49250000Y-136500000D03*
%TD*%
D11*
%TO.C,R13*%
X193883500Y-139653000D03*
X201503500Y-139653000D03*
%TD*%
D16*
%TO.C,TP13*%
X191000000Y-136000000D03*
%TD*%
D22*
%TO.C,M1*%
X54900000Y-62000000D03*
X49450000Y-62000000D03*
D23*
X44000000Y-62000000D03*
D24*
X49450000Y-42140000D03*
%TD*%
D16*
%TO.C,TP18*%
X71390000Y-120901000D03*
%TD*%
D22*
%TO.C,M2*%
X99900000Y-62000000D03*
X94450000Y-62000000D03*
D23*
X89000000Y-62000000D03*
D24*
X94450000Y-42140000D03*
%TD*%
D20*
%TO.C,J15*%
X358065000Y-94065000D03*
X358065000Y-99935000D03*
X363935000Y-94065000D03*
X363935000Y-99935000D03*
%TD*%
D16*
%TO.C,TP14*%
X311750000Y-131250000D03*
%TD*%
D20*
%TO.C,J14*%
X345935000Y-80935000D03*
X345935000Y-75065000D03*
X340065000Y-80935000D03*
X340065000Y-75065000D03*
%TD*%
D16*
%TO.C,TP1*%
X80750000Y-129250000D03*
%TD*%
%TO.C,TP28*%
X244500000Y-143000000D03*
%TD*%
D11*
%TO.C,R1*%
X75899840Y-124987000D03*
X83519840Y-124987000D03*
%TD*%
D22*
%TO.C,M3*%
X144900000Y-62000000D03*
X139450000Y-62000000D03*
D23*
X134000000Y-62000000D03*
D24*
X139450000Y-42140000D03*
%TD*%
D22*
%TO.C,M5*%
X333900000Y-62000000D03*
X328450000Y-62000000D03*
D23*
X323000000Y-62000000D03*
D24*
X328450000Y-42140000D03*
%TD*%
D16*
%TO.C,TP73*%
X46250000Y-139500000D03*
%TD*%
D28*
%TO.C,J49*%
X36075000Y-171222500D03*
D29*
X43695000Y-171222500D03*
X51315000Y-171222500D03*
X58935000Y-171222500D03*
%TD*%
D13*
%TO.C,J54*%
X392722500Y-114250000D03*
D12*
X392722500Y-121750000D03*
%TD*%
D13*
%TO.C,J53*%
X392722500Y-95250000D03*
D12*
X392722500Y-102750000D03*
%TD*%
D13*
%TO.C,J55*%
X27527500Y-86500000D03*
D27*
X27527500Y-79000000D03*
%TD*%
D11*
%TO.C,R195*%
X448190000Y-43250000D03*
X455810000Y-43250000D03*
%TD*%
%TO.C,R212*%
X521380000Y-42500000D03*
X529000000Y-42500000D03*
%TD*%
D16*
%TO.C,TP76*%
X611000000Y-203000000D03*
%TD*%
%TO.C,TP74*%
X621000000Y-137000000D03*
%TD*%
D11*
%TO.C,R231*%
X645277500Y-203770000D03*
X652897500Y-203770000D03*
%TD*%
%TO.C,R230*%
X634777500Y-203770000D03*
X642397500Y-203770000D03*
%TD*%
%TO.C,R229*%
X645500000Y-211270000D03*
X653120000Y-211270000D03*
%TD*%
%TO.C,R228*%
X635000000Y-211270000D03*
X642620000Y-211270000D03*
%TD*%
%TO.C,R223*%
X645000000Y-126020000D03*
X652620000Y-126020000D03*
%TD*%
%TO.C,R222*%
X634500000Y-126020000D03*
X642120000Y-126020000D03*
%TD*%
%TO.C,R221*%
X645250000Y-133520000D03*
X652870000Y-133520000D03*
%TD*%
%TO.C,R219*%
X616087500Y-133580000D03*
X616087500Y-125960000D03*
%TD*%
%TO.C,R171*%
X471500000Y-47500000D03*
X463880000Y-47500000D03*
%TD*%
D21*
%TO.C,J36*%
X595500000Y-210500000D03*
D15*
X593500000Y-210500000D03*
X591500000Y-210500000D03*
X589500000Y-210500000D03*
X587500000Y-210500000D03*
X585500000Y-210500000D03*
X583500000Y-210500000D03*
X581500000Y-210500000D03*
%TD*%
D30*
%TO.C,T3*%
X520000000Y-115500000D03*
X525000000Y-115500000D03*
X535000000Y-115500000D03*
X540000000Y-115500000D03*
X540000000Y-95500000D03*
D31*
X520000000Y-95500000D03*
%TD*%
%TO.C,T1*%
X465500000Y-95500000D03*
D30*
X485500000Y-95500000D03*
X485500000Y-115500000D03*
X480500000Y-115500000D03*
X470500000Y-115500000D03*
X465500000Y-115500000D03*
%TD*%
D32*
%TO.C,D1*%
X433920000Y-135000000D03*
D33*
X444080000Y-135000000D03*
%TD*%
D26*
%TO.C,C48*%
X447122858Y-70000000D03*
D25*
X437122858Y-70000000D03*
%TD*%
D34*
%TO.C,R158*%
X529000000Y-136690000D03*
X529000000Y-144310000D03*
%TD*%
%TO.C,R48*%
X586500000Y-137190000D03*
X586500000Y-144810000D03*
%TD*%
D30*
%TO.C,T2*%
X577500000Y-115500000D03*
X582500000Y-115500000D03*
X592500000Y-115500000D03*
X597500000Y-115500000D03*
X597500000Y-95500000D03*
D31*
X577500000Y-95500000D03*
%TD*%
D35*
%TO.C,J26*%
X590000000Y-123500000D03*
D36*
X592500000Y-123500000D03*
X595000000Y-123500000D03*
X597500000Y-123500000D03*
%TD*%
D34*
%TO.C,R44*%
X475000000Y-144810000D03*
X475000000Y-137190000D03*
%TD*%
D37*
%TO.C,M8*%
X466500000Y-131070000D03*
D38*
X463960000Y-147730000D03*
D39*
X466500000Y-147730000D03*
X469040000Y-147730000D03*
%TD*%
D35*
%TO.C,J17*%
X478000000Y-123500000D03*
D36*
X480500000Y-123500000D03*
X483000000Y-123500000D03*
X485500000Y-123500000D03*
%TD*%
D37*
%TO.C,M7*%
X490310000Y-131000000D03*
D38*
X487770000Y-147660000D03*
D39*
X490310000Y-147660000D03*
X492850000Y-147660000D03*
%TD*%
D40*
%TO.C,J18*%
X472250000Y-84277500D03*
D41*
X479750000Y-84277500D03*
%TD*%
D16*
%TO.C,TP17*%
X514500000Y-187000000D03*
%TD*%
D27*
%TO.C,J52*%
X437277500Y-111750000D03*
D13*
X437277500Y-119250000D03*
%TD*%
D27*
%TO.C,J51*%
X437277500Y-91750000D03*
D13*
X437277500Y-99250000D03*
%TD*%
D42*
%TO.C,J50*%
X439250000Y-186290000D03*
D43*
X439250000Y-193910000D03*
X439250000Y-201530000D03*
X439250000Y-209150000D03*
%TD*%
D16*
%TO.C,TP53*%
X530265000Y-204115000D03*
%TD*%
%TO.C,TP42*%
X440875000Y-169980000D03*
%TD*%
%TO.C,TP55*%
X531787500Y-171585000D03*
%TD*%
%TO.C,TP57*%
X556287500Y-176835000D03*
%TD*%
%TO.C,TP58*%
X558037500Y-161085000D03*
%TD*%
%TO.C,TP56*%
X532287500Y-159335000D03*
%TD*%
%TO.C,TP50*%
X510450000Y-160830000D03*
%TD*%
%TO.C,TP49*%
X508950000Y-176830000D03*
%TD*%
%TO.C,TP47*%
X483700000Y-173885000D03*
%TD*%
%TO.C,TP48*%
X484700000Y-159330000D03*
%TD*%
%TO.C,TP34*%
X439125000Y-174730000D03*
%TD*%
D11*
%TO.C,R178*%
X634500000Y-106500000D03*
X642120000Y-106500000D03*
%TD*%
D16*
%TO.C,TP63*%
X520000000Y-32500000D03*
%TD*%
D11*
%TO.C,R197*%
X596250000Y-55060000D03*
X596250000Y-47440000D03*
%TD*%
D44*
%TO.C,J40*%
X510500000Y-59000000D03*
%TD*%
D11*
%TO.C,R201*%
X625500000Y-58690000D03*
X625500000Y-66310000D03*
%TD*%
D44*
%TO.C,J42*%
X498500000Y-59000000D03*
%TD*%
D11*
%TO.C,R192*%
X596250000Y-38440000D03*
X588630000Y-38440000D03*
%TD*%
D16*
%TO.C,TP33*%
X465375000Y-160730000D03*
%TD*%
%TO.C,TP67*%
X484250000Y-32250000D03*
%TD*%
D11*
%TO.C,R196*%
X619810000Y-66250000D03*
X612190000Y-66250000D03*
%TD*%
D44*
%TO.C,J41*%
X504000000Y-67500000D03*
%TD*%
D11*
%TO.C,R206*%
X625620000Y-38500000D03*
X618000000Y-38500000D03*
%TD*%
D16*
%TO.C,TP32*%
X463787500Y-176635000D03*
%TD*%
%TO.C,TP51*%
X515035000Y-203385000D03*
%TD*%
%TO.C,TP45*%
X462265000Y-186115000D03*
%TD*%
%TO.C,TP41*%
X485487500Y-184715000D03*
%TD*%
%TO.C,TP52*%
X538515000Y-191365000D03*
%TD*%
%TO.C,TP69*%
X447000000Y-94000000D03*
%TD*%
%TO.C,TP71*%
X630060000Y-43250000D03*
%TD*%
D37*
%TO.C,M10*%
X545000000Y-130810000D03*
D38*
X542460000Y-147470000D03*
D39*
X545000000Y-147470000D03*
X547540000Y-147470000D03*
%TD*%
D18*
%TO.C,U18*%
X534440000Y-31450000D03*
D17*
X531900000Y-31450000D03*
X529360000Y-31450000D03*
X529360000Y-39070000D03*
X534440000Y-39070000D03*
%TD*%
D11*
%TO.C,R203*%
X625620000Y-47440000D03*
X625620000Y-55060000D03*
%TD*%
D16*
%TO.C,TP35*%
X489675000Y-203490000D03*
%TD*%
%TO.C,TP68*%
X561500000Y-146500000D03*
%TD*%
D11*
%TO.C,R167*%
X471250000Y-42750000D03*
X463630000Y-42750000D03*
%TD*%
D16*
%TO.C,TP43*%
X459765000Y-198615000D03*
%TD*%
%TO.C,TP61*%
X465500000Y-31500000D03*
%TD*%
%TO.C,TP72*%
X656500000Y-43250000D03*
%TD*%
D11*
%TO.C,R181*%
X615837500Y-191330000D03*
X615837500Y-183710000D03*
%TD*%
%TO.C,R182*%
X634750000Y-191750000D03*
X642370000Y-191750000D03*
%TD*%
%TO.C,R179*%
X645027500Y-106520000D03*
X652647500Y-106520000D03*
%TD*%
D14*
%TO.C,J35*%
X513500000Y-25000000D03*
D15*
X515500000Y-25000000D03*
X517500000Y-25000000D03*
X519500000Y-25000000D03*
%TD*%
D11*
%TO.C,C50*%
X594940000Y-34440000D03*
X589940000Y-34440000D03*
%TD*%
D41*
%TO.C,J29*%
X534440000Y-84087500D03*
D40*
X526940000Y-84087500D03*
%TD*%
D16*
%TO.C,TP64*%
X609000000Y-189250000D03*
%TD*%
%TO.C,TP31*%
X439787500Y-159135000D03*
%TD*%
D11*
%TO.C,R205*%
X625620000Y-43500000D03*
X618000000Y-43500000D03*
%TD*%
D37*
%TO.C,M12*%
X602500000Y-130810000D03*
D38*
X599960000Y-147470000D03*
D39*
X602500000Y-147470000D03*
X605040000Y-147470000D03*
%TD*%
D38*
%TO.C,U15*%
X436420000Y-147500000D03*
D39*
X438960000Y-147500000D03*
X441500000Y-147500000D03*
%TD*%
D16*
%TO.C,TP70*%
X600690000Y-43190000D03*
%TD*%
D11*
%TO.C,R185*%
X645250000Y-184250000D03*
X652870000Y-184250000D03*
%TD*%
%TO.C,R180*%
X616087500Y-113830000D03*
X616087500Y-106210000D03*
%TD*%
%TO.C,R198*%
X596190000Y-58630000D03*
X596190000Y-66250000D03*
%TD*%
%TO.C,R199*%
X591560000Y-66250000D03*
X583940000Y-66250000D03*
%TD*%
%TO.C,R168*%
X471250000Y-38500000D03*
X463630000Y-38500000D03*
%TD*%
D44*
%TO.C,J48*%
X559500000Y-59000000D03*
%TD*%
%TO.C,J45*%
X534500000Y-59000000D03*
%TD*%
D16*
%TO.C,TP65*%
X615000000Y-118000000D03*
%TD*%
D35*
%TO.C,J28*%
X532500000Y-123500000D03*
D36*
X535000000Y-123500000D03*
X537500000Y-123500000D03*
X540000000Y-123500000D03*
%TD*%
D41*
%TO.C,J30*%
X591940000Y-84087500D03*
D40*
X584440000Y-84087500D03*
%TD*%
D44*
%TO.C,J46*%
X546500000Y-59000000D03*
%TD*%
D21*
%TO.C,J33*%
X517037500Y-210635000D03*
D15*
X515037500Y-210635000D03*
X513037500Y-210635000D03*
X511037500Y-210635000D03*
X509037500Y-210635000D03*
X507037500Y-210635000D03*
X505037500Y-210635000D03*
X503037500Y-210635000D03*
%TD*%
D11*
%TO.C,C51*%
X624310000Y-34500000D03*
X619310000Y-34500000D03*
%TD*%
D44*
%TO.C,J47*%
X553000000Y-67500000D03*
%TD*%
D37*
%TO.C,M11*%
X578690000Y-130880000D03*
D38*
X576150000Y-147540000D03*
D39*
X578690000Y-147540000D03*
X581230000Y-147540000D03*
%TD*%
D16*
%TO.C,TP44*%
X463487500Y-209715000D03*
%TD*%
%TO.C,TP46*%
X473975000Y-208190000D03*
%TD*%
D18*
%TO.C,U14*%
X458750000Y-31250000D03*
D17*
X456210000Y-31250000D03*
X453670000Y-31250000D03*
X453670000Y-38870000D03*
X458750000Y-38870000D03*
%TD*%
D44*
%TO.C,J43*%
X521500000Y-59000000D03*
%TD*%
D16*
%TO.C,TP60*%
X503000000Y-146500000D03*
%TD*%
D11*
%TO.C,R191*%
X596250000Y-43440000D03*
X588630000Y-43440000D03*
%TD*%
D16*
%TO.C,TP36*%
X489675000Y-210890000D03*
%TD*%
D44*
%TO.C,J44*%
X528500000Y-67500000D03*
%TD*%
D11*
%TO.C,R184*%
X634750000Y-184250000D03*
X642370000Y-184250000D03*
%TD*%
D16*
%TO.C,TP54*%
X536512500Y-185115000D03*
%TD*%
D11*
%TO.C,R177*%
X645250000Y-114020000D03*
X652870000Y-114020000D03*
%TD*%
%TO.C,R176*%
X642120000Y-114000000D03*
X634500000Y-114000000D03*
%TD*%
D37*
%TO.C,M9*%
X521190000Y-130880000D03*
D38*
X518650000Y-147540000D03*
D39*
X521190000Y-147540000D03*
X523730000Y-147540000D03*
%TD*%
D11*
%TO.C,R183*%
X645500000Y-191750000D03*
X653120000Y-191750000D03*
%TD*%
D20*
%TO.C,J16*%
X385065000Y-75065000D03*
X385065000Y-80935000D03*
X390935000Y-75065000D03*
X390935000Y-80935000D03*
%TD*%
D11*
%TO.C,R172*%
X492060000Y-42750000D03*
X484440000Y-42750000D03*
%TD*%
%TO.C,R220*%
X634750000Y-133520000D03*
X642370000Y-133520000D03*
%TD*%
%TO.C,R227*%
X616087500Y-211330000D03*
X616087500Y-203710000D03*
%TD*%
D12*
%TO.C,J38*%
X658222500Y-192000000D03*
D13*
X658222500Y-184500000D03*
%TD*%
D12*
%TO.C,J37*%
X657972500Y-114250000D03*
D13*
X657972500Y-106750000D03*
%TD*%
%TO.C,J19*%
X657972500Y-126250000D03*
D12*
X657972500Y-133750000D03*
%TD*%
M02*
