%TF.GenerationSoftware,KiCad,Pcbnew,9.0.3*%
%TF.CreationDate,2025-10-05T23:01:11+02:00*%
%TF.ProjectId,Cur_Emul,4375725f-456d-4756-9c2e-6b696361645f,rev?*%
%TF.SameCoordinates,Original*%
%TF.FileFunction,Soldermask,Top*%
%TF.FilePolarity,Negative*%
%FSLAX46Y46*%
G04 Gerber Fmt 4.6, Leading zero omitted, Abs format (unit mm)*
G04 Created by KiCad (PCBNEW 9.0.3) date 2025-10-05 23:01:11*
%MOMM*%
%LPD*%
G01*
G04 APERTURE LIST*
G04 Aperture macros list*
%AMRoundRect*
0 Rectangle with rounded corners*
0 $1 Rounding radius*
0 $2 $3 $4 $5 $6 $7 $8 $9 X,Y pos of 4 corners*
0 Add a 4 corners polygon primitive as box body*
4,1,4,$2,$3,$4,$5,$6,$7,$8,$9,$2,$3,0*
0 Add four circle primitives for the rounded corners*
1,1,$1+$1,$2,$3*
1,1,$1+$1,$4,$5*
1,1,$1+$1,$6,$7*
1,1,$1+$1,$8,$9*
0 Add four rect primitives between the rounded corners*
20,1,$1+$1,$2,$3,$4,$5,0*
20,1,$1+$1,$4,$5,$6,$7,0*
20,1,$1+$1,$6,$7,$8,$9,0*
20,1,$1+$1,$8,$9,$2,$3,0*%
%AMFreePoly0*
4,1,6,1.000000,0.000000,0.500000,-0.750000,-0.500000,-0.750000,-0.500000,0.750000,0.500000,0.750000,1.000000,0.000000,1.000000,0.000000,$1*%
%AMFreePoly1*
4,1,23,0.500000,-0.750000,0.000000,-0.750000,0.000000,-0.745722,-0.065263,-0.745722,-0.191342,-0.711940,-0.304381,-0.646677,-0.396677,-0.554381,-0.461940,-0.441342,-0.495722,-0.315263,-0.495722,-0.250000,-0.500000,-0.250000,-0.500000,0.250000,-0.495722,0.250000,-0.495722,0.315263,-0.461940,0.441342,-0.396677,0.554381,-0.304381,0.646677,-0.191342,0.711940,-0.065263,0.745722,0.000000,0.745722,
0.000000,0.750000,0.500000,0.750000,0.500000,-0.750000,0.500000,-0.750000,$1*%
%AMFreePoly2*
4,1,23,0.000000,0.745722,0.065263,0.745722,0.191342,0.711940,0.304381,0.646677,0.396677,0.554381,0.461940,0.441342,0.495722,0.315263,0.495722,0.250000,0.500000,0.250000,0.500000,-0.250000,0.495722,-0.250000,0.495722,-0.315263,0.461940,-0.441342,0.396677,-0.554381,0.304381,-0.646677,0.191342,-0.711940,0.065263,-0.745722,0.000000,-0.745722,0.000000,-0.750000,-0.500000,-0.750000,
-0.500000,0.750000,0.000000,0.750000,0.000000,0.745722,0.000000,0.745722,$1*%
G04 Aperture macros list end*
%ADD10C,1.000000*%
%ADD11C,0.100000*%
%ADD12C,0.550000*%
%ADD13RoundRect,0.250000X-0.350000X-0.450000X0.350000X-0.450000X0.350000X0.450000X-0.350000X0.450000X0*%
%ADD14C,1.600000*%
%ADD15R,1.700000X1.700000*%
%ADD16RoundRect,0.250000X0.350000X0.450000X-0.350000X0.450000X-0.350000X-0.450000X0.350000X-0.450000X0*%
%ADD17RoundRect,0.250000X-1.550000X0.750000X-1.550000X-0.750000X1.550000X-0.750000X1.550000X0.750000X0*%
%ADD18O,3.600000X2.000000*%
%ADD19RoundRect,0.250000X1.350000X-1.350000X1.350000X1.350000X-1.350000X1.350000X-1.350000X-1.350000X0*%
%ADD20C,3.200000*%
%ADD21RoundRect,0.250000X-1.050000X-0.550000X1.050000X-0.550000X1.050000X0.550000X-1.050000X0.550000X0*%
%ADD22FreePoly0,180.000000*%
%ADD23FreePoly0,0.000000*%
%ADD24RoundRect,0.250000X0.337500X0.475000X-0.337500X0.475000X-0.337500X-0.475000X0.337500X-0.475000X0*%
%ADD25RoundRect,0.250000X1.050000X0.550000X-1.050000X0.550000X-1.050000X-0.550000X1.050000X-0.550000X0*%
%ADD26C,3.600000*%
%ADD27R,2.500000X4.500000*%
%ADD28O,2.500000X4.500000*%
%ADD29RoundRect,0.250000X-0.337500X-0.475000X0.337500X-0.475000X0.337500X0.475000X-0.337500X0.475000X0*%
%ADD30RoundRect,0.150000X-0.825000X-0.150000X0.825000X-0.150000X0.825000X0.150000X-0.825000X0.150000X0*%
%ADD31RoundRect,0.250000X-0.450000X0.350000X-0.450000X-0.350000X0.450000X-0.350000X0.450000X0.350000X0*%
%ADD32RoundRect,0.250000X0.400000X0.750000X-0.400000X0.750000X-0.400000X-0.750000X0.400000X-0.750000X0*%
%ADD33RoundRect,0.250000X0.750000X0.750000X-0.750000X0.750000X-0.750000X-0.750000X0.750000X-0.750000X0*%
%ADD34C,2.000000*%
%ADD35RoundRect,0.250000X-0.750000X-1.550000X0.750000X-1.550000X0.750000X1.550000X-0.750000X1.550000X0*%
%ADD36O,2.000000X3.600000*%
%ADD37RoundRect,0.250000X0.550000X0.550000X-0.550000X0.550000X-0.550000X-0.550000X0.550000X-0.550000X0*%
%ADD38RoundRect,0.250000X-0.412500X-0.650000X0.412500X-0.650000X0.412500X0.650000X-0.412500X0.650000X0*%
%ADD39RoundRect,0.250000X1.000000X0.650000X-1.000000X0.650000X-1.000000X-0.650000X1.000000X-0.650000X0*%
%ADD40RoundRect,0.249999X-0.850001X-0.850001X0.850001X-0.850001X0.850001X0.850001X-0.850001X0.850001X0*%
%ADD41C,2.200000*%
%ADD42C,3.000000*%
%ADD43FreePoly1,270.000000*%
%ADD44FreePoly2,270.000000*%
%ADD45C,1.000000*%
%ADD46C,3.500000*%
%ADD47R,1.905000X2.000000*%
%ADD48O,1.905000X2.000000*%
%ADD49RoundRect,0.150000X0.825000X0.150000X-0.825000X0.150000X-0.825000X-0.150000X0.825000X-0.150000X0*%
%ADD50RoundRect,0.250000X0.450000X-0.350000X0.450000X0.350000X-0.450000X0.350000X-0.450000X-0.350000X0*%
%ADD51RoundRect,0.250000X1.350000X1.350000X-1.350000X1.350000X-1.350000X-1.350000X1.350000X-1.350000X0*%
%ADD52RoundRect,0.250000X1.550000X-0.750000X1.550000X0.750000X-1.550000X0.750000X-1.550000X-0.750000X0*%
%ADD53RoundRect,0.250000X0.412500X0.650000X-0.412500X0.650000X-0.412500X-0.650000X0.412500X-0.650000X0*%
%ADD54RoundRect,0.250000X0.450000X-0.325000X0.450000X0.325000X-0.450000X0.325000X-0.450000X-0.325000X0*%
%ADD55R,3.940000X5.840000*%
%ADD56RoundRect,0.375000X-0.625000X-0.375000X0.625000X-0.375000X0.625000X0.375000X-0.625000X0.375000X0*%
%ADD57RoundRect,0.500000X-0.500000X-1.400000X0.500000X-1.400000X0.500000X1.400000X-0.500000X1.400000X0*%
%ADD58C,2.400000*%
%ADD59RoundRect,0.250000X-0.550000X0.550000X-0.550000X-0.550000X0.550000X-0.550000X0.550000X0.550000X0*%
%ADD60RoundRect,0.250000X0.350000X0.625000X-0.350000X0.625000X-0.350000X-0.625000X0.350000X-0.625000X0*%
%ADD61O,1.200000X1.750000*%
%ADD62RoundRect,0.250000X-0.350000X-0.625000X0.350000X-0.625000X0.350000X0.625000X-0.350000X0.625000X0*%
%ADD63R,2.300000X2.300000*%
%ADD64C,2.300000*%
%ADD65RoundRect,0.250000X0.750000X1.550000X-0.750000X1.550000X-0.750000X-1.550000X0.750000X-1.550000X0*%
%ADD66RoundRect,0.250000X-0.600000X-0.725000X0.600000X-0.725000X0.600000X0.725000X-0.600000X0.725000X0*%
%ADD67O,1.700000X1.950000*%
%ADD68RoundRect,0.250000X1.750000X1.750000X-1.750000X1.750000X-1.750000X-1.750000X1.750000X-1.750000X0*%
%ADD69C,4.000000*%
%ADD70RoundRect,0.250000X1.500000X0.550000X-1.500000X0.550000X-1.500000X-0.550000X1.500000X-0.550000X0*%
%TA.AperFunction,Profile*%
%ADD71C,0.050000*%
%TD*%
G04 APERTURE END LIST*
D10*
X373500000Y-51000000D02*
X330500000Y-23500000D01*
X140500000Y-60000000D02*
X157500000Y-35000000D01*
D11*
X210500000Y-117000000D02*
X210500000Y-114000000D01*
D12*
X56275000Y-159500000D02*
G75*
G02*
X55725000Y-159500000I-275000J0D01*
G01*
X55725000Y-159500000D02*
G75*
G02*
X56275000Y-159500000I275000J0D01*
G01*
D10*
X283500000Y-60000000D02*
X283500000Y-53750000D01*
D12*
X52275000Y-166000000D02*
G75*
G02*
X51725000Y-166000000I-275000J0D01*
G01*
X51725000Y-166000000D02*
G75*
G02*
X52275000Y-166000000I275000J0D01*
G01*
X50275000Y-122000000D02*
G75*
G02*
X49725000Y-122000000I-275000J0D01*
G01*
X49725000Y-122000000D02*
G75*
G02*
X50275000Y-122000000I275000J0D01*
G01*
D10*
X49500000Y-60000000D02*
X49500000Y-51500000D01*
X229000000Y-83500000D02*
X243500000Y-80500000D01*
X202000000Y-22500000D02*
X227500000Y-83500000D01*
X272000000Y-83000000D02*
X268000000Y-86500000D01*
D12*
X57775000Y-127500000D02*
G75*
G02*
X57225000Y-127500000I-275000J0D01*
G01*
X57225000Y-127500000D02*
G75*
G02*
X57775000Y-127500000I275000J0D01*
G01*
D10*
X248000000Y-110000000D02*
X279500000Y-110000000D01*
D11*
X144500000Y-94500000D02*
X124000000Y-94500000D01*
D12*
X46775000Y-165000000D02*
G75*
G02*
X46225000Y-165000000I-275000J0D01*
G01*
X46225000Y-165000000D02*
G75*
G02*
X46775000Y-165000000I275000J0D01*
G01*
D10*
X300500000Y-32500000D02*
X266000000Y-32500000D01*
X317000000Y-83000000D02*
X323000000Y-83000000D01*
D12*
X59275000Y-132500000D02*
G75*
G02*
X58725000Y-132500000I-275000J0D01*
G01*
X58725000Y-132500000D02*
G75*
G02*
X59275000Y-132500000I275000J0D01*
G01*
D10*
X124000000Y-89000000D02*
X135500000Y-77000000D01*
X313000000Y-87000000D02*
X317000000Y-83000000D01*
X333500000Y-103500000D02*
X333500000Y-93500000D01*
X264000000Y-23500000D02*
X245000000Y-73000000D01*
X120500000Y-28500000D02*
X193500000Y-28500000D01*
X218500000Y-119000000D02*
X219500000Y-117500000D01*
D11*
X378250000Y-109500000D02*
X378250000Y-93500000D01*
D10*
X218500000Y-119000000D02*
X137500000Y-119000000D01*
D12*
X55775000Y-123500000D02*
G75*
G02*
X55225000Y-123500000I-275000J0D01*
G01*
X55225000Y-123500000D02*
G75*
G02*
X55775000Y-123500000I275000J0D01*
G01*
X57775000Y-134000000D02*
G75*
G02*
X57225000Y-134000000I-275000J0D01*
G01*
X57225000Y-134000000D02*
G75*
G02*
X57775000Y-134000000I275000J0D01*
G01*
X56275000Y-166000000D02*
G75*
G02*
X55725000Y-166000000I-275000J0D01*
G01*
X55725000Y-166000000D02*
G75*
G02*
X56275000Y-166000000I275000J0D01*
G01*
D10*
X156250000Y-69000000D02*
X156250000Y-75000000D01*
D12*
X54275000Y-163000000D02*
G75*
G02*
X53725000Y-163000000I-275000J0D01*
G01*
X53725000Y-163000000D02*
G75*
G02*
X54275000Y-163000000I275000J0D01*
G01*
D10*
X157500000Y-35000000D02*
X188000000Y-35000000D01*
D11*
X361500000Y-44000000D02*
X361500000Y-43000000D01*
X315500000Y-117000000D02*
X314750000Y-117000000D01*
D10*
X246500000Y-117000000D02*
X242000000Y-110000000D01*
D12*
X56275000Y-163000000D02*
G75*
G02*
X55725000Y-163000000I-275000J0D01*
G01*
X55725000Y-163000000D02*
G75*
G02*
X56275000Y-163000000I275000J0D01*
G01*
X57775000Y-132500000D02*
G75*
G02*
X57225000Y-132500000I-275000J0D01*
G01*
X57225000Y-132500000D02*
G75*
G02*
X57775000Y-132500000I275000J0D01*
G01*
D10*
X88000000Y-83000000D02*
X84000000Y-83000000D01*
X315500000Y-117000000D02*
X317000000Y-117000000D01*
D12*
X50275000Y-120500000D02*
G75*
G02*
X49725000Y-120500000I-275000J0D01*
G01*
X49725000Y-120500000D02*
G75*
G02*
X50275000Y-120500000I275000J0D01*
G01*
D10*
X315500000Y-117000000D02*
X246500000Y-117000000D01*
D12*
X59275000Y-131000000D02*
G75*
G02*
X58725000Y-131000000I-275000J0D01*
G01*
X58725000Y-131000000D02*
G75*
G02*
X59275000Y-131000000I275000J0D01*
G01*
D10*
X358000000Y-85000000D02*
X360000000Y-83000000D01*
D12*
X56275000Y-164500000D02*
G75*
G02*
X55725000Y-164500000I-275000J0D01*
G01*
X55725000Y-164500000D02*
G75*
G02*
X56275000Y-164500000I275000J0D01*
G01*
D10*
X188000000Y-35000000D02*
X219500000Y-84500000D01*
X346000000Y-76250000D02*
X346000000Y-68750000D01*
X328500000Y-54000000D02*
X320000000Y-47500000D01*
X210500000Y-114000000D02*
X218500000Y-116000000D01*
X172500000Y-98000000D02*
X169000000Y-101500000D01*
X210500000Y-114000000D02*
X151500000Y-114000000D01*
X385500000Y-62000000D02*
X379500000Y-62000000D01*
X328500000Y-60000000D02*
X328500000Y-54000000D01*
X244500000Y-72500000D02*
X244500000Y-51000000D01*
X37000000Y-83000000D02*
X34000000Y-87000000D01*
D12*
X57775000Y-129500000D02*
G75*
G02*
X57225000Y-129500000I-275000J0D01*
G01*
X57225000Y-129500000D02*
G75*
G02*
X57775000Y-129500000I275000J0D01*
G01*
D10*
X219000000Y-124000000D02*
X128000000Y-124000000D01*
X97000000Y-51500000D02*
X120500000Y-28500000D01*
D12*
X54275000Y-164500000D02*
G75*
G02*
X53725000Y-164500000I-275000J0D01*
G01*
X53725000Y-164500000D02*
G75*
G02*
X54275000Y-164500000I275000J0D01*
G01*
X55775000Y-125000000D02*
G75*
G02*
X55225000Y-125000000I-275000J0D01*
G01*
X55225000Y-125000000D02*
G75*
G02*
X55775000Y-125000000I275000J0D01*
G01*
D10*
X185000000Y-98000000D02*
X172500000Y-98000000D01*
X330500000Y-23500000D02*
X264000000Y-23500000D01*
D12*
X55775000Y-120500000D02*
G75*
G02*
X55225000Y-120500000I-275000J0D01*
G01*
X55225000Y-120500000D02*
G75*
G02*
X55775000Y-120500000I275000J0D01*
G01*
D10*
X182250000Y-108500000D02*
X169750000Y-108500000D01*
X277500000Y-83000000D02*
X272000000Y-83000000D01*
X360000000Y-83000000D02*
X368500000Y-83000000D01*
X279500000Y-110000000D02*
X288000000Y-94500000D01*
D12*
X50765000Y-167000000D02*
G75*
G02*
X50215000Y-167000000I-275000J0D01*
G01*
X50215000Y-167000000D02*
G75*
G02*
X50765000Y-167000000I275000J0D01*
G01*
X56275000Y-161000000D02*
G75*
G02*
X55725000Y-161000000I-275000J0D01*
G01*
X55725000Y-161000000D02*
G75*
G02*
X56275000Y-161000000I275000J0D01*
G01*
D10*
X137500000Y-119000000D02*
X100500000Y-94500000D01*
D12*
X48625000Y-165630000D02*
G75*
G02*
X48075000Y-165630000I-275000J0D01*
G01*
X48075000Y-165630000D02*
G75*
G02*
X48625000Y-165630000I275000J0D01*
G01*
D10*
X64500000Y-107000000D02*
X55000000Y-93500000D01*
D12*
X56275000Y-157500000D02*
G75*
G02*
X55725000Y-157500000I-275000J0D01*
G01*
X55725000Y-157500000D02*
G75*
G02*
X56275000Y-157500000I275000J0D01*
G01*
D10*
X319250000Y-122000000D02*
X225750000Y-122000000D01*
D12*
X55775000Y-122000000D02*
G75*
G02*
X55225000Y-122000000I-275000J0D01*
G01*
X55225000Y-122000000D02*
G75*
G02*
X55775000Y-122000000I275000J0D01*
G01*
D10*
X49500000Y-51500000D02*
X78500000Y-22500000D01*
X390750000Y-74000000D02*
X390750000Y-66000000D01*
D12*
X52275000Y-164500000D02*
G75*
G02*
X51725000Y-164500000I-275000J0D01*
G01*
X51725000Y-164500000D02*
G75*
G02*
X52275000Y-164500000I275000J0D01*
G01*
D10*
X320000000Y-47500000D02*
X300500000Y-32500000D01*
X124000000Y-94500000D02*
X124000000Y-89000000D01*
X301000000Y-75750000D02*
X301000000Y-68250000D01*
X378250000Y-109500000D02*
X378250000Y-93500000D01*
X294500000Y-62000000D02*
X289000000Y-62000000D01*
X177500000Y-50500000D02*
X163000000Y-60500000D01*
X97000000Y-51500000D02*
X95000000Y-60000000D01*
D12*
X55775000Y-126500000D02*
G75*
G02*
X55225000Y-126500000I-275000J0D01*
G01*
X55225000Y-126500000D02*
G75*
G02*
X55775000Y-126500000I275000J0D01*
G01*
D10*
X390750000Y-66000000D02*
X385500000Y-62000000D01*
X266000000Y-32500000D02*
X247000000Y-82000000D01*
X128000000Y-124000000D02*
X64500000Y-107000000D01*
X283500000Y-53750000D02*
X279750000Y-52750000D01*
X317000000Y-117000000D02*
X333500000Y-103500000D01*
X346000000Y-68750000D02*
X339500000Y-62000000D01*
D12*
X54275000Y-166000000D02*
G75*
G02*
X53725000Y-166000000I-275000J0D01*
G01*
X53725000Y-166000000D02*
G75*
G02*
X54275000Y-166000000I275000J0D01*
G01*
D10*
X268000000Y-86500000D02*
X268000000Y-92500000D01*
X319250000Y-122000000D02*
X378250000Y-109500000D01*
D12*
X57775000Y-131000000D02*
G75*
G02*
X57225000Y-131000000I-275000J0D01*
G01*
X57225000Y-131000000D02*
G75*
G02*
X57775000Y-131000000I275000J0D01*
G01*
D10*
X279750000Y-52750000D02*
X269250000Y-52750000D01*
X151500000Y-114000000D02*
X144500000Y-94500000D01*
D12*
X50275000Y-119000000D02*
G75*
G02*
X49725000Y-119000000I-275000J0D01*
G01*
X49725000Y-119000000D02*
G75*
G02*
X50275000Y-119000000I275000J0D01*
G01*
D10*
X149000000Y-62000000D02*
X156250000Y-69250000D01*
X339500000Y-62000000D02*
X334000000Y-62000000D01*
X313000000Y-92500000D02*
X313000000Y-87000000D01*
X60500000Y-62000000D02*
X56000000Y-62000000D01*
X145000000Y-62000000D02*
X149000000Y-62000000D01*
X301000000Y-68250000D02*
X294500000Y-62000000D01*
D12*
X48775000Y-167000000D02*
G75*
G02*
X48225000Y-167000000I-275000J0D01*
G01*
X48225000Y-167000000D02*
G75*
G02*
X48775000Y-167000000I275000J0D01*
G01*
D10*
X78500000Y-22500000D02*
X202000000Y-22500000D01*
X67000000Y-75750000D02*
X67000000Y-68750000D01*
X67000000Y-68750000D02*
X60500000Y-62000000D01*
X79000000Y-87500000D02*
X79000000Y-94500000D01*
X84000000Y-83000000D02*
X79000000Y-87500000D01*
X163000000Y-60500000D02*
X163000000Y-101500000D01*
X226000000Y-115500000D02*
X240000000Y-109500000D01*
D12*
X59275000Y-134000000D02*
G75*
G02*
X58725000Y-134000000I-275000J0D01*
G01*
X58725000Y-134000000D02*
G75*
G02*
X59275000Y-134000000I275000J0D01*
G01*
D10*
X373500000Y-60500000D02*
X373500000Y-51000000D01*
X43500000Y-83000000D02*
X37000000Y-83000000D01*
D12*
X52275000Y-163000000D02*
G75*
G02*
X51725000Y-163000000I-275000J0D01*
G01*
X51725000Y-163000000D02*
G75*
G02*
X52275000Y-163000000I275000J0D01*
G01*
D10*
X112000000Y-67500000D02*
X101250000Y-62250000D01*
X34000000Y-87000000D02*
X34000000Y-93500000D01*
X112000000Y-74750000D02*
X112000000Y-67750000D01*
D12*
X46775000Y-167000000D02*
G75*
G02*
X46225000Y-167000000I-275000J0D01*
G01*
X46225000Y-167000000D02*
G75*
G02*
X46775000Y-167000000I275000J0D01*
G01*
D10*
X185750000Y-104750000D02*
X182250000Y-108250000D01*
X269250000Y-52750000D02*
X251000000Y-79000000D01*
X358000000Y-85000000D02*
X358000000Y-93000000D01*
X193500000Y-28500000D02*
X221500000Y-82500000D01*
D12*
X59275000Y-129500000D02*
G75*
G02*
X58725000Y-129500000I-275000J0D01*
G01*
X58725000Y-129500000D02*
G75*
G02*
X59275000Y-129500000I275000J0D01*
G01*
%TO.C,JP7*%
G36*
X305085000Y-142500000D02*
G01*
X300085000Y-142500000D01*
X300085000Y-141000000D01*
X305085000Y-141000000D01*
X305085000Y-142500000D01*
G37*
%TO.C,JP13*%
G36*
X122500000Y-167400000D02*
G01*
X127500000Y-167400000D01*
X127500000Y-168900000D01*
X122500000Y-168900000D01*
X122500000Y-167400000D01*
G37*
%TO.C,JP21*%
G36*
X433640000Y-115312500D02*
G01*
X428640000Y-115312500D01*
X428640000Y-113812500D01*
X433640000Y-113812500D01*
X433640000Y-115312500D01*
G37*
%TO.C,JP24*%
G36*
X240000000Y-124700000D02*
G01*
X238500000Y-124700000D01*
X238500000Y-125000000D01*
X240000000Y-125000000D01*
X240000000Y-124700000D01*
G37*
%TO.C,JP17*%
G36*
X515450000Y-167830000D02*
G01*
X510450000Y-167830000D01*
X510450000Y-166330000D01*
X515450000Y-166330000D01*
X515450000Y-167830000D01*
G37*
%TO.C,JP15*%
G36*
X122500000Y-158000000D02*
G01*
X127500000Y-158000000D01*
X127500000Y-159500000D01*
X122500000Y-159500000D01*
X122500000Y-158000000D01*
G37*
%TO.C,JP23*%
G36*
X236250000Y-124700000D02*
G01*
X234750000Y-124700000D01*
X234750000Y-125000000D01*
X236250000Y-125000000D01*
X236250000Y-124700000D01*
G37*
%TO.C,JP14*%
G36*
X470265000Y-167865000D02*
G01*
X465265000Y-167865000D01*
X465265000Y-166365000D01*
X470265000Y-166365000D01*
X470265000Y-167865000D01*
G37*
%TO.C,JP18*%
G36*
X563037500Y-171085000D02*
G01*
X558037500Y-171085000D01*
X558037500Y-169585000D01*
X563037500Y-169585000D01*
X563037500Y-171085000D01*
G37*
%TO.C,JP2*%
G36*
X184693500Y-147820000D02*
G01*
X179693500Y-147820000D01*
X179693500Y-146320000D01*
X184693500Y-146320000D01*
X184693500Y-147820000D01*
G37*
%TO.C,JP11*%
G36*
X52000000Y-134000000D02*
G01*
X47000000Y-134000000D01*
X47000000Y-132500000D01*
X52000000Y-132500000D01*
X52000000Y-134000000D01*
G37*
%TO.C,JP12*%
G36*
X122500000Y-162600000D02*
G01*
X127500000Y-162600000D01*
X127500000Y-164100000D01*
X122500000Y-164100000D01*
X122500000Y-162600000D01*
G37*
%TO.C,JP19*%
G36*
X563037500Y-168085000D02*
G01*
X558037500Y-168085000D01*
X558037500Y-166585000D01*
X563037500Y-166585000D01*
X563037500Y-168085000D01*
G37*
%TO.C,JP20*%
G36*
X232398000Y-124700000D02*
G01*
X230898000Y-124700000D01*
X230898000Y-125000000D01*
X232398000Y-125000000D01*
X232398000Y-124700000D01*
G37*
%TO.C,JP5*%
G36*
X93750000Y-137500000D02*
G01*
X88750000Y-137500000D01*
X88750000Y-136000000D01*
X93750000Y-136000000D01*
X93750000Y-137500000D01*
G37*
%TO.C,JP6*%
G36*
X204040000Y-160452500D02*
G01*
X199040000Y-160452500D01*
X199040000Y-158952500D01*
X204040000Y-158952500D01*
X204040000Y-160452500D01*
G37*
%TO.C,JP10*%
G36*
X470337500Y-170635000D02*
G01*
X465337500Y-170635000D01*
X465337500Y-169135000D01*
X470337500Y-169135000D01*
X470337500Y-170635000D01*
G37*
%TO.C,JP16*%
G36*
X515450000Y-170830000D02*
G01*
X510450000Y-170830000D01*
X510450000Y-169330000D01*
X515450000Y-169330000D01*
X515450000Y-170830000D01*
G37*
%TO.C,JP22*%
G36*
X43000000Y-139500000D02*
G01*
X38000000Y-139500000D01*
X38000000Y-138000000D01*
X43000000Y-138000000D01*
X43000000Y-139500000D01*
G37*
%TO.C,JP1*%
G36*
X66600000Y-133250000D02*
G01*
X61600000Y-133250000D01*
X61600000Y-131750000D01*
X66600000Y-131750000D01*
X66600000Y-133250000D01*
G37*
%TO.C,JP8*%
G36*
X304230000Y-151470000D02*
G01*
X299230000Y-151470000D01*
X299230000Y-149970000D01*
X304230000Y-149970000D01*
X304230000Y-151470000D01*
G37*
%TO.C,JP3*%
G36*
X65750000Y-142000000D02*
G01*
X60750000Y-142000000D01*
X60750000Y-140500000D01*
X65750000Y-140500000D01*
X65750000Y-142000000D01*
G37*
%TO.C,JP9*%
G36*
X324010000Y-155762500D02*
G01*
X319010000Y-155762500D01*
X319010000Y-154262500D01*
X324010000Y-154262500D01*
X324010000Y-155762500D01*
G37*
%TO.C,JP4*%
G36*
X184293500Y-155903000D02*
G01*
X179293500Y-155903000D01*
X179293500Y-154403000D01*
X184293500Y-154403000D01*
X184293500Y-155903000D01*
G37*
%TD*%
D13*
%TO.C,R95*%
X484237500Y-194965000D03*
X486237500Y-194965000D03*
%TD*%
D14*
%TO.C,R204*%
X645250000Y-173020000D03*
X652870000Y-173020000D03*
%TD*%
D15*
%TO.C,J60*%
X524750000Y-123500000D03*
%TD*%
D16*
%TO.C,R115*%
X469837500Y-199515000D03*
X467837500Y-199515000D03*
%TD*%
D13*
%TO.C,R97*%
X96100000Y-151050000D03*
X98100000Y-151050000D03*
%TD*%
D17*
%TO.C,J80*%
X439377500Y-186050000D03*
D18*
X439377500Y-193550000D03*
%TD*%
D19*
%TO.C,D26*%
X24700000Y-109095000D03*
D20*
X24700000Y-93855000D03*
%TD*%
D13*
%TO.C,R28*%
X64090000Y-135570000D03*
X66090000Y-135570000D03*
%TD*%
%TO.C,R144*%
X541300000Y-162325000D03*
X543300000Y-162325000D03*
%TD*%
D21*
%TO.C,C14*%
X69336000Y-127019000D03*
X72936000Y-127019000D03*
%TD*%
D16*
%TO.C,R71*%
X200850000Y-152040000D03*
X198850000Y-152040000D03*
%TD*%
D22*
%TO.C,JP7*%
X304585000Y-141750000D03*
D23*
X300585000Y-141750000D03*
%TD*%
D17*
%TO.C,J31*%
X27750000Y-147000000D03*
D18*
X27750000Y-154500000D03*
%TD*%
D14*
%TO.C,R231*%
X645277500Y-203770000D03*
X652897500Y-203770000D03*
%TD*%
D13*
%TO.C,R32*%
X181993500Y-149960000D03*
X183993500Y-149960000D03*
%TD*%
D20*
%TO.C,J22*%
X244565000Y-79935000D03*
X250435000Y-79935000D03*
X244565000Y-74065000D03*
X250435000Y-74065000D03*
%TD*%
D24*
%TO.C,C42*%
X524537500Y-189000000D03*
X522462500Y-189000000D03*
%TD*%
D25*
%TO.C,C45*%
X479300000Y-188500000D03*
X475700000Y-188500000D03*
%TD*%
D26*
%TO.C,M4*%
X283450000Y-42140000D03*
D27*
X278000000Y-62000000D03*
D28*
X283450000Y-62000000D03*
X288900000Y-62000000D03*
%TD*%
D29*
%TO.C,C5*%
X448687500Y-164975000D03*
X450762500Y-164975000D03*
%TD*%
D30*
%TO.C,U5*%
X103975000Y-159250000D03*
X103975000Y-160520000D03*
X103975000Y-161790000D03*
X103975000Y-163060000D03*
X103975000Y-164330000D03*
X103975000Y-165600000D03*
X103975000Y-166870000D03*
X108925000Y-166870000D03*
X108925000Y-165600000D03*
X108925000Y-164330000D03*
X108925000Y-163060000D03*
X108925000Y-161790000D03*
X108925000Y-160520000D03*
X108925000Y-159250000D03*
%TD*%
D16*
%TO.C,R116*%
X469775000Y-191090000D03*
X467775000Y-191090000D03*
%TD*%
D31*
%TO.C,R163*%
X84400000Y-159750000D03*
X84400000Y-161750000D03*
%TD*%
D32*
%TO.C,RV2*%
X190743500Y-161453000D03*
D33*
X191893500Y-157453000D03*
D32*
X193043500Y-161453000D03*
%TD*%
D16*
%TO.C,R39*%
X304900000Y-137250000D03*
X302900000Y-137250000D03*
%TD*%
D34*
%TO.C,TP37*%
X49250000Y-136500000D03*
%TD*%
D13*
%TO.C,R77*%
X315075000Y-144800000D03*
X317075000Y-144800000D03*
%TD*%
D32*
%TO.C,RV5*%
X436975000Y-166730000D03*
D33*
X438125000Y-162730000D03*
D32*
X439275000Y-166730000D03*
%TD*%
D29*
%TO.C,C23*%
X105125000Y-157150000D03*
X107200000Y-157150000D03*
%TD*%
D15*
%TO.C,J65*%
X493000000Y-123500000D03*
%TD*%
D34*
%TO.C,TP34*%
X439125000Y-174730000D03*
%TD*%
D14*
%TO.C,R178*%
X634500000Y-106500000D03*
X642120000Y-106500000D03*
%TD*%
D34*
%TO.C,TP63*%
X533200000Y-31300000D03*
%TD*%
D35*
%TO.C,J73*%
X51250000Y-171422500D03*
D36*
X58750000Y-171422500D03*
%TD*%
D37*
%TO.C,U22*%
X630600000Y-169500000D03*
D14*
X630600000Y-166960000D03*
X622980000Y-166960000D03*
X622980000Y-169500000D03*
%TD*%
D38*
%TO.C,C26*%
X249887500Y-157330000D03*
X253012500Y-157330000D03*
%TD*%
D21*
%TO.C,C13*%
X255940000Y-141250000D03*
X259540000Y-141250000D03*
%TD*%
D14*
%TO.C,R197*%
X596250000Y-47440000D03*
X596250000Y-55060000D03*
%TD*%
D39*
%TO.C,D8*%
X98875000Y-154125000D03*
X94875000Y-154125000D03*
%TD*%
D21*
%TO.C,C20*%
X103800000Y-153450000D03*
X107400000Y-153450000D03*
%TD*%
D14*
%TO.C,R228*%
X635000000Y-211270000D03*
X642620000Y-211270000D03*
%TD*%
D35*
%TO.C,J68*%
X552550000Y-46422500D03*
D36*
X560050000Y-46422500D03*
%TD*%
D14*
%TO.C,R17*%
X304785000Y-134250000D03*
X297165000Y-134250000D03*
%TD*%
D15*
%TO.C,J40*%
X510500000Y-59000000D03*
%TD*%
D34*
%TO.C,TP66*%
X622400000Y-156100000D03*
%TD*%
D14*
%TO.C,R201*%
X625500000Y-58690000D03*
X625500000Y-66310000D03*
%TD*%
%TO.C,R13*%
X201503500Y-139653000D03*
X193883500Y-139653000D03*
%TD*%
D34*
%TO.C,TP5*%
X180368500Y-159073000D03*
%TD*%
D15*
%TO.C,J42*%
X498500000Y-59000000D03*
%TD*%
D34*
%TO.C,TP42*%
X440875000Y-169980000D03*
%TD*%
D14*
%TO.C,R192*%
X596250000Y-38440000D03*
X588630000Y-38440000D03*
%TD*%
D32*
%TO.C,RV6*%
X482050000Y-166830000D03*
D33*
X483200000Y-162830000D03*
D32*
X484350000Y-166830000D03*
%TD*%
D23*
%TO.C,JP13*%
X123000000Y-168150000D03*
D22*
X127000000Y-168150000D03*
%TD*%
D35*
%TO.C,J70*%
X456550000Y-52422500D03*
D36*
X464050000Y-52422500D03*
%TD*%
D22*
%TO.C,JP21*%
X433140000Y-114562500D03*
D23*
X429140000Y-114562500D03*
%TD*%
D13*
%TO.C,R52*%
X448650000Y-162675000D03*
X450650000Y-162675000D03*
%TD*%
D34*
%TO.C,TP33*%
X465375000Y-160730000D03*
%TD*%
D14*
%TO.C,R221*%
X645250000Y-133520000D03*
X652870000Y-133520000D03*
%TD*%
D16*
%TO.C,R80*%
X221300000Y-161500000D03*
X219300000Y-161500000D03*
%TD*%
D13*
%TO.C,R35*%
X67400000Y-146500000D03*
X69400000Y-146500000D03*
%TD*%
D32*
%TO.C,RV1*%
X72780000Y-146799000D03*
D33*
X73930000Y-142799000D03*
D32*
X75080000Y-146799000D03*
%TD*%
D17*
%TO.C,J51*%
X436947500Y-83750000D03*
D18*
X436947500Y-91250000D03*
%TD*%
D16*
%TO.C,R57*%
X321720000Y-159160000D03*
X319720000Y-159160000D03*
%TD*%
D34*
%TO.C,TP13*%
X191000000Y-136000000D03*
%TD*%
D16*
%TO.C,R81*%
X214000000Y-165750000D03*
X212000000Y-165750000D03*
%TD*%
D14*
%TO.C,R169*%
X523500000Y-48810000D03*
X523500000Y-41190000D03*
%TD*%
D15*
%TO.C,J64*%
X469750000Y-123500000D03*
%TD*%
D39*
%TO.C,D10*%
X140307500Y-155015000D03*
X136307500Y-155015000D03*
%TD*%
D13*
%TO.C,R99*%
X153800000Y-167790000D03*
X155800000Y-167790000D03*
%TD*%
D34*
%TO.C,TP67*%
X485000000Y-30700000D03*
%TD*%
D14*
%TO.C,R222*%
X634500000Y-126020000D03*
X642120000Y-126020000D03*
%TD*%
D24*
%TO.C,C54*%
X313275000Y-159300000D03*
X311200000Y-159300000D03*
%TD*%
D31*
%TO.C,R216*%
X452640000Y-203060000D03*
X452640000Y-205060000D03*
%TD*%
D14*
%TO.C,R183*%
X645500000Y-191750000D03*
X653120000Y-191750000D03*
%TD*%
D16*
%TO.C,R91*%
X267250000Y-149250000D03*
X265250000Y-149250000D03*
%TD*%
D15*
%TO.C,J59*%
X599000000Y-86750000D03*
%TD*%
D40*
%TO.C,D1*%
X436730000Y-136680000D03*
D41*
X446890000Y-136680000D03*
%TD*%
D13*
%TO.C,R63*%
X80804000Y-137179000D03*
X82804000Y-137179000D03*
%TD*%
D42*
%TO.C,Fiducial*%
X643300000Y-198500000D03*
%TD*%
D13*
%TO.C,R74*%
X265250000Y-146500000D03*
X267250000Y-146500000D03*
%TD*%
%TO.C,R129*%
X508440000Y-162820000D03*
X510440000Y-162820000D03*
%TD*%
%TO.C,R133*%
X530035000Y-191885000D03*
X532035000Y-191885000D03*
%TD*%
D39*
%TO.C,D4*%
X108100000Y-169650000D03*
X104100000Y-169650000D03*
%TD*%
D43*
%TO.C,JP24*%
X239250000Y-124200000D03*
D44*
X239250000Y-125500000D03*
%TD*%
D24*
%TO.C,C6*%
X445912500Y-175050000D03*
X443837500Y-175050000D03*
%TD*%
D13*
%TO.C,R41*%
X302625000Y-145100000D03*
X304625000Y-145100000D03*
%TD*%
D14*
%TO.C,R210*%
X534590000Y-47300000D03*
X542210000Y-47300000D03*
%TD*%
D45*
%TO.C,TP23*%
X91700000Y-154150000D03*
%TD*%
D14*
%TO.C,R196*%
X619810000Y-66250000D03*
X612190000Y-66250000D03*
%TD*%
D22*
%TO.C,JP17*%
X514950000Y-167080000D03*
D23*
X510950000Y-167080000D03*
%TD*%
D46*
%TO.C,M7*%
X490310000Y-131000000D03*
D47*
X487770000Y-147660000D03*
D48*
X490310000Y-147660000D03*
X492850000Y-147660000D03*
%TD*%
D13*
%TO.C,R157*%
X44250000Y-119000000D03*
X46250000Y-119000000D03*
%TD*%
D26*
%TO.C,M1*%
X49450000Y-42140000D03*
D27*
X44000000Y-62000000D03*
D28*
X49450000Y-62000000D03*
X54900000Y-62000000D03*
%TD*%
D13*
%TO.C,R132*%
X529785000Y-200885000D03*
X531785000Y-200885000D03*
%TD*%
%TO.C,R56*%
X462037500Y-173385000D03*
X464037500Y-173385000D03*
%TD*%
D24*
%TO.C,C44*%
X503037500Y-163500000D03*
X500962500Y-163500000D03*
%TD*%
D49*
%TO.C,U10*%
X504450000Y-173100000D03*
X504450000Y-171830000D03*
X504450000Y-170560000D03*
X504450000Y-169290000D03*
X504450000Y-168020000D03*
X504450000Y-166750000D03*
X504450000Y-165480000D03*
X499500000Y-165480000D03*
X499500000Y-166750000D03*
X499500000Y-168020000D03*
X499500000Y-169290000D03*
X499500000Y-170560000D03*
X499500000Y-171830000D03*
X499500000Y-173100000D03*
%TD*%
D20*
%TO.C,J15*%
X363935000Y-99935000D03*
X363935000Y-94065000D03*
X358065000Y-99935000D03*
X358065000Y-94065000D03*
%TD*%
D50*
%TO.C,R161*%
X447200000Y-85300000D03*
X447200000Y-83300000D03*
%TD*%
D15*
%TO.C,J41*%
X504000000Y-67500000D03*
%TD*%
D45*
%TO.C,TP40*%
X133250000Y-166250000D03*
%TD*%
D51*
%TO.C,D25*%
X48020000Y-147500000D03*
D20*
X32780000Y-147500000D03*
%TD*%
D15*
%TO.C,J67*%
X464750000Y-86250000D03*
%TD*%
D14*
%TO.C,R211*%
X652060000Y-47440000D03*
X652060000Y-55060000D03*
%TD*%
D25*
%TO.C,C37*%
X525100000Y-185500000D03*
X521500000Y-185500000D03*
%TD*%
D34*
%TO.C,TP58*%
X558037500Y-161085000D03*
%TD*%
D26*
%TO.C,M2*%
X94450000Y-42140000D03*
D27*
X89000000Y-62000000D03*
D28*
X94450000Y-62000000D03*
X99900000Y-62000000D03*
%TD*%
D19*
%TO.C,D24*%
X432260000Y-134840000D03*
D20*
X432260000Y-119600000D03*
%TD*%
D34*
%TO.C,TP76*%
X622000000Y-212800000D03*
%TD*%
D24*
%TO.C,C55*%
X192975000Y-164000000D03*
X190900000Y-164000000D03*
%TD*%
D52*
%TO.C,J38*%
X658222500Y-192000000D03*
D18*
X658222500Y-184500000D03*
%TD*%
D34*
%TO.C,TP18*%
X71390000Y-120901000D03*
%TD*%
D14*
%TO.C,R206*%
X625620000Y-38500000D03*
X618000000Y-38500000D03*
%TD*%
D34*
%TO.C,TP32*%
X463787500Y-176635000D03*
%TD*%
%TO.C,TP51*%
X515035000Y-203385000D03*
%TD*%
D38*
%TO.C,C29*%
X467112500Y-188390000D03*
X470237500Y-188390000D03*
%TD*%
D34*
%TO.C,TP45*%
X462265000Y-186115000D03*
%TD*%
D13*
%TO.C,R138*%
X534515000Y-202865000D03*
X536515000Y-202865000D03*
%TD*%
%TO.C,R148*%
X554787500Y-173585000D03*
X556787500Y-173585000D03*
%TD*%
D53*
%TO.C,C24*%
X487300000Y-190215000D03*
X484175000Y-190215000D03*
%TD*%
D52*
%TO.C,J27*%
X657972500Y-173250000D03*
D18*
X657972500Y-165750000D03*
%TD*%
D34*
%TO.C,TP41*%
X485487500Y-184715000D03*
%TD*%
D54*
%TO.C,D23*%
X449600000Y-196115000D03*
X449600000Y-194065000D03*
%TD*%
D20*
%TO.C,J14*%
X345935000Y-80935000D03*
X345935000Y-75065000D03*
X340065000Y-80935000D03*
X340065000Y-75065000D03*
%TD*%
D14*
%TO.C,R226*%
X645027500Y-165520000D03*
X652647500Y-165520000D03*
%TD*%
%TO.C,R212*%
X545310000Y-40300000D03*
X537690000Y-40300000D03*
%TD*%
%TO.C,R188*%
X645250000Y-153500000D03*
X652870000Y-153500000D03*
%TD*%
D34*
%TO.C,TP56*%
X530400000Y-159200000D03*
%TD*%
D55*
%TO.C,R11*%
X134925000Y-83000000D03*
X144075000Y-83000000D03*
%TD*%
D49*
%TO.C,U11*%
X552012500Y-173395000D03*
X552012500Y-172125000D03*
X552012500Y-170855000D03*
X552012500Y-169585000D03*
X552012500Y-168315000D03*
X552012500Y-167045000D03*
X552012500Y-165775000D03*
X547062500Y-165775000D03*
X547062500Y-167045000D03*
X547062500Y-168315000D03*
X547062500Y-169585000D03*
X547062500Y-170855000D03*
X547062500Y-172125000D03*
X547062500Y-173395000D03*
%TD*%
D34*
%TO.C,TP14*%
X311460000Y-131280000D03*
%TD*%
D50*
%TO.C,R218*%
X452400000Y-196030000D03*
X452400000Y-194030000D03*
%TD*%
D29*
%TO.C,C32*%
X493987500Y-164550000D03*
X496062500Y-164550000D03*
%TD*%
D13*
%TO.C,R64*%
X80788000Y-139973000D03*
X82788000Y-139973000D03*
%TD*%
D30*
%TO.C,U4*%
X255765000Y-146690000D03*
X255765000Y-147960000D03*
X255765000Y-149230000D03*
X255765000Y-150500000D03*
X255765000Y-151770000D03*
X255765000Y-153040000D03*
X255765000Y-154310000D03*
X260715000Y-154310000D03*
X260715000Y-153040000D03*
X260715000Y-151770000D03*
X260715000Y-150500000D03*
X260715000Y-149230000D03*
X260715000Y-147960000D03*
X260715000Y-146690000D03*
%TD*%
D34*
%TO.C,TP48*%
X482100000Y-159200000D03*
%TD*%
D14*
%TO.C,R190*%
X645000000Y-146000000D03*
X652620000Y-146000000D03*
%TD*%
%TO.C,R225*%
X634527500Y-165520000D03*
X642147500Y-165520000D03*
%TD*%
%TO.C,R200*%
X616087500Y-175910000D03*
X616087500Y-168290000D03*
%TD*%
D13*
%TO.C,R146*%
X565537500Y-170085000D03*
X567537500Y-170085000D03*
%TD*%
D23*
%TO.C,JP15*%
X123000000Y-158750000D03*
D22*
X127000000Y-158750000D03*
%TD*%
D34*
%TO.C,TP1*%
X81700000Y-129300000D03*
%TD*%
D38*
%TO.C,C27*%
X249315000Y-146750000D03*
X252440000Y-146750000D03*
%TD*%
D34*
%TO.C,TP52*%
X538515000Y-191365000D03*
%TD*%
D53*
%TO.C,C30*%
X470300000Y-204215000D03*
X467175000Y-204215000D03*
%TD*%
D34*
%TO.C,TP69*%
X450100000Y-93500000D03*
%TD*%
%TO.C,TP77*%
X446750000Y-182750000D03*
%TD*%
%TO.C,TP75*%
X622500000Y-174300000D03*
%TD*%
D13*
%TO.C,R127*%
X517450000Y-167135000D03*
X519450000Y-167135000D03*
%TD*%
D34*
%TO.C,TP71*%
X630060000Y-43250000D03*
%TD*%
D16*
%TO.C,R90*%
X252540000Y-152250000D03*
X250540000Y-152250000D03*
%TD*%
D37*
%TO.C,U21*%
X630605000Y-131675000D03*
D14*
X630605000Y-129135000D03*
X622985000Y-129135000D03*
X622985000Y-131675000D03*
%TD*%
D45*
%TO.C,TP24*%
X133132500Y-155040000D03*
%TD*%
D26*
%TO.C,M5*%
X328450000Y-42140000D03*
D27*
X323000000Y-62000000D03*
D28*
X328450000Y-62000000D03*
X333900000Y-62000000D03*
%TD*%
D14*
%TO.C,R172*%
X499200000Y-41000000D03*
X491580000Y-41000000D03*
%TD*%
D13*
%TO.C,R109*%
X443875000Y-169480000D03*
X445875000Y-169480000D03*
%TD*%
D15*
%TO.C,J56*%
X583500000Y-123500000D03*
%TD*%
D16*
%TO.C,R94*%
X486175000Y-201390000D03*
X484175000Y-201390000D03*
%TD*%
D31*
%TO.C,R162*%
X40750000Y-119500000D03*
X40750000Y-121500000D03*
%TD*%
D14*
%TO.C,R208*%
X571100000Y-46610000D03*
X571100000Y-38990000D03*
%TD*%
D34*
%TO.C,TP28*%
X244500000Y-143000000D03*
%TD*%
D26*
%TO.C,M3*%
X139450000Y-42140000D03*
D27*
X134000000Y-62000000D03*
D28*
X139450000Y-62000000D03*
X144900000Y-62000000D03*
%TD*%
D14*
%TO.C,R1*%
X83530000Y-123210000D03*
X75910000Y-123210000D03*
%TD*%
D29*
%TO.C,C36*%
X541262500Y-165325000D03*
X543337500Y-165325000D03*
%TD*%
D14*
%TO.C,R189*%
X634500000Y-146000000D03*
X642120000Y-146000000D03*
%TD*%
D46*
%TO.C,M10*%
X545000000Y-130810000D03*
D47*
X542460000Y-147470000D03*
D48*
X545000000Y-147470000D03*
X547540000Y-147470000D03*
%TD*%
D13*
%TO.C,R125*%
X492950000Y-174750000D03*
X494950000Y-174750000D03*
%TD*%
D45*
%TO.C,TP39*%
X150600000Y-175150000D03*
%TD*%
D16*
%TO.C,R49*%
X445787500Y-167135000D03*
X443787500Y-167135000D03*
%TD*%
D34*
%TO.C,TP2*%
X64410000Y-119450000D03*
%TD*%
D21*
%TO.C,C11*%
X187293500Y-141653000D03*
X190893500Y-141653000D03*
%TD*%
D13*
%TO.C,R61*%
X76600000Y-131400000D03*
X78600000Y-131400000D03*
%TD*%
D56*
%TO.C,U13*%
X45850000Y-155450000D03*
X45850000Y-157750000D03*
D57*
X52150000Y-157750000D03*
D56*
X45850000Y-160050000D03*
%TD*%
D58*
%TO.C,C10*%
X204216000Y-66220000D03*
X204216000Y-88720000D03*
%TD*%
D20*
%TO.C,J10*%
X156435000Y-80935000D03*
X156435000Y-75065000D03*
X150565000Y-80935000D03*
X150565000Y-75065000D03*
%TD*%
%TO.C,J13*%
X318935000Y-99935000D03*
X318935000Y-94065000D03*
X313065000Y-99935000D03*
X313065000Y-94065000D03*
%TD*%
D13*
%TO.C,R118*%
X469765000Y-185615000D03*
X471765000Y-185615000D03*
%TD*%
D34*
%TO.C,TP38*%
X51500000Y-116500000D03*
%TD*%
D16*
%TO.C,R136*%
X526035000Y-201135000D03*
X524035000Y-201135000D03*
%TD*%
%TO.C,R65*%
X251690000Y-142040000D03*
X249690000Y-142040000D03*
%TD*%
D59*
%TO.C,U14*%
X459180000Y-36985000D03*
D14*
X456640000Y-36985000D03*
X454100000Y-36985000D03*
X454100000Y-44605000D03*
X456640000Y-44605000D03*
X459180000Y-44605000D03*
%TD*%
D15*
%TO.C,J62*%
X519750000Y-86500000D03*
%TD*%
D37*
%TO.C,U23*%
X630705000Y-208575000D03*
D14*
X630705000Y-206035000D03*
X623085000Y-206035000D03*
X623085000Y-208575000D03*
%TD*%
D20*
%TO.C,J9*%
X129935000Y-99935000D03*
X129935000Y-94065000D03*
X124065000Y-99935000D03*
X124065000Y-94065000D03*
%TD*%
D14*
%TO.C,R203*%
X625620000Y-47440000D03*
X625620000Y-55060000D03*
%TD*%
D34*
%TO.C,TP3*%
X80070000Y-119700000D03*
%TD*%
D29*
%TO.C,C31*%
X488862500Y-172500000D03*
X490937500Y-172500000D03*
%TD*%
D13*
%TO.C,R102*%
X484175000Y-203965000D03*
X486175000Y-203965000D03*
%TD*%
D16*
%TO.C,R73*%
X317075000Y-149900000D03*
X315075000Y-149900000D03*
%TD*%
D53*
%TO.C,C34*%
X532847500Y-189385000D03*
X529722500Y-189385000D03*
%TD*%
D34*
%TO.C,TP35*%
X498780000Y-199800000D03*
%TD*%
D13*
%TO.C,R79*%
X319325000Y-149850000D03*
X321325000Y-149850000D03*
%TD*%
D20*
%TO.C,J2*%
X219565000Y-116565000D03*
X219565000Y-122435000D03*
X225435000Y-116565000D03*
X225435000Y-122435000D03*
%TD*%
D16*
%TO.C,R121*%
X490950000Y-167330000D03*
X488950000Y-167330000D03*
%TD*%
D34*
%TO.C,TP68*%
X561500000Y-146500000D03*
%TD*%
D32*
%TO.C,RV7*%
X488300000Y-164580000D03*
D33*
X489450000Y-160580000D03*
D32*
X490600000Y-164580000D03*
%TD*%
D14*
%TO.C,R167*%
X473900000Y-52410000D03*
X473900000Y-44790000D03*
%TD*%
D29*
%TO.C,C16*%
X188356000Y-145453000D03*
X190431000Y-145453000D03*
%TD*%
D34*
%TO.C,TP10*%
X292900000Y-156100000D03*
%TD*%
D30*
%TO.C,U3*%
X307450000Y-142790000D03*
X307450000Y-144060000D03*
X307450000Y-145330000D03*
X307450000Y-146600000D03*
X307450000Y-147870000D03*
X307450000Y-149140000D03*
X307450000Y-150410000D03*
X312400000Y-150410000D03*
X312400000Y-149140000D03*
X312400000Y-147870000D03*
X312400000Y-146600000D03*
X312400000Y-145330000D03*
X312400000Y-144060000D03*
X312400000Y-142790000D03*
%TD*%
D20*
%TO.C,J4*%
X161911000Y-102729000D03*
X161911000Y-108599000D03*
X167781000Y-102729000D03*
X167781000Y-108599000D03*
%TD*%
D34*
%TO.C,TP43*%
X459765000Y-198615000D03*
%TD*%
D55*
%TO.C,R19*%
X323925000Y-83000000D03*
X333075000Y-83000000D03*
%TD*%
D34*
%TO.C,TP61*%
X462300000Y-30100000D03*
%TD*%
D32*
%TO.C,RV8*%
X529737500Y-167085000D03*
D33*
X530887500Y-163085000D03*
D32*
X532037500Y-167085000D03*
%TD*%
D15*
%TO.C,J61*%
X548000000Y-123500000D03*
%TD*%
D24*
%TO.C,C46*%
X478075000Y-192000000D03*
X476000000Y-192000000D03*
%TD*%
D43*
%TO.C,JP23*%
X235500000Y-124200000D03*
D44*
X235500000Y-125500000D03*
%TD*%
D34*
%TO.C,TP17*%
X539390000Y-157070000D03*
%TD*%
%TO.C,TP72*%
X656500000Y-43250000D03*
%TD*%
D29*
%TO.C,C22*%
X146557500Y-158040000D03*
X148632500Y-158040000D03*
%TD*%
D16*
%TO.C,R153*%
X516785000Y-198135000D03*
X514785000Y-198135000D03*
%TD*%
D60*
%TO.C,J36*%
X595500000Y-210500000D03*
D61*
X593500000Y-210500000D03*
X591500000Y-210500000D03*
X589500000Y-210500000D03*
X587500000Y-210500000D03*
X585500000Y-210500000D03*
X583500000Y-210500000D03*
X581500000Y-210500000D03*
%TD*%
D13*
%TO.C,R154*%
X36900000Y-152500000D03*
X38900000Y-152500000D03*
%TD*%
D14*
%TO.C,R181*%
X615600000Y-191110000D03*
X615600000Y-183490000D03*
%TD*%
D16*
%TO.C,R155*%
X43550000Y-152650000D03*
X41550000Y-152650000D03*
%TD*%
D14*
%TO.C,R182*%
X634750000Y-191750000D03*
X642370000Y-191750000D03*
%TD*%
D55*
%TO.C,R18*%
X323925000Y-74000000D03*
X333075000Y-74000000D03*
%TD*%
D16*
%TO.C,R119*%
X498075000Y-189275000D03*
X496075000Y-189275000D03*
%TD*%
D14*
%TO.C,R179*%
X645027500Y-106520000D03*
X652647500Y-106520000D03*
%TD*%
D37*
%TO.C,U19*%
X630705000Y-189475000D03*
D14*
X630705000Y-186935000D03*
X623085000Y-186935000D03*
X623085000Y-189475000D03*
%TD*%
D35*
%TO.C,J72*%
X35100000Y-171400000D03*
D36*
X42600000Y-171400000D03*
%TD*%
D34*
%TO.C,TP11*%
X300775000Y-130500000D03*
%TD*%
D16*
%TO.C,R111*%
X469737500Y-195465000D03*
X467737500Y-195465000D03*
%TD*%
D39*
%TO.C,D6*%
X98975000Y-165625000D03*
X94975000Y-165625000D03*
%TD*%
D62*
%TO.C,J35*%
X513500000Y-25000000D03*
D61*
X515500000Y-25000000D03*
X517500000Y-25000000D03*
X519500000Y-25000000D03*
%TD*%
D22*
%TO.C,JP14*%
X469765000Y-167115000D03*
D23*
X465765000Y-167115000D03*
%TD*%
D29*
%TO.C,C17*%
X257265000Y-144800000D03*
X259340000Y-144800000D03*
%TD*%
D54*
%TO.C,D17*%
X253500000Y-93525000D03*
X253500000Y-91475000D03*
%TD*%
D14*
%TO.C,C50*%
X594940000Y-34440000D03*
X589940000Y-34440000D03*
%TD*%
%TO.C,R207*%
X647810000Y-66250000D03*
X640190000Y-66250000D03*
%TD*%
D20*
%TO.C,J16*%
X390935000Y-80935000D03*
X390935000Y-75065000D03*
X385065000Y-80935000D03*
X385065000Y-75065000D03*
%TD*%
D13*
%TO.C,R107*%
X484237500Y-197215000D03*
X486237500Y-197215000D03*
%TD*%
D34*
%TO.C,TP55*%
X531787500Y-171585000D03*
%TD*%
D62*
%TO.C,J34*%
X615000000Y-25500000D03*
D61*
X617000000Y-25500000D03*
X619000000Y-25500000D03*
X621000000Y-25500000D03*
X623000000Y-25500000D03*
X625000000Y-25500000D03*
%TD*%
D17*
%TO.C,J81*%
X439377500Y-202150000D03*
D18*
X439377500Y-209650000D03*
%TD*%
D63*
%TO.C,T1*%
X465500000Y-95500000D03*
D64*
X485500000Y-95500000D03*
X485500000Y-115500000D03*
X480500000Y-115500000D03*
X470500000Y-115500000D03*
X465500000Y-115500000D03*
%TD*%
D42*
%TO.C,Fiducial*%
X465300000Y-66500000D03*
%TD*%
D13*
%TO.C,R27*%
X64050000Y-137660000D03*
X66050000Y-137660000D03*
%TD*%
%TO.C,R104*%
X484237500Y-208935000D03*
X486237500Y-208935000D03*
%TD*%
D42*
%TO.C,Fiducial*%
X389900000Y-42000000D03*
%TD*%
D65*
%TO.C,J29*%
X534440000Y-84087500D03*
D36*
X526940000Y-84087500D03*
%TD*%
D52*
%TO.C,J39*%
X657972500Y-153750000D03*
D18*
X657972500Y-146250000D03*
%TD*%
D34*
%TO.C,TP64*%
X622600000Y-194000000D03*
%TD*%
D29*
%TO.C,C18*%
X70331000Y-130829000D03*
X72406000Y-130829000D03*
%TD*%
D16*
%TO.C,R130*%
X521035000Y-203635000D03*
X519035000Y-203635000D03*
%TD*%
D22*
%TO.C,JP18*%
X562537500Y-170335000D03*
D23*
X558537500Y-170335000D03*
%TD*%
D34*
%TO.C,TP31*%
X439787500Y-159135000D03*
%TD*%
D39*
%TO.C,D15*%
X119100000Y-160200000D03*
X115100000Y-160200000D03*
%TD*%
D34*
%TO.C,TP74*%
X622300000Y-136500000D03*
%TD*%
D24*
%TO.C,C35*%
X538487500Y-172875000D03*
X536412500Y-172875000D03*
%TD*%
D13*
%TO.C,R62*%
X80788000Y-132353000D03*
X82788000Y-132353000D03*
%TD*%
D55*
%TO.C,R10*%
X134925000Y-74000000D03*
X144075000Y-74000000D03*
%TD*%
D14*
%TO.C,R202*%
X634750000Y-173020000D03*
X642370000Y-173020000D03*
%TD*%
D34*
%TO.C,TP15*%
X107020000Y-149080000D03*
%TD*%
D25*
%TO.C,C40*%
X504300000Y-159500000D03*
X500700000Y-159500000D03*
%TD*%
D14*
%TO.C,R5*%
X58627840Y-124987000D03*
X66247840Y-124987000D03*
%TD*%
D52*
%TO.C,J53*%
X392722500Y-102750000D03*
D18*
X392722500Y-95250000D03*
%TD*%
D34*
%TO.C,TP20*%
X67250000Y-166250000D03*
%TD*%
D13*
%TO.C,R145*%
X541000000Y-175850000D03*
X543000000Y-175850000D03*
%TD*%
D22*
%TO.C,JP2*%
X184193500Y-147070000D03*
D23*
X180193500Y-147070000D03*
%TD*%
D16*
%TO.C,R120*%
X491000000Y-169500000D03*
X489000000Y-169500000D03*
%TD*%
D49*
%TO.C,U12*%
X525760000Y-198945000D03*
X525760000Y-197675000D03*
X525760000Y-196405000D03*
X525760000Y-195135000D03*
X525760000Y-193865000D03*
X525760000Y-192595000D03*
X525760000Y-191325000D03*
X520810000Y-191325000D03*
X520810000Y-192595000D03*
X520810000Y-193865000D03*
X520810000Y-195135000D03*
X520810000Y-196405000D03*
X520810000Y-197675000D03*
X520810000Y-198945000D03*
%TD*%
D58*
%TO.C,R158*%
X507900000Y-109650000D03*
X507900000Y-122350000D03*
%TD*%
D34*
%TO.C,TP6*%
X180168500Y-135673000D03*
%TD*%
D13*
%TO.C,R75*%
X319375000Y-142250000D03*
X321375000Y-142250000D03*
%TD*%
D14*
%TO.C,R229*%
X645500000Y-211270000D03*
X653120000Y-211270000D03*
%TD*%
%TO.C,R195*%
X449600000Y-44800000D03*
X441980000Y-44800000D03*
%TD*%
D55*
%TO.C,R2*%
X89925000Y-74000000D03*
X99075000Y-74000000D03*
%TD*%
D13*
%TO.C,R103*%
X484175000Y-199290000D03*
X486175000Y-199290000D03*
%TD*%
%TO.C,R46*%
X302000000Y-158140000D03*
X304000000Y-158140000D03*
%TD*%
D60*
%TO.C,J20*%
X252250000Y-178500000D03*
D61*
X250250000Y-178500000D03*
X248250000Y-178500000D03*
X246250000Y-178500000D03*
%TD*%
D39*
%TO.C,D20*%
X140432500Y-170340000D03*
X136432500Y-170340000D03*
%TD*%
D13*
%TO.C,R105*%
X489475000Y-206390000D03*
X491475000Y-206390000D03*
%TD*%
D20*
%TO.C,J7*%
X79065000Y-94065000D03*
X79065000Y-99935000D03*
X84935000Y-94065000D03*
X84935000Y-99935000D03*
%TD*%
D16*
%TO.C,R106*%
X486750000Y-187715000D03*
X484750000Y-187715000D03*
%TD*%
D66*
%TO.C,J17*%
X478000000Y-123500000D03*
D67*
X480500000Y-123500000D03*
X483000000Y-123500000D03*
X485500000Y-123500000D03*
%TD*%
D13*
%TO.C,R76*%
X315075000Y-141750000D03*
X317075000Y-141750000D03*
%TD*%
D14*
%TO.C,R219*%
X616087500Y-129810000D03*
X616087500Y-122190000D03*
%TD*%
D13*
%TO.C,R108*%
X484237500Y-192500000D03*
X486237500Y-192500000D03*
%TD*%
D14*
%TO.C,R205*%
X625620000Y-43500000D03*
X618000000Y-43500000D03*
%TD*%
D13*
%TO.C,R31*%
X184350000Y-167450000D03*
X186350000Y-167450000D03*
%TD*%
%TO.C,R137*%
X530535000Y-186885000D03*
X532535000Y-186885000D03*
%TD*%
D66*
%TO.C,J26*%
X590000000Y-123500000D03*
D67*
X592500000Y-123500000D03*
X595000000Y-123500000D03*
X597500000Y-123500000D03*
%TD*%
D38*
%TO.C,C33*%
X523472500Y-203635000D03*
X526597500Y-203635000D03*
%TD*%
D42*
%TO.C,Fiducial*%
X374600000Y-177600000D03*
%TD*%
D16*
%TO.C,R30*%
X184293500Y-142453000D03*
X182293500Y-142453000D03*
%TD*%
D24*
%TO.C,C56*%
X74737500Y-149500000D03*
X72662500Y-149500000D03*
%TD*%
D54*
%TO.C,D3*%
X37000000Y-121525000D03*
X37000000Y-119475000D03*
%TD*%
D56*
%TO.C,U7*%
X46350000Y-125200000D03*
X46350000Y-127500000D03*
D57*
X52650000Y-127500000D03*
D56*
X46350000Y-129800000D03*
%TD*%
D34*
%TO.C,TP57*%
X556287500Y-176835000D03*
%TD*%
D52*
%TO.C,J32*%
X658222500Y-211500000D03*
D18*
X658222500Y-204000000D03*
%TD*%
D25*
%TO.C,C38*%
X551800000Y-160000000D03*
X548200000Y-160000000D03*
%TD*%
D14*
%TO.C,R177*%
X645250000Y-114020000D03*
X652870000Y-114020000D03*
%TD*%
D16*
%TO.C,R25*%
X66294000Y-127781000D03*
X64294000Y-127781000D03*
%TD*%
D34*
%TO.C,TP27*%
X221942000Y-167784000D03*
%TD*%
D50*
%TO.C,R164*%
X447200000Y-89300000D03*
X447200000Y-87300000D03*
%TD*%
D16*
%TO.C,R59*%
X78502000Y-139973000D03*
X76502000Y-139973000D03*
%TD*%
D46*
%TO.C,M12*%
X602500000Y-130810000D03*
D47*
X599960000Y-147470000D03*
D48*
X602500000Y-147470000D03*
X605040000Y-147470000D03*
%TD*%
D13*
%TO.C,R149*%
X555787500Y-164335000D03*
X557787500Y-164335000D03*
%TD*%
D47*
%TO.C,U15*%
X436420000Y-147500000D03*
D48*
X438960000Y-147500000D03*
X441500000Y-147500000D03*
%TD*%
D42*
%TO.C,Fiducial*%
X636900000Y-56600000D03*
%TD*%
D58*
%TO.C,R44*%
X447600000Y-109600000D03*
X447600000Y-122300000D03*
%TD*%
D22*
%TO.C,JP11*%
X51500000Y-133250000D03*
D23*
X47500000Y-133250000D03*
%TD*%
D13*
%TO.C,R139*%
X546075000Y-178100000D03*
X548075000Y-178100000D03*
%TD*%
D16*
%TO.C,R110*%
X469775000Y-193215000D03*
X467775000Y-193215000D03*
%TD*%
D34*
%TO.C,TP70*%
X600690000Y-43190000D03*
%TD*%
%TO.C,TP59*%
X54225000Y-152350000D03*
%TD*%
D14*
%TO.C,R220*%
X634750000Y-133520000D03*
X642370000Y-133520000D03*
%TD*%
D55*
%TO.C,R7*%
X44925000Y-83000000D03*
X54075000Y-83000000D03*
%TD*%
D29*
%TO.C,C7*%
X80962500Y-134893000D03*
X83037500Y-134893000D03*
%TD*%
D14*
%TO.C,R185*%
X645250000Y-184250000D03*
X652870000Y-184250000D03*
%TD*%
D13*
%TO.C,R82*%
X212142000Y-169584000D03*
X214142000Y-169584000D03*
%TD*%
D37*
%TO.C,U20*%
X630805000Y-150075000D03*
D14*
X630805000Y-147535000D03*
X623185000Y-147535000D03*
X623185000Y-150075000D03*
%TD*%
D34*
%TO.C,TP8*%
X200230000Y-144010000D03*
%TD*%
D55*
%TO.C,R3*%
X89925000Y-83000000D03*
X99075000Y-83000000D03*
%TD*%
D23*
%TO.C,JP12*%
X123000000Y-163350000D03*
D22*
X127000000Y-163350000D03*
%TD*%
D20*
%TO.C,J8*%
X106065000Y-75065000D03*
X106065000Y-80935000D03*
X111935000Y-75065000D03*
X111935000Y-80935000D03*
%TD*%
D31*
%TO.C,R215*%
X455010000Y-203070000D03*
X455010000Y-205070000D03*
%TD*%
D13*
%TO.C,R53*%
X453125000Y-174980000D03*
X455125000Y-174980000D03*
%TD*%
%TO.C,R60*%
X76900000Y-134900000D03*
X78900000Y-134900000D03*
%TD*%
D32*
%TO.C,RV3*%
X311325000Y-156700000D03*
D33*
X312475000Y-152700000D03*
D32*
X313625000Y-156700000D03*
%TD*%
D34*
%TO.C,TP7*%
X197868500Y-135673000D03*
%TD*%
D68*
%TO.C,C9*%
X185674000Y-75692000D03*
D69*
X175674000Y-75692000D03*
%TD*%
D34*
%TO.C,TP12*%
X318425000Y-130975000D03*
%TD*%
D29*
%TO.C,C15*%
X308875000Y-140750000D03*
X310950000Y-140750000D03*
%TD*%
D35*
%TO.C,J69*%
X507150000Y-48622500D03*
D36*
X514650000Y-48622500D03*
%TD*%
D13*
%TO.C,R134*%
X529785000Y-194385000D03*
X531785000Y-194385000D03*
%TD*%
%TO.C,R37*%
X184500000Y-160440000D03*
X186500000Y-160440000D03*
%TD*%
D16*
%TO.C,R87*%
X268250000Y-155000000D03*
X266250000Y-155000000D03*
%TD*%
D55*
%TO.C,R23*%
X368925000Y-83000000D03*
X378075000Y-83000000D03*
%TD*%
D13*
%TO.C,R126*%
X517450000Y-170135000D03*
X519450000Y-170135000D03*
%TD*%
D63*
%TO.C,T3*%
X520000000Y-95500000D03*
D64*
X540000000Y-95500000D03*
X540000000Y-115500000D03*
X535000000Y-115500000D03*
X525000000Y-115500000D03*
X520000000Y-115500000D03*
%TD*%
D13*
%TO.C,R117*%
X467875000Y-206715000D03*
X469875000Y-206715000D03*
%TD*%
D14*
%TO.C,R180*%
X616100000Y-117210000D03*
X616100000Y-109590000D03*
%TD*%
D55*
%TO.C,R12*%
X134925000Y-92000000D03*
X144075000Y-92000000D03*
%TD*%
D39*
%TO.C,D7*%
X98975000Y-161725000D03*
X94975000Y-161725000D03*
%TD*%
D16*
%TO.C,R140*%
X538625000Y-169875000D03*
X536625000Y-169875000D03*
%TD*%
D52*
%TO.C,J37*%
X657972500Y-114250000D03*
D18*
X657972500Y-106750000D03*
%TD*%
D22*
%TO.C,JP19*%
X562537500Y-167335000D03*
D23*
X558537500Y-167335000D03*
%TD*%
D14*
%TO.C,R198*%
X596190000Y-58630000D03*
X596190000Y-66250000D03*
%TD*%
D49*
%TO.C,U9*%
X479737500Y-201985000D03*
X479737500Y-200715000D03*
X479737500Y-199445000D03*
X479737500Y-198175000D03*
X479737500Y-196905000D03*
X479737500Y-195635000D03*
X479737500Y-194365000D03*
X474787500Y-194365000D03*
X474787500Y-195635000D03*
X474787500Y-196905000D03*
X474787500Y-198175000D03*
X474787500Y-199445000D03*
X474787500Y-200715000D03*
X474787500Y-201985000D03*
%TD*%
D68*
%TO.C,C48*%
X447170000Y-66510000D03*
D69*
X437170000Y-66510000D03*
%TD*%
D14*
%TO.C,R199*%
X591560000Y-66250000D03*
X583940000Y-66250000D03*
%TD*%
D46*
%TO.C,M9*%
X521190000Y-130880000D03*
D47*
X518650000Y-147540000D03*
D48*
X521190000Y-147540000D03*
X523730000Y-147540000D03*
%TD*%
D37*
%TO.C,U17*%
X630605000Y-111075000D03*
D14*
X630605000Y-108535000D03*
X622985000Y-108535000D03*
X622985000Y-111075000D03*
%TD*%
D30*
%TO.C,U1*%
X68915000Y-132861000D03*
X68915000Y-134131000D03*
X68915000Y-135401000D03*
X68915000Y-136671000D03*
X68915000Y-137941000D03*
X68915000Y-139211000D03*
X68915000Y-140481000D03*
X73865000Y-140481000D03*
X73865000Y-139211000D03*
X73865000Y-137941000D03*
X73865000Y-136671000D03*
X73865000Y-135401000D03*
X73865000Y-134131000D03*
X73865000Y-132861000D03*
%TD*%
D42*
%TO.C,Fiducial*%
X454200000Y-213600000D03*
%TD*%
D14*
%TO.C,R173*%
X463890000Y-35000000D03*
X471510000Y-35000000D03*
%TD*%
%TO.C,R168*%
X440390000Y-50600000D03*
X448010000Y-50600000D03*
%TD*%
D16*
%TO.C,R86*%
X267250000Y-144250000D03*
X265250000Y-144250000D03*
%TD*%
D43*
%TO.C,JP20*%
X231648000Y-124200000D03*
D44*
X231648000Y-125500000D03*
%TD*%
D39*
%TO.C,D22*%
X140407500Y-162615000D03*
X136407500Y-162615000D03*
%TD*%
D13*
%TO.C,R98*%
X114500000Y-166900000D03*
X116500000Y-166900000D03*
%TD*%
D52*
%TO.C,J19*%
X657972500Y-133750000D03*
D18*
X657972500Y-126250000D03*
%TD*%
D25*
%TO.C,C39*%
X459300000Y-159000000D03*
X455700000Y-159000000D03*
%TD*%
D13*
%TO.C,R131*%
X529785000Y-198635000D03*
X531785000Y-198635000D03*
%TD*%
D60*
%TO.C,J25*%
X117800000Y-178350000D03*
D61*
X115800000Y-178350000D03*
X113800000Y-178350000D03*
X111800000Y-178350000D03*
X109800000Y-178350000D03*
X107800000Y-178350000D03*
X105800000Y-178350000D03*
X103800000Y-178350000D03*
%TD*%
D22*
%TO.C,JP5*%
X93250000Y-136750000D03*
D23*
X89250000Y-136750000D03*
%TD*%
D50*
%TO.C,R217*%
X455090000Y-196000000D03*
X455090000Y-194000000D03*
%TD*%
D14*
%TO.C,R176*%
X634500000Y-114000000D03*
X642120000Y-114000000D03*
%TD*%
D15*
%TO.C,J48*%
X559500000Y-59000000D03*
%TD*%
D34*
%TO.C,TP78*%
X622600000Y-201700000D03*
%TD*%
D55*
%TO.C,R20*%
X323925000Y-92000000D03*
X333075000Y-92000000D03*
%TD*%
D16*
%TO.C,R156*%
X46250000Y-121750000D03*
X44250000Y-121750000D03*
%TD*%
D14*
%TO.C,R186*%
X616400000Y-157710000D03*
X616400000Y-150090000D03*
%TD*%
D13*
%TO.C,R128*%
X507200000Y-173580000D03*
X509200000Y-173580000D03*
%TD*%
D15*
%TO.C,J45*%
X534500000Y-59000000D03*
%TD*%
D55*
%TO.C,R14*%
X278925000Y-74000000D03*
X288075000Y-74000000D03*
%TD*%
D13*
%TO.C,R78*%
X319375000Y-147100000D03*
X321375000Y-147100000D03*
%TD*%
D34*
%TO.C,TP50*%
X518700000Y-158800000D03*
%TD*%
D55*
%TO.C,R24*%
X368925000Y-92000000D03*
X378075000Y-92000000D03*
%TD*%
D13*
%TO.C,R101*%
X137432500Y-151940000D03*
X139432500Y-151940000D03*
%TD*%
%TO.C,R54*%
X472000000Y-169885000D03*
X474000000Y-169885000D03*
%TD*%
D16*
%TO.C,R38*%
X183830000Y-144530000D03*
X181830000Y-144530000D03*
%TD*%
D55*
%TO.C,R15*%
X278925000Y-83000000D03*
X288075000Y-83000000D03*
%TD*%
D16*
%TO.C,R141*%
X538537500Y-167585000D03*
X536537500Y-167585000D03*
%TD*%
D34*
%TO.C,TP65*%
X622400000Y-116000000D03*
%TD*%
D66*
%TO.C,J28*%
X532500000Y-123500000D03*
D67*
X535000000Y-123500000D03*
X537500000Y-123500000D03*
X540000000Y-123500000D03*
%TD*%
D14*
%TO.C,R174*%
X514080000Y-32800000D03*
X521700000Y-32800000D03*
%TD*%
D16*
%TO.C,R113*%
X469875000Y-208990000D03*
X467875000Y-208990000D03*
%TD*%
D34*
%TO.C,TP49*%
X508950000Y-176830000D03*
%TD*%
D58*
%TO.C,R160*%
X563900000Y-110350000D03*
X563900000Y-123050000D03*
%TD*%
D16*
%TO.C,R50*%
X196493500Y-154653000D03*
X194493500Y-154653000D03*
%TD*%
D17*
%TO.C,J52*%
X436800000Y-100420000D03*
D18*
X436800000Y-107920000D03*
%TD*%
D13*
%TO.C,R33*%
X181993500Y-152153000D03*
X183993500Y-152153000D03*
%TD*%
D60*
%TO.C,J24*%
X146200000Y-178350000D03*
D61*
X144200000Y-178350000D03*
X142200000Y-178350000D03*
X140200000Y-178350000D03*
X138200000Y-178350000D03*
X136200000Y-178350000D03*
X134200000Y-178350000D03*
X132200000Y-178350000D03*
%TD*%
D13*
%TO.C,R69*%
X194490000Y-146710000D03*
X196490000Y-146710000D03*
%TD*%
D15*
%TO.C,J63*%
X541750000Y-86750000D03*
%TD*%
D26*
%TO.C,M6*%
X373450000Y-42140000D03*
D27*
X368000000Y-62000000D03*
D28*
X373450000Y-62000000D03*
X378900000Y-62000000D03*
%TD*%
D20*
%TO.C,J5*%
X34065000Y-94065000D03*
X34065000Y-99935000D03*
X39935000Y-94065000D03*
X39935000Y-99935000D03*
%TD*%
D70*
%TO.C,C47*%
X41450000Y-157750000D03*
X36050000Y-157750000D03*
%TD*%
D13*
%TO.C,R55*%
X471700000Y-166635000D03*
X473700000Y-166635000D03*
%TD*%
%TO.C,R92*%
X463287500Y-163885000D03*
X465287500Y-163885000D03*
%TD*%
D14*
%TO.C,R175*%
X559300000Y-31100000D03*
X566920000Y-31100000D03*
%TD*%
D13*
%TO.C,R72*%
X198440000Y-154660000D03*
X200440000Y-154660000D03*
%TD*%
D14*
%TO.C,R230*%
X634777500Y-203770000D03*
X642397500Y-203770000D03*
%TD*%
D13*
%TO.C,R42*%
X302600000Y-147350000D03*
X304600000Y-147350000D03*
%TD*%
D65*
%TO.C,J30*%
X591940000Y-84087500D03*
D36*
X584440000Y-84087500D03*
%TD*%
D16*
%TO.C,R40*%
X307750000Y-153000000D03*
X305750000Y-153000000D03*
%TD*%
D14*
%TO.C,C52*%
X650750000Y-34500000D03*
X645750000Y-34500000D03*
%TD*%
D22*
%TO.C,JP6*%
X203540000Y-159702500D03*
D23*
X199540000Y-159702500D03*
%TD*%
D38*
%TO.C,C28*%
X265187500Y-152500000D03*
X268312500Y-152500000D03*
%TD*%
D20*
%TO.C,J11*%
X273935000Y-99935000D03*
X273935000Y-94065000D03*
X268065000Y-99935000D03*
X268065000Y-94065000D03*
%TD*%
D59*
%TO.C,U16*%
X509400000Y-33325000D03*
D14*
X506860000Y-33325000D03*
X504320000Y-33325000D03*
X504320000Y-40945000D03*
X506860000Y-40945000D03*
X509400000Y-40945000D03*
%TD*%
D20*
%TO.C,J6*%
X61065000Y-80935000D03*
X66935000Y-80935000D03*
X61065000Y-75065000D03*
X66935000Y-75065000D03*
%TD*%
D30*
%TO.C,U2*%
X186918500Y-147543000D03*
X186918500Y-148813000D03*
X186918500Y-150083000D03*
X186918500Y-151353000D03*
X186918500Y-152623000D03*
X186918500Y-153893000D03*
X186918500Y-155163000D03*
X191868500Y-155163000D03*
X191868500Y-153893000D03*
X191868500Y-152623000D03*
X191868500Y-151353000D03*
X191868500Y-150083000D03*
X191868500Y-148813000D03*
X191868500Y-147543000D03*
%TD*%
D20*
%TO.C,J3*%
X186803000Y-97903000D03*
X186803000Y-103773000D03*
X192673000Y-97903000D03*
X192673000Y-103773000D03*
%TD*%
D15*
%TO.C,J46*%
X546500000Y-59000000D03*
%TD*%
D60*
%TO.C,J33*%
X517037500Y-210635000D03*
D61*
X515037500Y-210635000D03*
X513037500Y-210635000D03*
X511037500Y-210635000D03*
X509037500Y-210635000D03*
X507037500Y-210635000D03*
X505037500Y-210635000D03*
X503037500Y-210635000D03*
%TD*%
D54*
%TO.C,D16*%
X80900000Y-161775000D03*
X80900000Y-159725000D03*
%TD*%
D13*
%TO.C,R84*%
X255940000Y-157250000D03*
X257940000Y-157250000D03*
%TD*%
D14*
%TO.C,R187*%
X634500000Y-153500000D03*
X642120000Y-153500000D03*
%TD*%
D49*
%TO.C,U8*%
X459287500Y-172985000D03*
X459287500Y-171715000D03*
X459287500Y-170445000D03*
X459287500Y-169175000D03*
X459287500Y-167905000D03*
X459287500Y-166635000D03*
X459287500Y-165365000D03*
X454337500Y-165365000D03*
X454337500Y-166635000D03*
X454337500Y-167905000D03*
X454337500Y-169175000D03*
X454337500Y-170445000D03*
X454337500Y-171715000D03*
X454337500Y-172985000D03*
%TD*%
D16*
%TO.C,R45*%
X303380000Y-139320000D03*
X301380000Y-139320000D03*
%TD*%
D14*
%TO.C,C51*%
X624310000Y-34500000D03*
X619310000Y-34500000D03*
%TD*%
D16*
%TO.C,R166*%
X238250000Y-96000000D03*
X236250000Y-96000000D03*
%TD*%
D14*
%TO.C,R227*%
X615700000Y-209110000D03*
X615700000Y-201490000D03*
%TD*%
D34*
%TO.C,TP4*%
X61980000Y-145150000D03*
%TD*%
D16*
%TO.C,R151*%
X516535000Y-191135000D03*
X514535000Y-191135000D03*
%TD*%
%TO.C,R152*%
X516785000Y-195885000D03*
X514785000Y-195885000D03*
%TD*%
D30*
%TO.C,U6*%
X145407500Y-160140000D03*
X145407500Y-161410000D03*
X145407500Y-162680000D03*
X145407500Y-163950000D03*
X145407500Y-165220000D03*
X145407500Y-166490000D03*
X145407500Y-167760000D03*
X150357500Y-167760000D03*
X150357500Y-166490000D03*
X150357500Y-165220000D03*
X150357500Y-163950000D03*
X150357500Y-162680000D03*
X150357500Y-161410000D03*
X150357500Y-160140000D03*
%TD*%
D54*
%TO.C,D2*%
X450200000Y-89425000D03*
X450200000Y-87375000D03*
%TD*%
D13*
%TO.C,R70*%
X194493500Y-149553000D03*
X196493500Y-149553000D03*
%TD*%
D34*
%TO.C,TP47*%
X483700000Y-173885000D03*
%TD*%
D39*
%TO.C,D5*%
X99000000Y-169450000D03*
X95000000Y-169450000D03*
%TD*%
D46*
%TO.C,M8*%
X466500000Y-131070000D03*
D47*
X463960000Y-147730000D03*
D48*
X466500000Y-147730000D03*
X469040000Y-147730000D03*
%TD*%
D13*
%TO.C,R112*%
X467775000Y-197490000D03*
X469775000Y-197490000D03*
%TD*%
D14*
%TO.C,R214*%
X652060000Y-38500000D03*
X644440000Y-38500000D03*
%TD*%
D15*
%TO.C,J66*%
X486750000Y-86250000D03*
%TD*%
D14*
%TO.C,R9*%
X184203500Y-139653000D03*
X176583500Y-139653000D03*
%TD*%
D21*
%TO.C,C12*%
X307896000Y-136938000D03*
X311496000Y-136938000D03*
%TD*%
D45*
%TO.C,TP21*%
X121600000Y-172150000D03*
%TD*%
D70*
%TO.C,C3*%
X42200000Y-127500000D03*
X36800000Y-127500000D03*
%TD*%
D34*
%TO.C,TP19*%
X262940000Y-139450000D03*
%TD*%
D45*
%TO.C,TP26*%
X119800000Y-157150000D03*
%TD*%
D17*
%TO.C,J55*%
X27527500Y-79000000D03*
D18*
X27527500Y-86500000D03*
%TD*%
D20*
%TO.C,J21*%
X222065000Y-90435000D03*
X227935000Y-90435000D03*
X222065000Y-84565000D03*
X227935000Y-84565000D03*
%TD*%
D54*
%TO.C,D18*%
X450020000Y-205020000D03*
X450020000Y-202970000D03*
%TD*%
D39*
%TO.C,D13*%
X158400000Y-161090000D03*
X154400000Y-161090000D03*
%TD*%
D14*
%TO.C,R209*%
X652000000Y-58690000D03*
X652000000Y-66310000D03*
%TD*%
D22*
%TO.C,JP10*%
X469837500Y-169885000D03*
D23*
X465837500Y-169885000D03*
%TD*%
D34*
%TO.C,TP16*%
X148007500Y-149815000D03*
%TD*%
D16*
%TO.C,R93*%
X205390000Y-162640000D03*
X203390000Y-162640000D03*
%TD*%
D52*
%TO.C,J54*%
X392722500Y-121750000D03*
D18*
X392722500Y-114250000D03*
%TD*%
D13*
%TO.C,R85*%
X250540000Y-154500000D03*
X252540000Y-154500000D03*
%TD*%
D15*
%TO.C,J47*%
X553000000Y-67500000D03*
%TD*%
D46*
%TO.C,M11*%
X578690000Y-130880000D03*
D47*
X576150000Y-147540000D03*
D48*
X578690000Y-147540000D03*
X581230000Y-147540000D03*
%TD*%
D13*
%TO.C,R124*%
X494125000Y-162050000D03*
X496125000Y-162050000D03*
%TD*%
D39*
%TO.C,D19*%
X149532500Y-171000000D03*
X145532500Y-171000000D03*
%TD*%
D29*
%TO.C,C25*%
X319350000Y-144800000D03*
X321425000Y-144800000D03*
%TD*%
D32*
%TO.C,RV9*%
X535887500Y-165085000D03*
D33*
X537037500Y-161085000D03*
D32*
X538187500Y-165085000D03*
%TD*%
D53*
%TO.C,C21*%
X486987500Y-206465000D03*
X483862500Y-206465000D03*
%TD*%
D34*
%TO.C,TP29*%
X259740000Y-160050000D03*
%TD*%
D55*
%TO.C,R4*%
X89925000Y-92000000D03*
X99075000Y-92000000D03*
%TD*%
D20*
%TO.C,J1*%
X241065000Y-103065000D03*
X241065000Y-108935000D03*
X246935000Y-103065000D03*
X246935000Y-108935000D03*
%TD*%
D16*
%TO.C,R58*%
X92750000Y-131750000D03*
X90750000Y-131750000D03*
%TD*%
D22*
%TO.C,JP16*%
X514950000Y-170080000D03*
D23*
X510950000Y-170080000D03*
%TD*%
D22*
%TO.C,JP22*%
X42500000Y-138750000D03*
D23*
X38500000Y-138750000D03*
%TD*%
D60*
%TO.C,J23*%
X220250000Y-178500000D03*
D61*
X218250000Y-178500000D03*
X216250000Y-178500000D03*
X214250000Y-178500000D03*
X212250000Y-178500000D03*
X210250000Y-178500000D03*
%TD*%
D34*
%TO.C,TP44*%
X463487500Y-209715000D03*
%TD*%
D16*
%TO.C,R36*%
X65820000Y-129880000D03*
X63820000Y-129880000D03*
%TD*%
D34*
%TO.C,TP46*%
X473975000Y-208190000D03*
%TD*%
D13*
%TO.C,R67*%
X198690000Y-146770000D03*
X200690000Y-146770000D03*
%TD*%
%TO.C,R150*%
X514535000Y-193385000D03*
X516535000Y-193385000D03*
%TD*%
D65*
%TO.C,J18*%
X479500000Y-83777500D03*
D36*
X472000000Y-83777500D03*
%TD*%
D45*
%TO.C,TP22*%
X92450000Y-164000000D03*
%TD*%
D34*
%TO.C,TP9*%
X319000000Y-138500000D03*
%TD*%
D39*
%TO.C,D14*%
X119100000Y-163900000D03*
X115100000Y-163900000D03*
%TD*%
D55*
%TO.C,R22*%
X368925000Y-74000000D03*
X378075000Y-74000000D03*
%TD*%
D16*
%TO.C,R89*%
X252540000Y-150000000D03*
X250540000Y-150000000D03*
%TD*%
D29*
%TO.C,C8*%
X198756000Y-149553000D03*
X200831000Y-149553000D03*
%TD*%
D39*
%TO.C,D9*%
X98875000Y-157925000D03*
X94875000Y-157925000D03*
%TD*%
D16*
%TO.C,R165*%
X245500000Y-96000000D03*
X243500000Y-96000000D03*
%TD*%
D13*
%TO.C,R26*%
X67500000Y-143500000D03*
X69500000Y-143500000D03*
%TD*%
D32*
%TO.C,RV4*%
X443137500Y-164635000D03*
D33*
X444287500Y-160635000D03*
D32*
X445437500Y-164635000D03*
%TD*%
D13*
%TO.C,R135*%
X529785000Y-196385000D03*
X531785000Y-196385000D03*
%TD*%
D34*
%TO.C,TP62*%
X496500000Y-30300000D03*
%TD*%
D58*
%TO.C,C49*%
X27500000Y-114250000D03*
X27500000Y-136750000D03*
%TD*%
D59*
%TO.C,U18*%
X554630000Y-31125000D03*
D14*
X552090000Y-31125000D03*
X549550000Y-31125000D03*
X549550000Y-38745000D03*
X552090000Y-38745000D03*
X554630000Y-38745000D03*
%TD*%
D58*
%TO.C,R68*%
X178360000Y-50000000D03*
X244400000Y-50000000D03*
%TD*%
D55*
%TO.C,R6*%
X44925000Y-74000000D03*
X54075000Y-74000000D03*
%TD*%
D14*
%TO.C,R223*%
X645000000Y-126020000D03*
X652620000Y-126020000D03*
%TD*%
D22*
%TO.C,JP1*%
X66100000Y-132500000D03*
D23*
X62100000Y-132500000D03*
%TD*%
D45*
%TO.C,TP25*%
X159000000Y-158000000D03*
%TD*%
D21*
%TO.C,C19*%
X145232500Y-154340000D03*
X148832500Y-154340000D03*
%TD*%
D58*
%TO.C,R48*%
X558200000Y-110150000D03*
X558200000Y-122850000D03*
%TD*%
D14*
%TO.C,R170*%
X488890000Y-47200000D03*
X496510000Y-47200000D03*
%TD*%
D63*
%TO.C,T2*%
X577500000Y-95500000D03*
D64*
X597500000Y-95500000D03*
X597500000Y-115500000D03*
X592500000Y-115500000D03*
X582500000Y-115500000D03*
X577500000Y-115500000D03*
%TD*%
D42*
%TO.C,Fiducial*%
X75400000Y-175800000D03*
%TD*%
D13*
%TO.C,R147*%
X565537500Y-167335000D03*
X567537500Y-167335000D03*
%TD*%
D15*
%TO.C,J43*%
X521500000Y-59000000D03*
%TD*%
%TO.C,J57*%
X605000000Y-123500000D03*
%TD*%
D16*
%TO.C,R66*%
X252477500Y-144250000D03*
X250477500Y-144250000D03*
%TD*%
D42*
%TO.C,Fiducial*%
X38900000Y-28500000D03*
%TD*%
D24*
%TO.C,C41*%
X458037500Y-163000000D03*
X455962500Y-163000000D03*
%TD*%
D34*
%TO.C,TP60*%
X506700000Y-146650000D03*
%TD*%
%TO.C,TP30*%
X266740000Y-160750000D03*
%TD*%
D39*
%TO.C,D21*%
X140407500Y-166515000D03*
X136407500Y-166515000D03*
%TD*%
D58*
%TO.C,R47*%
X454200000Y-109700000D03*
X454200000Y-122400000D03*
%TD*%
D16*
%TO.C,R83*%
X218550000Y-165900000D03*
X216550000Y-165900000D03*
%TD*%
D20*
%TO.C,J12*%
X300935000Y-80935000D03*
X300935000Y-75065000D03*
X295065000Y-80935000D03*
X295065000Y-75065000D03*
%TD*%
D39*
%TO.C,D12*%
X158400000Y-164790000D03*
X154400000Y-164790000D03*
%TD*%
D14*
%TO.C,R191*%
X596250000Y-43440000D03*
X588630000Y-43440000D03*
%TD*%
D13*
%TO.C,R88*%
X265250000Y-157500000D03*
X267250000Y-157500000D03*
%TD*%
D16*
%TO.C,R114*%
X469875000Y-201715000D03*
X467875000Y-201715000D03*
%TD*%
D55*
%TO.C,R16*%
X278925000Y-92000000D03*
X288075000Y-92000000D03*
%TD*%
D22*
%TO.C,JP8*%
X303730000Y-150720000D03*
D23*
X299730000Y-150720000D03*
%TD*%
D34*
%TO.C,TP73*%
X46100000Y-139500000D03*
%TD*%
D13*
%TO.C,R96*%
X443875000Y-171980000D03*
X445875000Y-171980000D03*
%TD*%
D14*
%TO.C,R21*%
X322085000Y-134900000D03*
X314465000Y-134900000D03*
%TD*%
D15*
%TO.C,J58*%
X576500000Y-86750000D03*
%TD*%
D34*
%TO.C,TP36*%
X496360000Y-208240000D03*
%TD*%
D14*
%TO.C,R213*%
X652060000Y-43500000D03*
X644440000Y-43500000D03*
%TD*%
D22*
%TO.C,JP3*%
X65250000Y-141250000D03*
D23*
X61250000Y-141250000D03*
%TD*%
D34*
%TO.C,TP53*%
X531900000Y-204500000D03*
%TD*%
D58*
%TO.C,R159*%
X501300000Y-109550000D03*
X501300000Y-122250000D03*
%TD*%
D22*
%TO.C,JP9*%
X323510000Y-155012500D03*
D23*
X319510000Y-155012500D03*
%TD*%
D15*
%TO.C,J44*%
X528500000Y-67500000D03*
%TD*%
D24*
%TO.C,C43*%
X550537500Y-163500000D03*
X548462500Y-163500000D03*
%TD*%
D55*
%TO.C,R8*%
X44925000Y-92000000D03*
X54075000Y-92000000D03*
%TD*%
D22*
%TO.C,JP4*%
X183793500Y-155153000D03*
D23*
X179793500Y-155153000D03*
%TD*%
D39*
%TO.C,D11*%
X140307500Y-158815000D03*
X136307500Y-158815000D03*
%TD*%
D14*
%TO.C,R184*%
X634750000Y-184250000D03*
X642370000Y-184250000D03*
%TD*%
D34*
%TO.C,TP54*%
X536512500Y-185115000D03*
%TD*%
D71*
X499700000Y-99100000D02*
G75*
G02*
X495700000Y-99100000I-2000000J0D01*
G01*
X495700000Y-99100000D02*
G75*
G02*
X499700000Y-99100000I2000000J0D01*
G01*
X426560000Y-22500000D02*
X663760000Y-22500000D01*
X663760000Y-216550000D01*
X426560000Y-216550000D01*
X426560000Y-22500000D01*
X270500000Y-46500000D02*
G75*
G02*
X266500000Y-46500000I-2000000J0D01*
G01*
X266500000Y-46500000D02*
G75*
G02*
X270500000Y-46500000I2000000J0D01*
G01*
X304000000Y-47000000D02*
G75*
G02*
X300000000Y-47000000I-2000000J0D01*
G01*
X300000000Y-47000000D02*
G75*
G02*
X304000000Y-47000000I2000000J0D01*
G01*
X564800000Y-100000000D02*
G75*
G02*
X560800000Y-100000000I-2000000J0D01*
G01*
X560800000Y-100000000D02*
G75*
G02*
X564800000Y-100000000I2000000J0D01*
G01*
X459750000Y-85500000D02*
G75*
G02*
X455750000Y-85500000I-2000000J0D01*
G01*
X455750000Y-85500000D02*
G75*
G02*
X459750000Y-85500000I2000000J0D01*
G01*
X397500000Y-176000000D02*
G75*
G02*
X393500000Y-176000000I-2000000J0D01*
G01*
X393500000Y-176000000D02*
G75*
G02*
X397500000Y-176000000I2000000J0D01*
G01*
X25250000Y-172250000D02*
G75*
G02*
X21250000Y-172250000I-2000000J0D01*
G01*
X21250000Y-172250000D02*
G75*
G02*
X25250000Y-172250000I2000000J0D01*
G01*
X400000000Y-23000000D02*
G75*
G02*
X396000000Y-23000000I-2000000J0D01*
G01*
X396000000Y-23000000D02*
G75*
G02*
X400000000Y-23000000I2000000J0D01*
G01*
X657500000Y-28250000D02*
G75*
G02*
X653500000Y-28250000I-2000000J0D01*
G01*
X653500000Y-28250000D02*
G75*
G02*
X657500000Y-28250000I2000000J0D01*
G01*
X157250000Y-134750000D02*
G75*
G02*
X153250000Y-134750000I-2000000J0D01*
G01*
X153250000Y-134750000D02*
G75*
G02*
X157250000Y-134750000I2000000J0D01*
G01*
X349250000Y-47500000D02*
G75*
G02*
X345250000Y-47500000I-2000000J0D01*
G01*
X345250000Y-47500000D02*
G75*
G02*
X349250000Y-47500000I2000000J0D01*
G01*
X75750000Y-47000000D02*
G75*
G02*
X71750000Y-47000000I-2000000J0D01*
G01*
X71750000Y-47000000D02*
G75*
G02*
X75750000Y-47000000I2000000J0D01*
G01*
X280750000Y-134250000D02*
G75*
G02*
X276750000Y-134250000I-2000000J0D01*
G01*
X276750000Y-134250000D02*
G75*
G02*
X280750000Y-134250000I2000000J0D01*
G01*
X435500000Y-28750000D02*
G75*
G02*
X431500000Y-28750000I-2000000J0D01*
G01*
X431500000Y-28750000D02*
G75*
G02*
X435500000Y-28750000I2000000J0D01*
G01*
X451250000Y-212750000D02*
G75*
G02*
X447250000Y-212750000I-2000000J0D01*
G01*
X447250000Y-212750000D02*
G75*
G02*
X451250000Y-212750000I2000000J0D01*
G01*
X117500000Y-47000000D02*
G75*
G02*
X113500000Y-47000000I-2000000J0D01*
G01*
X113500000Y-47000000D02*
G75*
G02*
X117500000Y-47000000I2000000J0D01*
G01*
X19500000Y-17500000D02*
X403500000Y-17500000D01*
X403500000Y-183500000D01*
X19500000Y-183500000D01*
X19500000Y-17500000D01*
X607500000Y-202250000D02*
G75*
G02*
X603500000Y-202250000I-2000000J0D01*
G01*
X603500000Y-202250000D02*
G75*
G02*
X607500000Y-202250000I2000000J0D01*
G01*
X228250000Y-23000000D02*
G75*
G02*
X224250000Y-23000000I-2000000J0D01*
G01*
X224250000Y-23000000D02*
G75*
G02*
X228250000Y-23000000I2000000J0D01*
G01*
X655500000Y-85500000D02*
G75*
G02*
X651500000Y-85500000I-2000000J0D01*
G01*
X651500000Y-85500000D02*
G75*
G02*
X655500000Y-85500000I2000000J0D01*
G01*
X167000000Y-47000000D02*
G75*
G02*
X163000000Y-47000000I-2000000J0D01*
G01*
X163000000Y-47000000D02*
G75*
G02*
X167000000Y-47000000I2000000J0D01*
G01*
X27000000Y-23000000D02*
G75*
G02*
X23000000Y-23000000I-2000000J0D01*
G01*
X23000000Y-23000000D02*
G75*
G02*
X27000000Y-23000000I2000000J0D01*
G01*
X191500000Y-176000000D02*
G75*
G02*
X187500000Y-176000000I-2000000J0D01*
G01*
X187500000Y-176000000D02*
G75*
G02*
X191500000Y-176000000I2000000J0D01*
G01*
M02*
