%TF.GenerationSoftware,KiCad,Pcbnew,9.0.3*%
%TF.CreationDate,2025-09-26T22:05:40+02:00*%
%TF.ProjectId,Cur_Emul,4375725f-456d-4756-9c2e-6b696361645f,rev?*%
%TF.SameCoordinates,Original*%
%TF.FileFunction,Paste,Top*%
%TF.FilePolarity,Positive*%
%FSLAX46Y46*%
G04 Gerber Fmt 4.6, Leading zero omitted, Abs format (unit mm)*
G04 Created by KiCad (PCBNEW 9.0.3) date 2025-09-26 22:05:40*
%MOMM*%
%LPD*%
G01*
G04 APERTURE LIST*
G04 Aperture macros list*
%AMRoundRect*
0 Rectangle with rounded corners*
0 $1 Rounding radius*
0 $2 $3 $4 $5 $6 $7 $8 $9 X,Y pos of 4 corners*
0 Add a 4 corners polygon primitive as box body*
4,1,4,$2,$3,$4,$5,$6,$7,$8,$9,$2,$3,0*
0 Add four circle primitives for the rounded corners*
1,1,$1+$1,$2,$3*
1,1,$1+$1,$4,$5*
1,1,$1+$1,$6,$7*
1,1,$1+$1,$8,$9*
0 Add four rect primitives between the rounded corners*
20,1,$1+$1,$2,$3,$4,$5,0*
20,1,$1+$1,$4,$5,$6,$7,0*
20,1,$1+$1,$6,$7,$8,$9,0*
20,1,$1+$1,$8,$9,$2,$3,0*%
G04 Aperture macros list end*
%ADD10RoundRect,0.250001X0.499999X0.639999X-0.499999X0.639999X-0.499999X-0.639999X0.499999X-0.639999X0*%
%ADD11RoundRect,0.250000X-0.350000X-0.450000X0.350000X-0.450000X0.350000X0.450000X-0.350000X0.450000X0*%
%ADD12RoundRect,0.375000X-0.625000X-0.375000X0.625000X-0.375000X0.625000X0.375000X-0.625000X0.375000X0*%
%ADD13RoundRect,0.500000X-0.500000X-1.400000X0.500000X-1.400000X0.500000X1.400000X-0.500000X1.400000X0*%
%ADD14C,3.100000*%
%ADD15RoundRect,0.250000X-1.050000X-0.550000X1.050000X-0.550000X1.050000X0.550000X-1.050000X0.550000X0*%
%ADD16RoundRect,0.250000X0.350000X0.450000X-0.350000X0.450000X-0.350000X-0.450000X0.350000X-0.450000X0*%
%ADD17R,3.940000X5.840000*%
%ADD18RoundRect,0.250000X-0.337500X-0.475000X0.337500X-0.475000X0.337500X0.475000X-0.337500X0.475000X0*%
%ADD19RoundRect,0.250000X1.000000X0.650000X-1.000000X0.650000X-1.000000X-0.650000X1.000000X-0.650000X0*%
%ADD20RoundRect,0.250000X1.500000X0.550000X-1.500000X0.550000X-1.500000X-0.550000X1.500000X-0.550000X0*%
%ADD21RoundRect,0.250000X0.450000X-0.325000X0.450000X0.325000X-0.450000X0.325000X-0.450000X-0.325000X0*%
%ADD22RoundRect,0.250000X-0.412500X-0.650000X0.412500X-0.650000X0.412500X0.650000X-0.412500X0.650000X0*%
%ADD23RoundRect,0.150000X-0.825000X-0.150000X0.825000X-0.150000X0.825000X0.150000X-0.825000X0.150000X0*%
%ADD24RoundRect,0.250000X0.337500X0.475000X-0.337500X0.475000X-0.337500X-0.475000X0.337500X-0.475000X0*%
%ADD25RoundRect,0.250000X0.400000X0.750000X-0.400000X0.750000X-0.400000X-0.750000X0.400000X-0.750000X0*%
%ADD26RoundRect,0.250000X0.750000X0.750000X-0.750000X0.750000X-0.750000X-0.750000X0.750000X-0.750000X0*%
%ADD27RoundRect,0.250000X-0.450000X0.350000X-0.450000X-0.350000X0.450000X-0.350000X0.450000X0.350000X0*%
%ADD28RoundRect,0.250000X0.450000X-0.350000X0.450000X0.350000X-0.450000X0.350000X-0.450000X-0.350000X0*%
%ADD29R,5.840000X3.940000*%
%ADD30RoundRect,0.250000X1.050000X0.550000X-1.050000X0.550000X-1.050000X-0.550000X1.050000X-0.550000X0*%
%ADD31RoundRect,0.150000X0.825000X0.150000X-0.825000X0.150000X-0.825000X-0.150000X0.825000X-0.150000X0*%
%ADD32RoundRect,0.250000X0.412500X0.650000X-0.412500X0.650000X-0.412500X-0.650000X0.412500X-0.650000X0*%
G04 APERTURE END LIST*
D10*
%TO.C,U20*%
X630575000Y-151040000D03*
X630575000Y-148500000D03*
X621045000Y-148500000D03*
X621045000Y-151040000D03*
%TD*%
%TO.C,U22*%
X630102500Y-170540000D03*
X630102500Y-168000000D03*
X620572500Y-168000000D03*
X620572500Y-170540000D03*
%TD*%
D11*
%TO.C,R174*%
X502750000Y-31250000D03*
X500750000Y-31250000D03*
%TD*%
D12*
%TO.C,U13*%
X45850000Y-155450000D03*
X45850000Y-157750000D03*
D13*
X52150000Y-157750000D03*
D12*
X45850000Y-160050000D03*
%TD*%
D11*
%TO.C,R61*%
X78502000Y-132353000D03*
X76502000Y-132353000D03*
%TD*%
D14*
%TO.C,J10*%
X150565000Y-75065000D03*
X150565000Y-80935000D03*
X156435000Y-75065000D03*
X156435000Y-80935000D03*
%TD*%
%TO.C,J13*%
X313065000Y-94065000D03*
X313065000Y-99935000D03*
X318935000Y-94065000D03*
X318935000Y-99935000D03*
%TD*%
D15*
%TO.C,C11*%
X187293500Y-141653000D03*
X190893500Y-141653000D03*
%TD*%
D16*
%TO.C,R65*%
X250477500Y-142650000D03*
X252477500Y-142650000D03*
%TD*%
D14*
%TO.C,J9*%
X124065000Y-94065000D03*
X124065000Y-99935000D03*
X129935000Y-94065000D03*
X129935000Y-99935000D03*
%TD*%
D17*
%TO.C,R4*%
X99075000Y-92000000D03*
X89925000Y-92000000D03*
%TD*%
D16*
%TO.C,R58*%
X90750000Y-131750000D03*
X92750000Y-131750000D03*
%TD*%
%TO.C,R36*%
X64294000Y-130067000D03*
X66294000Y-130067000D03*
%TD*%
D11*
%TO.C,R67*%
X200693500Y-147053000D03*
X198693500Y-147053000D03*
%TD*%
D14*
%TO.C,J1*%
X246935000Y-108935000D03*
X246935000Y-103065000D03*
X241065000Y-108935000D03*
X241065000Y-103065000D03*
%TD*%
D18*
%TO.C,C25*%
X321425000Y-144800000D03*
X319350000Y-144800000D03*
%TD*%
D19*
%TO.C,D14*%
X115100000Y-163900000D03*
X119100000Y-163900000D03*
%TD*%
D18*
%TO.C,C8*%
X200831000Y-149553000D03*
X198756000Y-149553000D03*
%TD*%
D19*
%TO.C,D9*%
X94875000Y-157925000D03*
X98875000Y-157925000D03*
%TD*%
D17*
%TO.C,R6*%
X54075000Y-74000000D03*
X44925000Y-74000000D03*
%TD*%
D15*
%TO.C,C19*%
X148832500Y-154340000D03*
X145232500Y-154340000D03*
%TD*%
D16*
%TO.C,R165*%
X243500000Y-96000000D03*
X245500000Y-96000000D03*
%TD*%
D17*
%TO.C,R22*%
X378075000Y-74000000D03*
X368925000Y-74000000D03*
%TD*%
D16*
%TO.C,R89*%
X250540000Y-149450000D03*
X252540000Y-149450000D03*
%TD*%
D11*
%TO.C,R26*%
X68834000Y-145053000D03*
X66834000Y-145053000D03*
%TD*%
D19*
%TO.C,D12*%
X154400000Y-164790000D03*
X158400000Y-164790000D03*
%TD*%
D16*
%TO.C,R66*%
X250477500Y-144850000D03*
X252477500Y-144850000D03*
%TD*%
%TO.C,R83*%
X216550000Y-165900000D03*
X218550000Y-165900000D03*
%TD*%
D19*
%TO.C,D21*%
X136407500Y-166515000D03*
X140407500Y-166515000D03*
%TD*%
D14*
%TO.C,J12*%
X295065000Y-75065000D03*
X295065000Y-80935000D03*
X300935000Y-75065000D03*
X300935000Y-80935000D03*
%TD*%
D11*
%TO.C,R88*%
X266340000Y-156290000D03*
X264340000Y-156290000D03*
%TD*%
D17*
%TO.C,R16*%
X288075000Y-92000000D03*
X278925000Y-92000000D03*
%TD*%
%TO.C,R15*%
X288075000Y-83000000D03*
X278925000Y-83000000D03*
%TD*%
D11*
%TO.C,R78*%
X321375000Y-147100000D03*
X319375000Y-147100000D03*
%TD*%
D17*
%TO.C,R24*%
X378075000Y-92000000D03*
X368925000Y-92000000D03*
%TD*%
D16*
%TO.C,R38*%
X182293500Y-144753000D03*
X184293500Y-144753000D03*
%TD*%
D20*
%TO.C,C47*%
X36050000Y-157750000D03*
X41450000Y-157750000D03*
%TD*%
D11*
%TO.C,R101*%
X139432500Y-151940000D03*
X137432500Y-151940000D03*
%TD*%
%TO.C,R33*%
X183993500Y-152153000D03*
X181993500Y-152153000D03*
%TD*%
D17*
%TO.C,R14*%
X288075000Y-74000000D03*
X278925000Y-74000000D03*
%TD*%
D11*
%TO.C,R69*%
X196493500Y-147053000D03*
X194493500Y-147053000D03*
%TD*%
D16*
%TO.C,R50*%
X194493500Y-154653000D03*
X196493500Y-154653000D03*
%TD*%
D14*
%TO.C,J5*%
X39935000Y-99935000D03*
X39935000Y-94065000D03*
X34065000Y-99935000D03*
X34065000Y-94065000D03*
%TD*%
D16*
%TO.C,R34*%
X175702500Y-154859000D03*
X177702500Y-154859000D03*
%TD*%
D21*
%TO.C,D16*%
X37750000Y-148975000D03*
X37750000Y-151025000D03*
%TD*%
D14*
%TO.C,J3*%
X192673000Y-103773000D03*
X192673000Y-97903000D03*
X186803000Y-103773000D03*
X186803000Y-97903000D03*
%TD*%
D11*
%TO.C,R40*%
X307425000Y-155000000D03*
X305425000Y-155000000D03*
%TD*%
%TO.C,R72*%
X200793500Y-154653000D03*
X198793500Y-154653000D03*
%TD*%
D22*
%TO.C,C28*%
X268062500Y-151590000D03*
X264937500Y-151590000D03*
%TD*%
D14*
%TO.C,J6*%
X66935000Y-75065000D03*
X61065000Y-75065000D03*
X66935000Y-80935000D03*
X61065000Y-80935000D03*
%TD*%
%TO.C,J11*%
X268065000Y-94065000D03*
X268065000Y-99935000D03*
X273935000Y-94065000D03*
X273935000Y-99935000D03*
%TD*%
D11*
%TO.C,R42*%
X304600000Y-147350000D03*
X302600000Y-147350000D03*
%TD*%
D23*
%TO.C,U2*%
X191868500Y-147543000D03*
X191868500Y-148813000D03*
X191868500Y-150083000D03*
X191868500Y-151353000D03*
X191868500Y-152623000D03*
X191868500Y-153893000D03*
X191868500Y-155163000D03*
X186918500Y-155163000D03*
X186918500Y-153893000D03*
X186918500Y-152623000D03*
X186918500Y-151353000D03*
X186918500Y-150083000D03*
X186918500Y-148813000D03*
X186918500Y-147543000D03*
%TD*%
D11*
%TO.C,R29*%
X59674000Y-140227000D03*
X57674000Y-140227000D03*
%TD*%
D16*
%TO.C,R45*%
X302875000Y-139975000D03*
X304875000Y-139975000D03*
%TD*%
D23*
%TO.C,U6*%
X150357500Y-160140000D03*
X150357500Y-161410000D03*
X150357500Y-162680000D03*
X150357500Y-163950000D03*
X150357500Y-165220000D03*
X150357500Y-166490000D03*
X150357500Y-167760000D03*
X145407500Y-167760000D03*
X145407500Y-166490000D03*
X145407500Y-165220000D03*
X145407500Y-163950000D03*
X145407500Y-162680000D03*
X145407500Y-161410000D03*
X145407500Y-160140000D03*
%TD*%
D11*
%TO.C,R84*%
X257940000Y-157250000D03*
X255940000Y-157250000D03*
%TD*%
D16*
%TO.C,R166*%
X236250000Y-96000000D03*
X238250000Y-96000000D03*
%TD*%
D11*
%TO.C,R70*%
X196493500Y-149553000D03*
X194493500Y-149553000D03*
%TD*%
D19*
%TO.C,D5*%
X95000000Y-169450000D03*
X99000000Y-169450000D03*
%TD*%
D20*
%TO.C,C3*%
X42200000Y-127500000D03*
X36800000Y-127500000D03*
%TD*%
D19*
%TO.C,D13*%
X154400000Y-161090000D03*
X158400000Y-161090000D03*
%TD*%
D15*
%TO.C,C12*%
X311496000Y-136938000D03*
X307896000Y-136938000D03*
%TD*%
D11*
%TO.C,R85*%
X252540000Y-154250000D03*
X250540000Y-154250000D03*
%TD*%
D24*
%TO.C,C1*%
X177856000Y-152053000D03*
X179931000Y-152053000D03*
%TD*%
D19*
%TO.C,D19*%
X145532500Y-170540000D03*
X149532500Y-170540000D03*
%TD*%
D14*
%TO.C,J21*%
X227935000Y-84565000D03*
X222065000Y-84565000D03*
X227935000Y-90435000D03*
X222065000Y-90435000D03*
%TD*%
D16*
%TO.C,R93*%
X198693500Y-161503000D03*
X200693500Y-161503000D03*
%TD*%
D17*
%TO.C,R8*%
X54075000Y-92000000D03*
X44925000Y-92000000D03*
%TD*%
D19*
%TO.C,D11*%
X136307500Y-158815000D03*
X140307500Y-158815000D03*
%TD*%
D25*
%TO.C,RV3*%
X313625000Y-156700000D03*
D26*
X312475000Y-152700000D03*
D25*
X311325000Y-156700000D03*
%TD*%
D24*
%TO.C,C2*%
X59917000Y-137433000D03*
X61992000Y-137433000D03*
%TD*%
D18*
%TO.C,C7*%
X82863000Y-134893000D03*
X80788000Y-134893000D03*
%TD*%
D17*
%TO.C,R7*%
X54075000Y-83000000D03*
X44925000Y-83000000D03*
%TD*%
D11*
%TO.C,R82*%
X214142000Y-169584000D03*
X212142000Y-169584000D03*
%TD*%
D17*
%TO.C,R3*%
X99075000Y-83000000D03*
X89925000Y-83000000D03*
%TD*%
D14*
%TO.C,J8*%
X111935000Y-80935000D03*
X111935000Y-75065000D03*
X106065000Y-80935000D03*
X106065000Y-75065000D03*
%TD*%
D11*
%TO.C,R60*%
X78502000Y-134893000D03*
X76502000Y-134893000D03*
%TD*%
D19*
%TO.C,D7*%
X94975000Y-161725000D03*
X98975000Y-161725000D03*
%TD*%
D17*
%TO.C,R23*%
X378075000Y-83000000D03*
X368925000Y-83000000D03*
%TD*%
D11*
%TO.C,R87*%
X266340000Y-154000000D03*
X264340000Y-154000000D03*
%TD*%
D18*
%TO.C,C15*%
X310950000Y-140750000D03*
X308875000Y-140750000D03*
%TD*%
D11*
%TO.C,R37*%
X186793500Y-157453000D03*
X184793500Y-157453000D03*
%TD*%
D17*
%TO.C,R12*%
X144075000Y-92000000D03*
X134925000Y-92000000D03*
%TD*%
D23*
%TO.C,U1*%
X73865000Y-132861000D03*
X73865000Y-134131000D03*
X73865000Y-135401000D03*
X73865000Y-136671000D03*
X73865000Y-137941000D03*
X73865000Y-139211000D03*
X73865000Y-140481000D03*
X68915000Y-140481000D03*
X68915000Y-139211000D03*
X68915000Y-137941000D03*
X68915000Y-136671000D03*
X68915000Y-135401000D03*
X68915000Y-134131000D03*
X68915000Y-132861000D03*
%TD*%
D16*
%TO.C,R86*%
X266250000Y-146500000D03*
X264250000Y-146500000D03*
%TD*%
D19*
%TO.C,D22*%
X136407500Y-162615000D03*
X140407500Y-162615000D03*
%TD*%
D11*
%TO.C,R98*%
X116500000Y-166900000D03*
X114500000Y-166900000D03*
%TD*%
D16*
%TO.C,R156*%
X44250000Y-121750000D03*
X46250000Y-121750000D03*
%TD*%
D17*
%TO.C,R20*%
X333075000Y-92000000D03*
X323925000Y-92000000D03*
%TD*%
%TO.C,R18*%
X333075000Y-74000000D03*
X323925000Y-74000000D03*
%TD*%
D19*
%TO.C,D6*%
X94975000Y-165625000D03*
X98975000Y-165625000D03*
%TD*%
D16*
%TO.C,R155*%
X45500000Y-150750000D03*
X47500000Y-150750000D03*
%TD*%
D18*
%TO.C,C22*%
X148632500Y-158040000D03*
X146557500Y-158040000D03*
%TD*%
D17*
%TO.C,R19*%
X333075000Y-83000000D03*
X323925000Y-83000000D03*
%TD*%
D11*
%TO.C,R154*%
X47500000Y-148250000D03*
X45500000Y-148250000D03*
%TD*%
D21*
%TO.C,D17*%
X253500000Y-91475000D03*
X253500000Y-93525000D03*
%TD*%
D17*
%TO.C,R10*%
X144075000Y-74000000D03*
X134925000Y-74000000D03*
%TD*%
D18*
%TO.C,C17*%
X259340000Y-144800000D03*
X257265000Y-144800000D03*
%TD*%
D11*
%TO.C,R27*%
X66056000Y-137433000D03*
X64056000Y-137433000D03*
%TD*%
D18*
%TO.C,C18*%
X72406000Y-130829000D03*
X70331000Y-130829000D03*
%TD*%
D19*
%TO.C,D15*%
X115100000Y-160200000D03*
X119100000Y-160200000D03*
%TD*%
D11*
%TO.C,R62*%
X82788000Y-132353000D03*
X80788000Y-132353000D03*
%TD*%
D24*
%TO.C,C4*%
X298462500Y-147350000D03*
X300537500Y-147350000D03*
%TD*%
D11*
%TO.C,R75*%
X321375000Y-142250000D03*
X319375000Y-142250000D03*
%TD*%
D17*
%TO.C,R2*%
X99075000Y-74000000D03*
X89925000Y-74000000D03*
%TD*%
D19*
%TO.C,D20*%
X136432500Y-170340000D03*
X140432500Y-170340000D03*
%TD*%
D11*
%TO.C,R46*%
X307375000Y-152700000D03*
X305375000Y-152700000D03*
%TD*%
D14*
%TO.C,J7*%
X84935000Y-99935000D03*
X84935000Y-94065000D03*
X79065000Y-99935000D03*
X79065000Y-94065000D03*
%TD*%
D11*
%TO.C,R76*%
X317075000Y-142250000D03*
X315075000Y-142250000D03*
%TD*%
D16*
%TO.C,R59*%
X76502000Y-139973000D03*
X78502000Y-139973000D03*
%TD*%
D11*
%TO.C,R31*%
X186793500Y-159753000D03*
X184793500Y-159753000D03*
%TD*%
D16*
%TO.C,R30*%
X182293500Y-142453000D03*
X184293500Y-142453000D03*
%TD*%
D12*
%TO.C,U7*%
X46350000Y-129800000D03*
D13*
X52650000Y-127500000D03*
D12*
X46350000Y-127500000D03*
X46350000Y-125200000D03*
%TD*%
D21*
%TO.C,D3*%
X37000000Y-119475000D03*
X37000000Y-121525000D03*
%TD*%
D16*
%TO.C,R25*%
X64294000Y-127781000D03*
X66294000Y-127781000D03*
%TD*%
D23*
%TO.C,U3*%
X312400000Y-142790000D03*
X312400000Y-144060000D03*
X312400000Y-145330000D03*
X312400000Y-146600000D03*
X312400000Y-147870000D03*
X312400000Y-149140000D03*
X312400000Y-150410000D03*
X307450000Y-150410000D03*
X307450000Y-149140000D03*
X307450000Y-147870000D03*
X307450000Y-146600000D03*
X307450000Y-145330000D03*
X307450000Y-144060000D03*
X307450000Y-142790000D03*
%TD*%
D14*
%TO.C,J4*%
X167781000Y-108599000D03*
X167781000Y-102729000D03*
X161911000Y-108599000D03*
X161911000Y-102729000D03*
%TD*%
D18*
%TO.C,C16*%
X190431000Y-145453000D03*
X188356000Y-145453000D03*
%TD*%
D16*
%TO.C,R73*%
X315075000Y-149900000D03*
X317075000Y-149900000D03*
%TD*%
D14*
%TO.C,J2*%
X225435000Y-122435000D03*
X225435000Y-116565000D03*
X219565000Y-122435000D03*
X219565000Y-116565000D03*
%TD*%
D11*
%TO.C,R79*%
X321325000Y-149850000D03*
X319325000Y-149850000D03*
%TD*%
D15*
%TO.C,C14*%
X72936000Y-127019000D03*
X69336000Y-127019000D03*
%TD*%
D11*
%TO.C,R71*%
X200793500Y-151853000D03*
X198793500Y-151853000D03*
%TD*%
%TO.C,R32*%
X183993500Y-149813000D03*
X181993500Y-149813000D03*
%TD*%
%TO.C,R28*%
X66056000Y-135147000D03*
X64056000Y-135147000D03*
%TD*%
D27*
%TO.C,R163*%
X41250000Y-151000000D03*
X41250000Y-149000000D03*
%TD*%
D11*
%TO.C,R97*%
X98100000Y-151050000D03*
X96100000Y-151050000D03*
%TD*%
D14*
%TO.C,J22*%
X250435000Y-74065000D03*
X244565000Y-74065000D03*
X250435000Y-79935000D03*
X244565000Y-79935000D03*
%TD*%
D23*
%TO.C,U5*%
X108925000Y-159250000D03*
X108925000Y-160520000D03*
X108925000Y-161790000D03*
X108925000Y-163060000D03*
X108925000Y-164330000D03*
X108925000Y-165600000D03*
X108925000Y-166870000D03*
X103975000Y-166870000D03*
X103975000Y-165600000D03*
X103975000Y-164330000D03*
X103975000Y-163060000D03*
X103975000Y-161790000D03*
X103975000Y-160520000D03*
X103975000Y-159250000D03*
%TD*%
D22*
%TO.C,C26*%
X253102500Y-156450000D03*
X249977500Y-156450000D03*
%TD*%
D19*
%TO.C,D8*%
X94875000Y-154125000D03*
X98875000Y-154125000D03*
%TD*%
D11*
%TO.C,R77*%
X317075000Y-144800000D03*
X315075000Y-144800000D03*
%TD*%
D15*
%TO.C,C20*%
X107400000Y-153450000D03*
X103800000Y-153450000D03*
%TD*%
%TO.C,C13*%
X259540000Y-141250000D03*
X255940000Y-141250000D03*
%TD*%
D25*
%TO.C,RV2*%
X193043500Y-161453000D03*
D26*
X191893500Y-157453000D03*
D25*
X190743500Y-161453000D03*
%TD*%
D16*
%TO.C,R39*%
X302900000Y-137670000D03*
X304900000Y-137670000D03*
%TD*%
D18*
%TO.C,C23*%
X107200000Y-157150000D03*
X105125000Y-157150000D03*
%TD*%
D16*
%TO.C,R80*%
X218500000Y-162000000D03*
X216500000Y-162000000D03*
%TD*%
%TO.C,R81*%
X212000000Y-165750000D03*
X214000000Y-165750000D03*
%TD*%
D25*
%TO.C,RV1*%
X75080000Y-146799000D03*
D26*
X73930000Y-142799000D03*
D25*
X72780000Y-146799000D03*
%TD*%
D16*
%TO.C,R91*%
X264250000Y-148750000D03*
X266250000Y-148750000D03*
%TD*%
D11*
%TO.C,R74*%
X266250000Y-144250000D03*
X264250000Y-144250000D03*
%TD*%
D19*
%TO.C,D10*%
X136307500Y-155015000D03*
X140307500Y-155015000D03*
%TD*%
D16*
%TO.C,R57*%
X318750000Y-156800000D03*
X320750000Y-156800000D03*
%TD*%
D19*
%TO.C,D4*%
X104100000Y-169650000D03*
X108100000Y-169650000D03*
%TD*%
D11*
%TO.C,R63*%
X82804000Y-137179000D03*
X80804000Y-137179000D03*
%TD*%
%TO.C,R35*%
X68834000Y-142767000D03*
X66834000Y-142767000D03*
%TD*%
%TO.C,R41*%
X304625000Y-145100000D03*
X302625000Y-145100000D03*
%TD*%
%TO.C,R99*%
X155800000Y-167790000D03*
X153800000Y-167790000D03*
%TD*%
%TO.C,R157*%
X46250000Y-119000000D03*
X44250000Y-119000000D03*
%TD*%
%TO.C,R43*%
X298250000Y-150150000D03*
X296250000Y-150150000D03*
%TD*%
D14*
%TO.C,J15*%
X358065000Y-94065000D03*
X358065000Y-99935000D03*
X363935000Y-94065000D03*
X363935000Y-99935000D03*
%TD*%
D22*
%TO.C,C27*%
X252440000Y-147050000D03*
X249315000Y-147050000D03*
%TD*%
D11*
%TO.C,R64*%
X82788000Y-139973000D03*
X80788000Y-139973000D03*
%TD*%
D14*
%TO.C,J14*%
X345935000Y-80935000D03*
X345935000Y-75065000D03*
X340065000Y-80935000D03*
X340065000Y-75065000D03*
%TD*%
D17*
%TO.C,R11*%
X144075000Y-83000000D03*
X134925000Y-83000000D03*
%TD*%
D23*
%TO.C,U4*%
X255765000Y-146690000D03*
X255765000Y-147960000D03*
X255765000Y-149230000D03*
X255765000Y-150500000D03*
X255765000Y-151770000D03*
X255765000Y-153040000D03*
X255765000Y-154310000D03*
X260715000Y-154310000D03*
X260715000Y-153040000D03*
X260715000Y-151770000D03*
X260715000Y-150500000D03*
X260715000Y-149230000D03*
X260715000Y-147960000D03*
X260715000Y-146690000D03*
%TD*%
D16*
%TO.C,R90*%
X250540000Y-151850000D03*
X252540000Y-151850000D03*
%TD*%
D27*
%TO.C,R162*%
X40750000Y-121500000D03*
X40750000Y-119500000D03*
%TD*%
D10*
%TO.C,U23*%
X630352500Y-208790000D03*
X630352500Y-206250000D03*
X620822500Y-206250000D03*
X620822500Y-208790000D03*
%TD*%
%TO.C,U21*%
X630075000Y-131040000D03*
X630075000Y-128500000D03*
X620545000Y-128500000D03*
X620545000Y-131040000D03*
%TD*%
D28*
%TO.C,R218*%
X452500000Y-196000000D03*
X452500000Y-194000000D03*
%TD*%
%TO.C,R217*%
X455000000Y-196000000D03*
X455000000Y-194000000D03*
%TD*%
D27*
%TO.C,R216*%
X452500000Y-203000000D03*
X452500000Y-205000000D03*
%TD*%
%TO.C,R215*%
X455000000Y-203000000D03*
X455000000Y-205000000D03*
%TD*%
D28*
%TO.C,R164*%
X447500000Y-109000000D03*
X447500000Y-107000000D03*
%TD*%
%TO.C,R161*%
X447500000Y-104500000D03*
X447500000Y-102500000D03*
%TD*%
D21*
%TO.C,D23*%
X450000000Y-196025000D03*
X450000000Y-193975000D03*
%TD*%
%TO.C,D18*%
X450000000Y-205025000D03*
X450000000Y-202975000D03*
%TD*%
%TO.C,D2*%
X447500000Y-113525000D03*
X447500000Y-111475000D03*
%TD*%
D29*
%TO.C,R160*%
X592500000Y-136425000D03*
X592500000Y-145575000D03*
%TD*%
%TO.C,R159*%
X535000000Y-136425000D03*
X535000000Y-145575000D03*
%TD*%
%TO.C,R47*%
X480500000Y-136540000D03*
X480500000Y-145690000D03*
%TD*%
D24*
%TO.C,C46*%
X478075000Y-192000000D03*
X476000000Y-192000000D03*
%TD*%
%TO.C,C43*%
X550537500Y-163500000D03*
X548462500Y-163500000D03*
%TD*%
%TO.C,C42*%
X524537500Y-189000000D03*
X522462500Y-189000000D03*
%TD*%
D30*
%TO.C,C40*%
X504300000Y-159500000D03*
X500700000Y-159500000D03*
%TD*%
%TO.C,C39*%
X459300000Y-159000000D03*
X455700000Y-159000000D03*
%TD*%
%TO.C,C38*%
X551800000Y-160000000D03*
X548200000Y-160000000D03*
%TD*%
%TO.C,C37*%
X525100000Y-185500000D03*
X521500000Y-185500000D03*
%TD*%
D16*
%TO.C,R136*%
X524035000Y-201135000D03*
X526035000Y-201135000D03*
%TD*%
D11*
%TO.C,R104*%
X486237500Y-208935000D03*
X484237500Y-208935000D03*
%TD*%
%TO.C,R52*%
X448537500Y-164135000D03*
X450537500Y-164135000D03*
%TD*%
D25*
%TO.C,RV9*%
X538187500Y-165085000D03*
D26*
X537037500Y-161085000D03*
D25*
X535887500Y-165085000D03*
%TD*%
D11*
%TO.C,R147*%
X567537500Y-167335000D03*
X565537500Y-167335000D03*
%TD*%
D16*
%TO.C,R141*%
X536537500Y-167585000D03*
X538537500Y-167585000D03*
%TD*%
D28*
%TO.C,R139*%
X542765000Y-175645000D03*
X542765000Y-177645000D03*
%TD*%
D16*
%TO.C,R143*%
X541287500Y-162335000D03*
X543287500Y-162335000D03*
%TD*%
D11*
%TO.C,R140*%
X538515000Y-171615000D03*
X536515000Y-171615000D03*
%TD*%
D25*
%TO.C,RV8*%
X532037500Y-167085000D03*
D26*
X530887500Y-163085000D03*
D25*
X529737500Y-167085000D03*
%TD*%
D24*
%TO.C,C35*%
X536500000Y-177835000D03*
X538575000Y-177835000D03*
%TD*%
D11*
%TO.C,R145*%
X547787500Y-176615000D03*
X545787500Y-176615000D03*
%TD*%
%TO.C,R149*%
X557787500Y-164335000D03*
X555787500Y-164335000D03*
%TD*%
%TO.C,R144*%
X543287500Y-164835000D03*
X541287500Y-164835000D03*
%TD*%
D16*
%TO.C,R142*%
X536537500Y-175335000D03*
X538537500Y-175335000D03*
%TD*%
D11*
%TO.C,R148*%
X556787500Y-173585000D03*
X554787500Y-173585000D03*
%TD*%
D31*
%TO.C,U11*%
X547062500Y-173395000D03*
X547062500Y-172125000D03*
X547062500Y-170855000D03*
X547062500Y-169585000D03*
X547062500Y-168315000D03*
X547062500Y-167045000D03*
X547062500Y-165775000D03*
X552012500Y-165775000D03*
X552012500Y-167045000D03*
X552012500Y-168315000D03*
X552012500Y-169585000D03*
X552012500Y-170855000D03*
X552012500Y-172125000D03*
X552012500Y-173395000D03*
%TD*%
D11*
%TO.C,R146*%
X567537500Y-170085000D03*
X565537500Y-170085000D03*
%TD*%
D18*
%TO.C,C36*%
X543325000Y-159835000D03*
X541250000Y-159835000D03*
%TD*%
D16*
%TO.C,R51*%
X450537500Y-161885000D03*
X448537500Y-161885000D03*
%TD*%
D24*
%TO.C,C31*%
X488912500Y-177330000D03*
X490987500Y-177330000D03*
%TD*%
D11*
%TO.C,R124*%
X495725000Y-164040000D03*
X493725000Y-164040000D03*
%TD*%
D16*
%TO.C,R122*%
X488950000Y-175080000D03*
X490950000Y-175080000D03*
%TD*%
D11*
%TO.C,R126*%
X519450000Y-170135000D03*
X517450000Y-170135000D03*
%TD*%
%TO.C,R128*%
X509200000Y-173580000D03*
X507200000Y-173580000D03*
%TD*%
%TO.C,R119*%
X501765000Y-178365000D03*
X499765000Y-178365000D03*
%TD*%
%TO.C,R120*%
X490950000Y-172080000D03*
X488950000Y-172080000D03*
%TD*%
D16*
%TO.C,R123*%
X493725000Y-161790000D03*
X495725000Y-161790000D03*
%TD*%
%TO.C,R121*%
X488950000Y-167330000D03*
X490950000Y-167330000D03*
%TD*%
D25*
%TO.C,RV7*%
X490600000Y-164580000D03*
D26*
X489450000Y-160580000D03*
D25*
X488300000Y-164580000D03*
%TD*%
%TO.C,RV6*%
X484350000Y-166830000D03*
D26*
X483200000Y-162830000D03*
D25*
X482050000Y-166830000D03*
%TD*%
D11*
%TO.C,R129*%
X510450000Y-164080000D03*
X508450000Y-164080000D03*
%TD*%
D31*
%TO.C,U10*%
X504450000Y-173100000D03*
X504450000Y-171830000D03*
X504450000Y-170560000D03*
X504450000Y-169290000D03*
X504450000Y-168020000D03*
X504450000Y-166750000D03*
X504450000Y-165480000D03*
X499500000Y-165480000D03*
X499500000Y-166750000D03*
X499500000Y-168020000D03*
X499500000Y-169290000D03*
X499500000Y-170560000D03*
X499500000Y-171830000D03*
X499500000Y-173100000D03*
%TD*%
D18*
%TO.C,C32*%
X495737500Y-159580000D03*
X493662500Y-159580000D03*
%TD*%
D11*
%TO.C,R127*%
X519450000Y-167135000D03*
X517450000Y-167135000D03*
%TD*%
%TO.C,R95*%
X484237500Y-194965000D03*
X486237500Y-194965000D03*
%TD*%
D16*
%TO.C,R115*%
X469837500Y-199515000D03*
X467837500Y-199515000D03*
%TD*%
%TO.C,R116*%
X469775000Y-191090000D03*
X467775000Y-191090000D03*
%TD*%
D25*
%TO.C,RV5*%
X436975000Y-166730000D03*
D26*
X438125000Y-162730000D03*
D25*
X439275000Y-166730000D03*
%TD*%
D11*
%TO.C,R133*%
X530035000Y-191885000D03*
X532035000Y-191885000D03*
%TD*%
D24*
%TO.C,C6*%
X445912500Y-177230000D03*
X443837500Y-177230000D03*
%TD*%
D11*
%TO.C,R132*%
X529785000Y-200885000D03*
X531785000Y-200885000D03*
%TD*%
%TO.C,R56*%
X462037500Y-173385000D03*
X464037500Y-173385000D03*
%TD*%
D22*
%TO.C,C29*%
X467112500Y-188390000D03*
X470237500Y-188390000D03*
%TD*%
D32*
%TO.C,C24*%
X487300000Y-190215000D03*
X484175000Y-190215000D03*
%TD*%
%TO.C,C30*%
X470300000Y-204215000D03*
X467175000Y-204215000D03*
%TD*%
D11*
%TO.C,R109*%
X443875000Y-169480000D03*
X445875000Y-169480000D03*
%TD*%
D16*
%TO.C,R94*%
X486175000Y-201390000D03*
X484175000Y-201390000D03*
%TD*%
%TO.C,R49*%
X445787500Y-167135000D03*
X443787500Y-167135000D03*
%TD*%
%TO.C,R100*%
X445875000Y-174980000D03*
X443875000Y-174980000D03*
%TD*%
D11*
%TO.C,R118*%
X469765000Y-185615000D03*
X471765000Y-185615000D03*
%TD*%
%TO.C,R102*%
X484175000Y-203965000D03*
X486175000Y-203965000D03*
%TD*%
D32*
%TO.C,C34*%
X532847500Y-189385000D03*
X529722500Y-189385000D03*
%TD*%
D16*
%TO.C,R153*%
X516785000Y-198135000D03*
X514785000Y-198135000D03*
%TD*%
D10*
%TO.C,U19*%
X630825000Y-189290000D03*
X630825000Y-186750000D03*
X621295000Y-186750000D03*
X621295000Y-189290000D03*
%TD*%
D16*
%TO.C,R111*%
X469737500Y-195465000D03*
X467737500Y-195465000D03*
%TD*%
D11*
%TO.C,R107*%
X484237500Y-197215000D03*
X486237500Y-197215000D03*
%TD*%
D16*
%TO.C,R130*%
X521035000Y-203635000D03*
X519035000Y-203635000D03*
%TD*%
D31*
%TO.C,U12*%
X525760000Y-198945000D03*
X525760000Y-197675000D03*
X525760000Y-196405000D03*
X525760000Y-195135000D03*
X525760000Y-193865000D03*
X525760000Y-192595000D03*
X525760000Y-191325000D03*
X520810000Y-191325000D03*
X520810000Y-192595000D03*
X520810000Y-193865000D03*
X520810000Y-195135000D03*
X520810000Y-196405000D03*
X520810000Y-197675000D03*
X520810000Y-198945000D03*
%TD*%
D11*
%TO.C,R103*%
X484175000Y-199290000D03*
X486175000Y-199290000D03*
%TD*%
%TO.C,R105*%
X489475000Y-206390000D03*
X491475000Y-206390000D03*
%TD*%
D16*
%TO.C,R106*%
X485987500Y-187715000D03*
X483987500Y-187715000D03*
%TD*%
D11*
%TO.C,R108*%
X484237500Y-192715000D03*
X486237500Y-192715000D03*
%TD*%
%TO.C,R137*%
X530535000Y-186885000D03*
X532535000Y-186885000D03*
%TD*%
D22*
%TO.C,C33*%
X523472500Y-203635000D03*
X526597500Y-203635000D03*
%TD*%
D16*
%TO.C,R110*%
X469775000Y-193215000D03*
X467775000Y-193215000D03*
%TD*%
D11*
%TO.C,R53*%
X453125000Y-174980000D03*
X455125000Y-174980000D03*
%TD*%
%TO.C,R134*%
X529785000Y-194385000D03*
X531785000Y-194385000D03*
%TD*%
%TO.C,R117*%
X467875000Y-206715000D03*
X469875000Y-206715000D03*
%TD*%
D31*
%TO.C,U9*%
X479737500Y-201985000D03*
X479737500Y-200715000D03*
X479737500Y-199445000D03*
X479737500Y-198175000D03*
X479737500Y-196905000D03*
X479737500Y-195635000D03*
X479737500Y-194365000D03*
X474787500Y-194365000D03*
X474787500Y-195635000D03*
X474787500Y-196905000D03*
X474787500Y-198175000D03*
X474787500Y-199445000D03*
X474787500Y-200715000D03*
X474787500Y-201985000D03*
%TD*%
D10*
%TO.C,U17*%
X630575000Y-111540000D03*
X630575000Y-109000000D03*
X621045000Y-109000000D03*
X621045000Y-111540000D03*
%TD*%
D11*
%TO.C,R173*%
X471000000Y-31750000D03*
X473000000Y-31750000D03*
%TD*%
%TO.C,R131*%
X529785000Y-198635000D03*
X531785000Y-198635000D03*
%TD*%
%TO.C,R54*%
X472337500Y-169885000D03*
X474337500Y-169885000D03*
%TD*%
D16*
%TO.C,R113*%
X469875000Y-208990000D03*
X467875000Y-208990000D03*
%TD*%
D11*
%TO.C,R55*%
X472337500Y-166635000D03*
X474337500Y-166635000D03*
%TD*%
%TO.C,R92*%
X463287500Y-163885000D03*
X465287500Y-163885000D03*
%TD*%
D16*
%TO.C,R175*%
X526000000Y-30000000D03*
X524000000Y-30000000D03*
%TD*%
D31*
%TO.C,U8*%
X459287500Y-172985000D03*
X459287500Y-171715000D03*
X459287500Y-170445000D03*
X459287500Y-169175000D03*
X459287500Y-167905000D03*
X459287500Y-166635000D03*
X459287500Y-165365000D03*
X454337500Y-165365000D03*
X454337500Y-166635000D03*
X454337500Y-167905000D03*
X454337500Y-169175000D03*
X454337500Y-170445000D03*
X454337500Y-171715000D03*
X454337500Y-172985000D03*
%TD*%
D16*
%TO.C,R151*%
X516535000Y-191135000D03*
X514535000Y-191135000D03*
%TD*%
%TO.C,R152*%
X516785000Y-195885000D03*
X514785000Y-195885000D03*
%TD*%
D11*
%TO.C,R112*%
X467775000Y-197490000D03*
X469775000Y-197490000D03*
%TD*%
D32*
%TO.C,C21*%
X486987500Y-206465000D03*
X483862500Y-206465000D03*
%TD*%
D11*
%TO.C,R150*%
X514535000Y-193385000D03*
X516535000Y-193385000D03*
%TD*%
D25*
%TO.C,RV4*%
X443137500Y-164635000D03*
D26*
X444287500Y-160635000D03*
D25*
X445437500Y-164635000D03*
%TD*%
D16*
%TO.C,R135*%
X531785000Y-196385000D03*
X529785000Y-196385000D03*
%TD*%
%TO.C,R114*%
X469875000Y-201715000D03*
X467875000Y-201715000D03*
%TD*%
D11*
%TO.C,R96*%
X443875000Y-171980000D03*
X445875000Y-171980000D03*
%TD*%
D18*
%TO.C,C5*%
X448587500Y-159230000D03*
X450662500Y-159230000D03*
%TD*%
D11*
%TO.C,R138*%
X536515000Y-202865000D03*
X534515000Y-202865000D03*
%TD*%
%TO.C,R125*%
X502515000Y-175115000D03*
X500515000Y-175115000D03*
%TD*%
D24*
%TO.C,C44*%
X503037500Y-163500000D03*
X500962500Y-163500000D03*
%TD*%
D30*
%TO.C,C45*%
X479300000Y-188500000D03*
X475700000Y-188500000D03*
%TD*%
D24*
%TO.C,C41*%
X458037500Y-163000000D03*
X455962500Y-163000000D03*
%TD*%
D14*
%TO.C,J16*%
X385065000Y-75065000D03*
X385065000Y-80935000D03*
X390935000Y-75065000D03*
X390935000Y-80935000D03*
%TD*%
M02*
