%TF.GenerationSoftware,KiCad,Pcbnew,9.0.3*%
%TF.CreationDate,2025-10-05T23:01:11+02:00*%
%TF.ProjectId,Cur_Emul,4375725f-456d-4756-9c2e-6b696361645f,rev?*%
%TF.SameCoordinates,Original*%
%TF.FileFunction,Paste,Bot*%
%TF.FilePolarity,Positive*%
%FSLAX46Y46*%
G04 Gerber Fmt 4.6, Leading zero omitted, Abs format (unit mm)*
G04 Created by KiCad (PCBNEW 9.0.3) date 2025-10-05 23:01:11*
%MOMM*%
%LPD*%
G01*
G04 APERTURE LIST*
%TA.AperFunction,Profile*%
%ADD10C,0.050000*%
%TD*%
G04 APERTURE END LIST*
D10*
X499700000Y-99100000D02*
G75*
G02*
X495700000Y-99100000I-2000000J0D01*
G01*
X495700000Y-99100000D02*
G75*
G02*
X499700000Y-99100000I2000000J0D01*
G01*
X426560000Y-22500000D02*
X663760000Y-22500000D01*
X663760000Y-216550000D01*
X426560000Y-216550000D01*
X426560000Y-22500000D01*
X270500000Y-46500000D02*
G75*
G02*
X266500000Y-46500000I-2000000J0D01*
G01*
X266500000Y-46500000D02*
G75*
G02*
X270500000Y-46500000I2000000J0D01*
G01*
X304000000Y-47000000D02*
G75*
G02*
X300000000Y-47000000I-2000000J0D01*
G01*
X300000000Y-47000000D02*
G75*
G02*
X304000000Y-47000000I2000000J0D01*
G01*
X564800000Y-100000000D02*
G75*
G02*
X560800000Y-100000000I-2000000J0D01*
G01*
X560800000Y-100000000D02*
G75*
G02*
X564800000Y-100000000I2000000J0D01*
G01*
X459750000Y-85500000D02*
G75*
G02*
X455750000Y-85500000I-2000000J0D01*
G01*
X455750000Y-85500000D02*
G75*
G02*
X459750000Y-85500000I2000000J0D01*
G01*
X397500000Y-176000000D02*
G75*
G02*
X393500000Y-176000000I-2000000J0D01*
G01*
X393500000Y-176000000D02*
G75*
G02*
X397500000Y-176000000I2000000J0D01*
G01*
X25250000Y-172250000D02*
G75*
G02*
X21250000Y-172250000I-2000000J0D01*
G01*
X21250000Y-172250000D02*
G75*
G02*
X25250000Y-172250000I2000000J0D01*
G01*
X400000000Y-23000000D02*
G75*
G02*
X396000000Y-23000000I-2000000J0D01*
G01*
X396000000Y-23000000D02*
G75*
G02*
X400000000Y-23000000I2000000J0D01*
G01*
X657500000Y-28250000D02*
G75*
G02*
X653500000Y-28250000I-2000000J0D01*
G01*
X653500000Y-28250000D02*
G75*
G02*
X657500000Y-28250000I2000000J0D01*
G01*
X157250000Y-134750000D02*
G75*
G02*
X153250000Y-134750000I-2000000J0D01*
G01*
X153250000Y-134750000D02*
G75*
G02*
X157250000Y-134750000I2000000J0D01*
G01*
X349250000Y-47500000D02*
G75*
G02*
X345250000Y-47500000I-2000000J0D01*
G01*
X345250000Y-47500000D02*
G75*
G02*
X349250000Y-47500000I2000000J0D01*
G01*
X75750000Y-47000000D02*
G75*
G02*
X71750000Y-47000000I-2000000J0D01*
G01*
X71750000Y-47000000D02*
G75*
G02*
X75750000Y-47000000I2000000J0D01*
G01*
X280750000Y-134250000D02*
G75*
G02*
X276750000Y-134250000I-2000000J0D01*
G01*
X276750000Y-134250000D02*
G75*
G02*
X280750000Y-134250000I2000000J0D01*
G01*
X435500000Y-28750000D02*
G75*
G02*
X431500000Y-28750000I-2000000J0D01*
G01*
X431500000Y-28750000D02*
G75*
G02*
X435500000Y-28750000I2000000J0D01*
G01*
X451250000Y-212750000D02*
G75*
G02*
X447250000Y-212750000I-2000000J0D01*
G01*
X447250000Y-212750000D02*
G75*
G02*
X451250000Y-212750000I2000000J0D01*
G01*
X117500000Y-47000000D02*
G75*
G02*
X113500000Y-47000000I-2000000J0D01*
G01*
X113500000Y-47000000D02*
G75*
G02*
X117500000Y-47000000I2000000J0D01*
G01*
X19500000Y-17500000D02*
X403500000Y-17500000D01*
X403500000Y-183500000D01*
X19500000Y-183500000D01*
X19500000Y-17500000D01*
X607500000Y-202250000D02*
G75*
G02*
X603500000Y-202250000I-2000000J0D01*
G01*
X603500000Y-202250000D02*
G75*
G02*
X607500000Y-202250000I2000000J0D01*
G01*
X228250000Y-23000000D02*
G75*
G02*
X224250000Y-23000000I-2000000J0D01*
G01*
X224250000Y-23000000D02*
G75*
G02*
X228250000Y-23000000I2000000J0D01*
G01*
X655500000Y-85500000D02*
G75*
G02*
X651500000Y-85500000I-2000000J0D01*
G01*
X651500000Y-85500000D02*
G75*
G02*
X655500000Y-85500000I2000000J0D01*
G01*
X167000000Y-47000000D02*
G75*
G02*
X163000000Y-47000000I-2000000J0D01*
G01*
X163000000Y-47000000D02*
G75*
G02*
X167000000Y-47000000I2000000J0D01*
G01*
X27000000Y-23000000D02*
G75*
G02*
X23000000Y-23000000I-2000000J0D01*
G01*
X23000000Y-23000000D02*
G75*
G02*
X27000000Y-23000000I2000000J0D01*
G01*
X191500000Y-176000000D02*
G75*
G02*
X187500000Y-176000000I-2000000J0D01*
G01*
X187500000Y-176000000D02*
G75*
G02*
X191500000Y-176000000I2000000J0D01*
G01*
M02*
